<svg width="46" height="46" viewBox="0 0 46 46" fill="none" xmlns="http://www.w3.org/2000/svg">
    <circle cx="23" cy="23" r="23" fill="#A3E635" fill-opacity="0.5"/>
    <g clip-path="url(#clip0_1_268)">
        <circle cx="22.5" cy="23.5" r="6.6875" fill="#3F3F46" stroke="#ECFE53"/>
        <g filter="url(#filter0_bi_1_268)">
            <path d="M11 14C11 12.8954 11.8954 12 13 12H19.0625C20.1671 12 21.0625 12.8954 21.0625 14V20.0625C21.0625 21.1671 20.1671 22.0625 19.0625 22.0625H13C11.8954 22.0625 11 21.1671 11 20.0625V14Z" fill="#3F3F46" fill-opacity="0.52"/>
            <path d="M11 14C11 12.8954 11.8954 12 13 12H19.0625C20.1671 12 21.0625 12.8954 21.0625 14V20.0625C21.0625 21.1671 20.1671 22.0625 19.0625 22.0625H13C11.8954 22.0625 11 21.1671 11 20.0625V14Z" fill="#3F3F46" fill-opacity="0.1"/>
            <path d="M11 26.9375C11 25.8329 11.8954 24.9375 13 24.9375H19.0625C20.1671 24.9375 21.0625 25.8329 21.0625 26.9375V33C21.0625 34.1046 20.1671 35 19.0625 35H13C11.8954 35 11 34.1046 11 33V26.9375Z" fill="#3F3F46" fill-opacity="0.52"/>
            <path d="M11 26.9375C11 25.8329 11.8954 24.9375 13 24.9375H19.0625C20.1671 24.9375 21.0625 25.8329 21.0625 26.9375V33C21.0625 34.1046 20.1671 35 19.0625 35H13C11.8954 35 11 34.1046 11 33V26.9375Z" fill="#3F3F46" fill-opacity="0.1"/>
            <path d="M23.9375 14C23.9375 12.8954 24.8329 12 25.9375 12H32C33.1046 12 34 12.8954 34 14V20.0625C34 21.1671 33.1046 22.0625 32 22.0625H25.9375C24.8329 22.0625 23.9375 21.1671 23.9375 20.0625V14Z" fill="#3F3F46" fill-opacity="0.52"/>
            <path d="M23.9375 14C23.9375 12.8954 24.8329 12 25.9375 12H32C33.1046 12 34 12.8954 34 14V20.0625C34 21.1671 33.1046 22.0625 32 22.0625H25.9375C24.8329 22.0625 23.9375 21.1671 23.9375 20.0625V14Z" fill="#3F3F46" fill-opacity="0.1"/>
            <path d="M23.9375 26.9375C23.9375 25.8329 24.8329 24.9375 25.9375 24.9375H32C33.1046 24.9375 34 25.8329 34 26.9375V33C34 34.1046 33.1046 35 32 35H25.9375C24.8329 35 23.9375 34.1046 23.9375 33V26.9375Z" fill="#3F3F46" fill-opacity="0.52"/>
            <path d="M23.9375 26.9375C23.9375 25.8329 24.8329 24.9375 25.9375 24.9375H32C33.1046 24.9375 34 25.8329 34 26.9375V33C34 34.1046 33.1046 35 32 35H25.9375C24.8329 35 23.9375 34.1046 23.9375 33V26.9375Z" fill="#3F3F46" fill-opacity="0.1"/>
            <path d="M11.1 14C11.1 12.9507 11.9507 12.1 13 12.1H19.0625C20.1118 12.1 20.9625 12.9507 20.9625 14V20.0625C20.9625 21.1118 20.1118 21.9625 19.0625 21.9625H13C11.9507 21.9625 11.1 21.1118 11.1 20.0625V14ZM11.1 26.9375C11.1 25.8882 11.9507 25.0375 13 25.0375H19.0625C20.1118 25.0375 20.9625 25.8882 20.9625 26.9375V33C20.9625 34.0493 20.1118 34.9 19.0625 34.9H13C11.9507 34.9 11.1 34.0493 11.1 33V26.9375ZM24.0375 14C24.0375 12.9507 24.8882 12.1 25.9375 12.1H32C33.0493 12.1 33.9 12.9507 33.9 14V20.0625C33.9 21.1118 33.0493 21.9625 32 21.9625H25.9375C24.8882 21.9625 24.0375 21.1118 24.0375 20.0625V14ZM24.0375 26.9375C24.0375 25.8882 24.8882 25.0375 25.9375 25.0375H32C33.0493 25.0375 33.9 25.8882 33.9 26.9375V33C33.9 34.0493 33.0493 34.9 32 34.9H25.9375C24.8882 34.9 24.0375 34.0493 24.0375 33V26.9375Z" stroke="#ECFE53" stroke-width="0.2"/>
        </g>
    </g>
    <defs>
        <filter id="filter0_bi_1_268" x="8" y="9" width="29" height="29" filterUnits="userSpaceOnUse" color-interpolation-filters="sRGB">
            <feFlood flood-opacity="0" result="BackgroundImageFix"/>
            <feGaussianBlur in="BackgroundImageFix" stdDeviation="1.5"/>
            <feComposite in2="SourceAlpha" operator="in" result="effect1_backgroundBlur_1_268"/>
            <feBlend mode="normal" in="SourceGraphic" in2="effect1_backgroundBlur_1_268" result="shape"/>
            <feColorMatrix in="SourceAlpha" type="matrix" values="0 0 0 0 0 0 0 0 0 0 0 0 0 0 0 0 0 0 127 0" result="hardAlpha"/>
            <feOffset dy="0.5"/>
            <feGaussianBlur stdDeviation="1"/>
            <feComposite in2="hardAlpha" operator="arithmetic" k2="-1" k3="1"/>
            <feColorMatrix type="matrix" values="0 0 0 0 1 0 0 0 0 1 0 0 0 0 1 0 0 0 0.4 0"/>
            <feBlend mode="normal" in2="shape" result="effect2_innerShadow_1_268"/>
        </filter>
        <clipPath id="clip0_1_268">
            <rect x="11" y="12" width="23" height="23" fill="white"/>
        </clipPath>
    </defs>
</svg>
