<svg width="420" height="242" viewBox="0 0 420 242" fill="none" xmlns="http://www.w3.org/2000/svg">
    <g filter="url(#filter0_d_20_62)">
        <rect x="9" y="9" width="398" height="220" rx="20" fill="#13190D" shape-rendering="crispEdges"/>
        <path d="M40.1766 49V37.8H47.1046V38.904H41.5206V42.808H46.6246V43.896H41.5206V47.896H47.1046V49H40.1766ZM49.1274 49V40.968H50.3434L50.4234 42.376C50.6794 41.8747 51.0421 41.4853 51.5114 41.208C51.9914 40.92 52.5354 40.776 53.1434 40.776C53.7728 40.776 54.3168 40.8987 54.7754 41.144C55.2341 41.3893 55.5914 41.768 55.8474 42.28C56.1034 42.792 56.2314 43.4373 56.2314 44.216V49H54.8874V44.36C54.8874 43.5493 54.7114 42.9413 54.3594 42.536C54.0074 42.1307 53.5008 41.928 52.8394 41.928C52.3914 41.928 51.9861 42.04 51.6234 42.264C51.2714 42.4773 50.9888 42.792 50.7754 43.208C50.5728 43.624 50.4714 44.1307 50.4714 44.728V49H49.1274ZM61.4833 52.712C60.758 52.712 60.118 52.616 59.5633 52.424C59.0086 52.2427 58.5766 51.96 58.2673 51.576C57.958 51.192 57.8033 50.7173 57.8033 50.152C57.8033 49.9067 57.8513 49.6453 57.9473 49.368C58.054 49.1013 58.23 48.8347 58.4753 48.568C58.7313 48.3013 59.0886 48.0613 59.5473 47.848L60.4593 48.392C59.9046 48.6267 59.542 48.8933 59.3713 49.192C59.2006 49.4907 59.1153 49.768 59.1153 50.024C59.1153 50.376 59.2166 50.6693 59.4193 50.904C59.622 51.1387 59.8993 51.3147 60.2513 51.432C60.614 51.5493 61.0246 51.608 61.4833 51.608C61.942 51.608 62.3366 51.5387 62.6673 51.4C62.998 51.272 63.254 51.0907 63.4353 50.856C63.6166 50.632 63.7073 50.36 63.7073 50.04C63.7073 49.6773 63.5686 49.368 63.2913 49.112C63.014 48.8667 62.4913 48.7227 61.7233 48.68C61.0833 48.6373 60.55 48.5787 60.1233 48.504C59.7073 48.4293 59.3606 48.344 59.0833 48.248C58.806 48.1413 58.5713 48.024 58.3793 47.896C58.198 47.768 58.0326 47.6347 57.8833 47.496V47.128L59.4353 45.576L60.6033 45.992L59.0033 47.448L59.2113 46.888C59.3286 46.9733 59.4406 47.0533 59.5473 47.128C59.654 47.192 59.798 47.2507 59.9793 47.304C60.1606 47.3573 60.4113 47.4107 60.7313 47.464C61.0513 47.5067 61.4833 47.5493 62.0273 47.592C62.7526 47.6453 63.334 47.7733 63.7713 47.976C64.2193 48.1787 64.5393 48.4507 64.7313 48.792C64.934 49.1333 65.0353 49.5333 65.0353 49.992C65.0353 50.4507 64.9073 50.8827 64.6513 51.288C64.406 51.704 64.022 52.0453 63.4993 52.312C62.9766 52.5787 62.3046 52.712 61.4833 52.712ZM61.4673 46.472C60.7953 46.472 60.2246 46.3493 59.7553 46.104C59.286 45.848 58.9286 45.5067 58.6833 45.08C58.438 44.6427 58.3153 44.1573 58.3153 43.624C58.3153 43.0907 58.438 42.6107 58.6833 42.184C58.9286 41.7573 59.286 41.416 59.7553 41.16C60.2246 40.904 60.7953 40.776 61.4673 40.776C62.15 40.776 62.726 40.904 63.1953 41.16C63.6646 41.416 64.022 41.7573 64.2673 42.184C64.5126 42.6107 64.6353 43.0907 64.6353 43.624C64.6353 44.1573 64.5126 44.6427 64.2673 45.08C64.022 45.5067 63.6646 45.848 63.1953 46.104C62.726 46.3493 62.15 46.472 61.4673 46.472ZM61.4673 45.368C62.0433 45.368 62.4966 45.224 62.8273 44.936C63.1686 44.6373 63.3393 44.2 63.3393 43.624C63.3393 43.0693 63.1686 42.6427 62.8273 42.344C62.4966 42.0453 62.0433 41.896 61.4673 41.896C60.902 41.896 60.4486 42.0453 60.1073 42.344C59.766 42.6427 59.5953 43.0693 59.5953 43.624C59.5953 44.2 59.766 44.6373 60.1073 44.936C60.4486 45.224 60.902 45.368 61.4673 45.368ZM62.7793 42.104L62.3793 40.968H65.6753V41.976L62.7793 42.104ZM69.8456 49.192C69.1949 49.192 68.6509 49.08 68.2136 48.856C67.7762 48.6213 67.4509 48.3173 67.2376 47.944C67.0242 47.56 66.9176 47.1493 66.9176 46.712C66.9176 46.168 67.0562 45.7093 67.3336 45.336C67.6216 44.952 68.0216 44.664 68.5336 44.472C69.0562 44.2693 69.6642 44.168 70.3576 44.168H72.5016C72.5016 43.6667 72.4216 43.2507 72.2616 42.92C72.1122 42.5893 71.8882 42.3387 71.5896 42.168C71.2909 41.9973 70.9282 41.912 70.5016 41.912C69.9896 41.912 69.5469 42.04 69.1736 42.296C68.8002 42.552 68.5709 42.9307 68.4856 43.432H67.1096C67.1736 42.856 67.3656 42.376 67.6856 41.992C68.0162 41.5973 68.4322 41.2987 68.9336 41.096C69.4349 40.8827 69.9576 40.776 70.5016 40.776C71.2482 40.776 71.8669 40.9147 72.3576 41.192C72.8482 41.4587 73.2162 41.8373 73.4616 42.328C73.7176 42.808 73.8456 43.3733 73.8456 44.024V49H72.6456L72.5656 47.576C72.4589 47.8 72.3202 48.0133 72.1496 48.216C71.9896 48.408 71.7976 48.5787 71.5736 48.728C71.3602 48.8667 71.1096 48.9787 70.8216 49.064C70.5336 49.1493 70.2082 49.192 69.8456 49.192ZM70.0536 48.056C70.4269 48.056 70.7629 47.9813 71.0616 47.832C71.3709 47.672 71.6322 47.4587 71.8456 47.192C72.0589 46.9253 72.2189 46.6267 72.3256 46.296C72.4429 45.9547 72.5016 45.608 72.5016 45.256V45.208H70.4696C69.9576 45.208 69.5416 45.272 69.2216 45.4C68.9016 45.5173 68.6722 45.688 68.5336 45.912C68.3949 46.1253 68.3256 46.3707 68.3256 46.648C68.3256 46.936 68.3896 47.1867 68.5176 47.4C68.6562 47.6027 68.8536 47.7627 69.1096 47.88C69.3656 47.9973 69.6802 48.056 70.0536 48.056ZM79.0927 52.712C78.3674 52.712 77.7274 52.616 77.1727 52.424C76.618 52.2427 76.186 51.96 75.8767 51.576C75.5674 51.192 75.4127 50.7173 75.4127 50.152C75.4127 49.9067 75.4607 49.6453 75.5567 49.368C75.6634 49.1013 75.8394 48.8347 76.0847 48.568C76.3407 48.3013 76.698 48.0613 77.1567 47.848L78.0687 48.392C77.514 48.6267 77.1514 48.8933 76.9807 49.192C76.81 49.4907 76.7247 49.768 76.7247 50.024C76.7247 50.376 76.826 50.6693 77.0287 50.904C77.2314 51.1387 77.5087 51.3147 77.8607 51.432C78.2234 51.5493 78.634 51.608 79.0927 51.608C79.5514 51.608 79.946 51.5387 80.2767 51.4C80.6074 51.272 80.8634 51.0907 81.0447 50.856C81.226 50.632 81.3167 50.36 81.3167 50.04C81.3167 49.6773 81.178 49.368 80.9007 49.112C80.6234 48.8667 80.1007 48.7227 79.3327 48.68C78.6927 48.6373 78.1594 48.5787 77.7327 48.504C77.3167 48.4293 76.97 48.344 76.6927 48.248C76.4154 48.1413 76.1807 48.024 75.9887 47.896C75.8074 47.768 75.642 47.6347 75.4927 47.496V47.128L77.0447 45.576L78.2127 45.992L76.6127 47.448L76.8207 46.888C76.938 46.9733 77.05 47.0533 77.1567 47.128C77.2634 47.192 77.4074 47.2507 77.5887 47.304C77.77 47.3573 78.0207 47.4107 78.3407 47.464C78.6607 47.5067 79.0927 47.5493 79.6367 47.592C80.362 47.6453 80.9434 47.7733 81.3807 47.976C81.8287 48.1787 82.1487 48.4507 82.3407 48.792C82.5434 49.1333 82.6447 49.5333 82.6447 49.992C82.6447 50.4507 82.5167 50.8827 82.2607 51.288C82.0154 51.704 81.6314 52.0453 81.1087 52.312C80.586 52.5787 79.914 52.712 79.0927 52.712ZM79.0767 46.472C78.4047 46.472 77.834 46.3493 77.3647 46.104C76.8954 45.848 76.538 45.5067 76.2927 45.08C76.0474 44.6427 75.9247 44.1573 75.9247 43.624C75.9247 43.0907 76.0474 42.6107 76.2927 42.184C76.538 41.7573 76.8954 41.416 77.3647 41.16C77.834 40.904 78.4047 40.776 79.0767 40.776C79.7594 40.776 80.3354 40.904 80.8047 41.16C81.274 41.416 81.6314 41.7573 81.8767 42.184C82.122 42.6107 82.2447 43.0907 82.2447 43.624C82.2447 44.1573 82.122 44.6427 81.8767 45.08C81.6314 45.5067 81.274 45.848 80.8047 46.104C80.3354 46.3493 79.7594 46.472 79.0767 46.472ZM79.0767 45.368C79.6527 45.368 80.106 45.224 80.4367 44.936C80.778 44.6373 80.9487 44.2 80.9487 43.624C80.9487 43.0693 80.778 42.6427 80.4367 42.344C80.106 42.0453 79.6527 41.896 79.0767 41.896C78.5114 41.896 78.058 42.0453 77.7167 42.344C77.3754 42.6427 77.2047 43.0693 77.2047 43.624C77.2047 44.2 77.3754 44.6373 77.7167 44.936C78.058 45.224 78.5114 45.368 79.0767 45.368ZM80.3887 42.104L79.9887 40.968H83.2847V41.976L80.3887 42.104ZM88.0544 49.192C87.3078 49.192 86.6411 49.016 86.0544 48.664C85.4678 48.312 85.0038 47.8213 84.6624 47.192C84.3318 46.5627 84.1664 45.8267 84.1664 44.984C84.1664 44.1307 84.3318 43.3947 84.6624 42.776C84.9931 42.1467 85.4518 41.656 86.0384 41.304C86.6358 40.952 87.3184 40.776 88.0864 40.776C88.8758 40.776 89.5478 40.952 90.1024 41.304C90.6571 41.656 91.0784 42.1147 91.3664 42.68C91.6651 43.2453 91.8144 43.8693 91.8144 44.552C91.8144 44.6587 91.8144 44.7707 91.8144 44.888C91.8144 45.0053 91.8091 45.1387 91.7984 45.288H85.1744V44.248H90.4864C90.4544 43.512 90.2091 42.9413 89.7504 42.536C89.3024 42.12 88.7371 41.912 88.0544 41.912C87.6064 41.912 87.1851 42.0187 86.7904 42.232C86.3958 42.4347 86.0758 42.7333 85.8304 43.128C85.5958 43.5227 85.4784 44.0187 85.4784 44.616V45.064C85.4784 45.7253 85.6011 46.28 85.8464 46.728C86.0918 47.1653 86.4064 47.496 86.7904 47.72C87.1851 47.944 87.6064 48.056 88.0544 48.056C88.6198 48.056 89.0838 47.9333 89.4464 47.688C89.8198 47.432 90.0918 47.0853 90.2624 46.648H91.5904C91.4518 47.1387 91.2224 47.576 90.9024 47.96C90.5824 48.3333 90.1824 48.632 89.7024 48.856C89.2331 49.08 88.6838 49.192 88.0544 49.192ZM93.5962 49V40.968H94.8122L94.9082 42.12C95.1642 41.6933 95.5055 41.3627 95.9322 41.128C96.3589 40.8933 96.8335 40.776 97.3562 40.776C97.7722 40.776 98.1509 40.8347 98.4922 40.952C98.8335 41.0587 99.1322 41.2293 99.3882 41.464C99.6442 41.688 99.8522 41.976 100.012 42.328C100.29 41.8373 100.668 41.4587 101.148 41.192C101.639 40.9147 102.162 40.776 102.716 40.776C103.335 40.776 103.874 40.904 104.332 41.16C104.802 41.4053 105.164 41.784 105.42 42.296C105.676 42.7973 105.804 43.4373 105.804 44.216V49H104.476V44.36C104.476 43.5493 104.311 42.9413 103.98 42.536C103.65 42.1307 103.18 41.928 102.572 41.928C102.156 41.928 101.778 42.04 101.436 42.264C101.106 42.4773 100.844 42.792 100.652 43.208C100.471 43.624 100.38 44.136 100.38 44.744V49H99.0362V44.36C99.0362 43.5493 98.8709 42.9413 98.5402 42.536C98.2095 42.1307 97.7402 41.928 97.1322 41.928C96.7269 41.928 96.3535 42.04 96.0122 42.264C95.6815 42.4773 95.4202 42.792 95.2282 43.208C95.0362 43.624 94.9402 44.136 94.9402 44.744V49H93.5962ZM111.414 49.192C110.667 49.192 110 49.016 109.414 48.664C108.827 48.312 108.363 47.8213 108.022 47.192C107.691 46.5627 107.526 45.8267 107.526 44.984C107.526 44.1307 107.691 43.3947 108.022 42.776C108.352 42.1467 108.811 41.656 109.398 41.304C109.995 40.952 110.678 40.776 111.446 40.776C112.235 40.776 112.907 40.952 113.462 41.304C114.016 41.656 114.438 42.1147 114.726 42.68C115.024 43.2453 115.174 43.8693 115.174 44.552C115.174 44.6587 115.174 44.7707 115.174 44.888C115.174 45.0053 115.168 45.1387 115.158 45.288H108.534V44.248H113.846C113.814 43.512 113.568 42.9413 113.11 42.536C112.662 42.12 112.096 41.912 111.414 41.912C110.966 41.912 110.544 42.0187 110.15 42.232C109.755 42.4347 109.435 42.7333 109.19 43.128C108.955 43.5227 108.838 44.0187 108.838 44.616V45.064C108.838 45.7253 108.96 46.28 109.206 46.728C109.451 47.1653 109.766 47.496 110.15 47.72C110.544 47.944 110.966 48.056 111.414 48.056C111.979 48.056 112.443 47.9333 112.806 47.688C113.179 47.432 113.451 47.0853 113.622 46.648H114.95C114.811 47.1387 114.582 47.576 114.262 47.96C113.942 48.3333 113.542 48.632 113.062 48.856C112.592 49.08 112.043 49.192 111.414 49.192ZM116.956 49V40.968H118.172L118.252 42.376C118.508 41.8747 118.87 41.4853 119.34 41.208C119.82 40.92 120.364 40.776 120.972 40.776C121.601 40.776 122.145 40.8987 122.604 41.144C123.062 41.3893 123.42 41.768 123.676 42.28C123.932 42.792 124.06 43.4373 124.06 44.216V49H122.716V44.36C122.716 43.5493 122.54 42.9413 122.188 42.536C121.836 42.1307 121.329 41.928 120.668 41.928C120.22 41.928 119.814 42.04 119.452 42.264C119.1 42.4773 118.817 42.792 118.604 43.208C118.401 43.624 118.3 44.1307 118.3 44.728V49H116.956ZM129.295 49C128.815 49 128.399 48.9253 128.047 48.776C127.695 48.6267 127.423 48.376 127.231 48.024C127.05 47.6613 126.959 47.176 126.959 46.568V42.104H125.567V40.968H126.959L127.135 39.032H128.303V40.968H130.655V42.104H128.303V46.568C128.303 47.0693 128.405 47.4107 128.607 47.592C128.81 47.7627 129.167 47.848 129.679 47.848H130.543V49H129.295ZM67.1205 70V59.904H63.7765V58.8H71.8085V59.904H68.4645V70H67.1205ZM73.5293 70V61.968H74.8733V70H73.5293ZM74.2013 60.24C73.9346 60.24 73.7106 60.1547 73.5293 59.984C73.3586 59.8027 73.2733 59.5787 73.2733 59.312C73.2733 59.0453 73.3586 58.832 73.5293 58.672C73.7106 58.5013 73.9346 58.416 74.2013 58.416C74.4573 58.416 74.6759 58.5013 74.8573 58.672C75.0386 58.832 75.1293 59.0453 75.1293 59.312C75.1293 59.5787 75.0386 59.8027 74.8573 59.984C74.6759 60.1547 74.4573 60.24 74.2013 60.24ZM77.2134 70V61.968H78.4294L78.5254 63.12C78.7814 62.6933 79.1227 62.3627 79.5494 62.128C79.976 61.8933 80.4507 61.776 80.9734 61.776C81.3894 61.776 81.768 61.8347 82.1094 61.952C82.4507 62.0587 82.7494 62.2293 83.0054 62.464C83.2614 62.688 83.4694 62.976 83.6294 63.328C83.9067 62.8373 84.2854 62.4587 84.7654 62.192C85.256 61.9147 85.7787 61.776 86.3334 61.776C86.952 61.776 87.4907 61.904 87.9494 62.16C88.4187 62.4053 88.7814 62.784 89.0374 63.296C89.2934 63.7973 89.4214 64.4373 89.4214 65.216V70H88.0934V65.36C88.0934 64.5493 87.928 63.9413 87.5974 63.536C87.2667 63.1307 86.7974 62.928 86.1894 62.928C85.7734 62.928 85.3947 63.04 85.0534 63.264C84.7227 63.4773 84.4614 63.792 84.2694 64.208C84.088 64.624 83.9974 65.136 83.9974 65.744V70H82.6534V65.36C82.6534 64.5493 82.488 63.9413 82.1574 63.536C81.8267 63.1307 81.3574 62.928 80.7494 62.928C80.344 62.928 79.9707 63.04 79.6294 63.264C79.2987 63.4773 79.0374 63.792 78.8454 64.208C78.6534 64.624 78.5574 65.136 78.5574 65.744V70H77.2134ZM95.031 70.192C94.2843 70.192 93.6177 70.016 93.031 69.664C92.4443 69.312 91.9803 68.8213 91.639 68.192C91.3083 67.5627 91.143 66.8267 91.143 65.984C91.143 65.1307 91.3083 64.3947 91.639 63.776C91.9697 63.1467 92.4283 62.656 93.015 62.304C93.6123 61.952 94.295 61.776 95.063 61.776C95.8523 61.776 96.5243 61.952 97.079 62.304C97.6337 62.656 98.055 63.1147 98.343 63.68C98.6417 64.2453 98.791 64.8693 98.791 65.552C98.791 65.6587 98.791 65.7707 98.791 65.888C98.791 66.0053 98.7857 66.1387 98.775 66.288H92.151V65.248H97.463C97.431 64.512 97.1857 63.9413 96.727 63.536C96.279 63.12 95.7137 62.912 95.031 62.912C94.583 62.912 94.1617 63.0187 93.767 63.232C93.3723 63.4347 93.0523 63.7333 92.807 64.128C92.5723 64.5227 92.455 65.0187 92.455 65.616V66.064C92.455 66.7253 92.5777 67.28 92.823 67.728C93.0683 68.1653 93.383 68.496 93.767 68.72C94.1617 68.944 94.583 69.056 95.031 69.056C95.5963 69.056 96.0603 68.9333 96.423 68.688C96.7963 68.432 97.0683 68.0853 97.239 67.648H98.567C98.4283 68.1387 98.199 68.576 97.879 68.96C97.559 69.3333 97.159 69.632 96.679 69.856C96.2097 70.08 95.6603 70.192 95.031 70.192ZM101.053 70.08C100.786 70.08 100.562 69.9947 100.381 69.824C100.21 69.6427 100.125 69.424 100.125 69.168C100.125 68.912 100.21 68.6987 100.381 68.528C100.562 68.3467 100.786 68.256 101.053 68.256C101.319 68.256 101.538 68.3467 101.709 68.528C101.879 68.6987 101.965 68.912 101.965 69.168C101.965 69.424 101.879 69.6427 101.709 69.824C101.538 69.9947 101.319 70.08 101.053 70.08ZM101.053 63.6C100.786 63.6 100.562 63.5147 100.381 63.344C100.21 63.1627 100.125 62.944 100.125 62.688C100.125 62.432 100.21 62.2187 100.381 62.048C100.562 61.8667 100.786 61.776 101.053 61.776C101.319 61.776 101.538 61.8667 101.709 62.048C101.879 62.2187 101.965 62.432 101.965 62.688C101.965 62.944 101.879 63.1627 101.709 63.344C101.538 63.5147 101.319 63.6 101.053 63.6Z" fill="#FDFEFF" fill-opacity="0.8"/>
        <path d="M57.5938 101V99.02C58.4338 98.34 59.2538 97.66 60.0538 96.98C60.8538 96.3 61.5738 95.6267 62.2138 94.96C62.8538 94.28 63.3604 93.62 63.7338 92.98C64.1071 92.34 64.2938 91.72 64.2938 91.12C64.2938 90.7467 64.2204 90.4067 64.0738 90.1C63.9404 89.78 63.7338 89.5267 63.4538 89.34C63.1738 89.14 62.8004 89.04 62.3338 89.04C61.8804 89.04 61.4938 89.1467 61.1738 89.36C60.8538 89.5733 60.6138 89.86 60.4538 90.22C60.2938 90.5667 60.2138 90.96 60.2138 91.4H57.5938C57.6338 90.3733 57.8671 89.5133 58.2938 88.82C58.7204 88.1267 59.2938 87.6133 60.0138 87.28C60.7338 86.9333 61.5338 86.76 62.4138 86.76C63.4004 86.76 64.2338 86.9467 64.9138 87.32C65.5938 87.68 66.1071 88.1733 66.4538 88.8C66.8138 89.4267 66.9938 90.1467 66.9938 90.96C66.9938 91.5733 66.8804 92.1733 66.6538 92.76C66.4271 93.3467 66.1204 93.92 65.7338 94.48C65.3471 95.0267 64.9071 95.5533 64.4138 96.06C63.9204 96.5667 63.4071 97.0533 62.8738 97.52C62.3538 97.9733 61.8404 98.4 61.3338 98.8H67.3138V101H57.5938ZM74.0852 101V91.02H76.4652L76.6852 92.36C77.0052 91.8667 77.4252 91.48 77.9452 91.2C78.4785 90.92 79.0918 90.78 79.7852 90.78C80.2918 90.78 80.7452 90.8467 81.1452 90.98C81.5585 91.1 81.9185 91.2933 82.2252 91.56C82.5452 91.8133 82.8052 92.1333 83.0052 92.52C83.3785 91.9733 83.8652 91.5467 84.4652 91.24C85.0785 90.9333 85.7385 90.78 86.4452 90.78C87.3252 90.78 88.0585 90.96 88.6452 91.32C89.2452 91.6667 89.6985 92.18 90.0052 92.86C90.3118 93.5267 90.4652 94.3533 90.4652 95.34V101H87.7852V95.58C87.7852 94.7667 87.6252 94.1467 87.3052 93.72C86.9852 93.28 86.4985 93.06 85.8452 93.06C85.4052 93.06 85.0185 93.1667 84.6852 93.38C84.3518 93.5933 84.0918 93.9067 83.9052 94.32C83.7185 94.72 83.6252 95.2067 83.6252 95.78V101H80.9452V95.58C80.9452 94.7667 80.7852 94.1467 80.4652 93.72C80.1452 93.28 79.6452 93.06 78.9652 93.06C78.5385 93.06 78.1585 93.1667 77.8252 93.38C77.5052 93.5933 77.2518 93.9067 77.0652 94.32C76.8785 94.72 76.7852 95.2067 76.7852 95.78V101H74.0852ZM93.0128 101V91.02H95.7128V101H93.0128ZM94.3728 89.6C93.8795 89.6 93.4795 89.46 93.1728 89.18C92.8661 88.8867 92.7128 88.52 92.7128 88.08C92.7128 87.64 92.8661 87.28 93.1728 87C93.4795 86.7067 93.8795 86.56 94.3728 86.56C94.8661 86.56 95.2661 86.7067 95.5728 87C95.8928 87.28 96.0528 87.64 96.0528 88.08C96.0528 88.52 95.8928 88.8867 95.5728 89.18C95.2661 89.46 94.8661 89.6 94.3728 89.6ZM98.4016 101V91.02H100.782L100.982 92.68C101.302 92.1067 101.742 91.6467 102.302 91.3C102.875 90.9533 103.562 90.78 104.362 90.78C105.188 90.78 105.888 90.9533 106.462 91.3C107.035 91.6467 107.475 92.16 107.782 92.84C108.088 93.52 108.242 94.3533 108.242 95.34V101H105.542V95.58C105.542 94.7667 105.375 94.1467 105.042 93.72C104.708 93.28 104.182 93.06 103.462 93.06C103.008 93.06 102.602 93.1667 102.242 93.38C101.895 93.5933 101.615 93.9067 101.402 94.32C101.202 94.72 101.102 95.2067 101.102 95.78V101H98.4016Z" fill="#A3E635"/>
        <path d="M191.724 49.192C190.646 49.192 189.697 48.952 188.876 48.472C188.065 47.9813 187.425 47.304 186.956 46.44C186.497 45.5653 186.268 44.552 186.268 43.4C186.268 42.2587 186.497 41.256 186.956 40.392C187.425 39.5173 188.065 38.8347 188.876 38.344C189.697 37.8533 190.646 37.608 191.724 37.608C192.822 37.608 193.777 37.8533 194.588 38.344C195.409 38.8347 196.044 39.5173 196.492 40.392C196.95 41.256 197.18 42.2587 197.18 43.4C197.18 44.552 196.95 45.5653 196.492 46.44C196.044 47.304 195.409 47.9813 194.588 48.472C193.777 48.952 192.822 49.192 191.724 49.192ZM191.724 48.008C192.534 48.008 193.244 47.8267 193.852 47.464C194.47 47.0907 194.95 46.5627 195.292 45.88C195.633 45.1867 195.804 44.36 195.804 43.4C195.804 42.44 195.633 41.6187 195.292 40.936C194.95 40.2427 194.47 39.7147 193.852 39.352C193.244 38.9893 192.534 38.808 191.724 38.808C190.913 38.808 190.204 38.9893 189.596 39.352C188.988 39.7147 188.508 40.2427 188.156 40.936C187.814 41.6187 187.644 42.44 187.644 43.4C187.644 44.36 187.814 45.1867 188.156 45.88C188.508 46.5627 188.988 47.0907 189.596 47.464C190.204 47.8267 190.913 48.008 191.724 48.008ZM199.042 52.52V40.968H200.258L200.386 42.28C200.556 42.024 200.775 41.784 201.042 41.56C201.308 41.3253 201.628 41.1387 202.002 41C202.375 40.8507 202.807 40.776 203.298 40.776C204.076 40.776 204.754 40.9627 205.33 41.336C205.916 41.6987 206.37 42.2 206.69 42.84C207.02 43.4693 207.186 44.1893 207.186 45C207.186 45.8107 207.02 46.5307 206.69 47.16C206.37 47.7893 205.916 48.2853 205.33 48.648C204.743 49.0107 204.06 49.192 203.282 49.192C202.631 49.192 202.055 49.0587 201.554 48.792C201.052 48.5253 200.663 48.152 200.386 47.672V52.52H199.042ZM203.122 48.024C203.655 48.024 204.124 47.9013 204.53 47.656C204.935 47.4 205.25 47.0427 205.474 46.584C205.708 46.1253 205.826 45.592 205.826 44.984C205.826 44.376 205.708 43.8427 205.474 43.384C205.25 42.9253 204.935 42.5733 204.53 42.328C204.124 42.072 203.655 41.944 203.122 41.944C202.588 41.944 202.119 42.072 201.714 42.328C201.308 42.5733 200.994 42.9253 200.77 43.384C200.546 43.8427 200.434 44.376 200.434 44.984C200.434 45.592 200.546 46.1253 200.77 46.584C200.994 47.0427 201.308 47.4 201.714 47.656C202.119 47.9013 202.588 48.024 203.122 48.024ZM212.625 49.192C211.878 49.192 211.211 49.016 210.625 48.664C210.038 48.312 209.574 47.8213 209.233 47.192C208.902 46.5627 208.737 45.8267 208.737 44.984C208.737 44.1307 208.902 43.3947 209.233 42.776C209.563 42.1467 210.022 41.656 210.609 41.304C211.206 40.952 211.889 40.776 212.657 40.776C213.446 40.776 214.118 40.952 214.673 41.304C215.227 41.656 215.649 42.1147 215.937 42.68C216.235 43.2453 216.385 43.8693 216.385 44.552C216.385 44.6587 216.385 44.7707 216.385 44.888C216.385 45.0053 216.379 45.1387 216.369 45.288H209.745V44.248H215.057C215.025 43.512 214.779 42.9413 214.321 42.536C213.873 42.12 213.307 41.912 212.625 41.912C212.177 41.912 211.755 42.0187 211.361 42.232C210.966 42.4347 210.646 42.7333 210.401 43.128C210.166 43.5227 210.049 44.0187 210.049 44.616V45.064C210.049 45.7253 210.171 46.28 210.417 46.728C210.662 47.1653 210.977 47.496 211.361 47.72C211.755 47.944 212.177 48.056 212.625 48.056C213.19 48.056 213.654 47.9333 214.017 47.688C214.39 47.432 214.662 47.0853 214.833 46.648H216.161C216.022 47.1387 215.793 47.576 215.473 47.96C215.153 48.3333 214.753 48.632 214.273 48.856C213.803 49.08 213.254 49.192 212.625 49.192ZM218.167 49V40.968H219.383L219.463 42.376C219.719 41.8747 220.081 41.4853 220.551 41.208C221.031 40.92 221.575 40.776 222.183 40.776C222.812 40.776 223.356 40.8987 223.815 41.144C224.273 41.3893 224.631 41.768 224.887 42.28C225.143 42.792 225.271 43.4373 225.271 44.216V49H223.927V44.36C223.927 43.5493 223.751 42.9413 223.399 42.536C223.047 42.1307 222.54 41.928 221.879 41.928C221.431 41.928 221.025 42.04 220.663 42.264C220.311 42.4773 220.028 42.792 219.815 43.208C219.612 43.624 219.511 44.1307 219.511 44.728V49H218.167ZM191.145 70V58.8H194.761C195.636 58.8 196.351 58.9493 196.905 59.248C197.46 59.536 197.871 59.9253 198.137 60.416C198.404 60.9067 198.537 61.4613 198.537 62.08C198.537 62.6773 198.399 63.2267 198.121 63.728C197.855 64.2293 197.439 64.6293 196.873 64.928C196.308 65.2267 195.583 65.376 194.697 65.376H192.489V70H191.145ZM197.065 70L194.601 64.992H196.105L198.649 70H197.065ZM192.489 64.32H194.665C195.519 64.32 196.143 64.112 196.537 63.696C196.943 63.28 197.145 62.7467 197.145 62.096C197.145 61.4347 196.948 60.912 196.553 60.528C196.169 60.1333 195.535 59.936 194.649 59.936H192.489V64.32ZM202.971 70.192C202.32 70.192 201.776 70.08 201.339 69.856C200.901 69.6213 200.576 69.3173 200.363 68.944C200.149 68.56 200.043 68.1493 200.043 67.712C200.043 67.168 200.181 66.7093 200.459 66.336C200.747 65.952 201.147 65.664 201.659 65.472C202.181 65.2693 202.789 65.168 203.483 65.168H205.627C205.627 64.6667 205.547 64.2507 205.387 63.92C205.237 63.5893 205.013 63.3387 204.715 63.168C204.416 62.9973 204.053 62.912 203.627 62.912C203.115 62.912 202.672 63.04 202.299 63.296C201.925 63.552 201.696 63.9307 201.611 64.432H200.235C200.299 63.856 200.491 63.376 200.811 62.992C201.141 62.5973 201.557 62.2987 202.059 62.096C202.56 61.8827 203.083 61.776 203.627 61.776C204.373 61.776 204.992 61.9147 205.483 62.192C205.973 62.4587 206.341 62.8373 206.587 63.328C206.843 63.808 206.971 64.3733 206.971 65.024V70H205.771L205.691 68.576C205.584 68.8 205.445 69.0133 205.275 69.216C205.115 69.408 204.923 69.5787 204.699 69.728C204.485 69.8667 204.235 69.9787 203.947 70.064C203.659 70.1493 203.333 70.192 202.971 70.192ZM203.179 69.056C203.552 69.056 203.888 68.9813 204.187 68.832C204.496 68.672 204.757 68.4587 204.971 68.192C205.184 67.9253 205.344 67.6267 205.451 67.296C205.568 66.9547 205.627 66.608 205.627 66.256V66.208H203.595C203.083 66.208 202.667 66.272 202.347 66.4C202.027 66.5173 201.797 66.688 201.659 66.912C201.52 67.1253 201.451 67.3707 201.451 67.648C201.451 67.936 201.515 68.1867 201.643 68.4C201.781 68.6027 201.979 68.7627 202.235 68.88C202.491 68.9973 202.805 69.056 203.179 69.056ZM211.983 70C211.503 70 211.087 69.9253 210.735 69.776C210.383 69.6267 210.111 69.376 209.919 69.024C209.738 68.6613 209.647 68.176 209.647 67.568V63.104H208.255V61.968H209.647L209.823 60.032H210.991V61.968H213.343V63.104H210.991V67.568C210.991 68.0693 211.092 68.4107 211.295 68.592C211.498 68.7627 211.855 68.848 212.367 68.848H213.231V70H211.983ZM218.398 70.192C217.652 70.192 216.985 70.016 216.398 69.664C215.812 69.312 215.348 68.8213 215.006 68.192C214.676 67.5627 214.51 66.8267 214.51 65.984C214.51 65.1307 214.676 64.3947 215.006 63.776C215.337 63.1467 215.796 62.656 216.382 62.304C216.98 61.952 217.662 61.776 218.43 61.776C219.22 61.776 219.892 61.952 220.446 62.304C221.001 62.656 221.422 63.1147 221.71 63.68C222.009 64.2453 222.158 64.8693 222.158 65.552C222.158 65.6587 222.158 65.7707 222.158 65.888C222.158 66.0053 222.153 66.1387 222.142 66.288H215.518V65.248H220.83C220.798 64.512 220.553 63.9413 220.094 63.536C219.646 63.12 219.081 62.912 218.398 62.912C217.95 62.912 217.529 63.0187 217.134 63.232C216.74 63.4347 216.42 63.7333 216.174 64.128C215.94 64.5227 215.822 65.0187 215.822 65.616V66.064C215.822 66.7253 215.945 67.28 216.19 67.728C216.436 68.1653 216.75 68.496 217.134 68.72C217.529 68.944 217.95 69.056 218.398 69.056C218.964 69.056 219.428 68.9333 219.79 68.688C220.164 68.432 220.436 68.0853 220.606 67.648H221.934C221.796 68.1387 221.566 68.576 221.246 68.96C220.926 69.3333 220.526 69.632 220.046 69.856C219.577 70.08 219.028 70.192 218.398 70.192ZM224.42 70.08C224.153 70.08 223.929 69.9947 223.748 69.824C223.577 69.6427 223.492 69.424 223.492 69.168C223.492 68.912 223.577 68.6987 223.748 68.528C223.929 68.3467 224.153 68.256 224.42 68.256C224.687 68.256 224.905 68.3467 225.076 68.528C225.247 68.6987 225.332 68.912 225.332 69.168C225.332 69.424 225.247 69.6427 225.076 69.824C224.905 69.9947 224.687 70.08 224.42 70.08ZM224.42 63.6C224.153 63.6 223.929 63.5147 223.748 63.344C223.577 63.1627 223.492 62.944 223.492 62.688C223.492 62.432 223.577 62.2187 223.748 62.048C223.929 61.8667 224.153 61.776 224.42 61.776C224.687 61.776 224.905 61.8667 225.076 62.048C225.247 62.2187 225.332 62.432 225.332 62.688C225.332 62.944 225.247 63.1627 225.076 63.344C224.905 63.5147 224.687 63.6 224.42 63.6Z" fill="#FDFEFF" fill-opacity="0.8"/>
        <path d="M188.111 101V99.02C188.951 98.34 189.771 97.66 190.571 96.98C191.371 96.3 192.091 95.6267 192.731 94.96C193.371 94.28 193.878 93.62 194.251 92.98C194.625 92.34 194.811 91.72 194.811 91.12C194.811 90.7467 194.738 90.4067 194.591 90.1C194.458 89.78 194.251 89.5267 193.971 89.34C193.691 89.14 193.318 89.04 192.851 89.04C192.398 89.04 192.011 89.1467 191.691 89.36C191.371 89.5733 191.131 89.86 190.971 90.22C190.811 90.5667 190.731 90.96 190.731 91.4H188.111C188.151 90.3733 188.385 89.5133 188.811 88.82C189.238 88.1267 189.811 87.6133 190.531 87.28C191.251 86.9333 192.051 86.76 192.931 86.76C193.918 86.76 194.751 86.9467 195.431 87.32C196.111 87.68 196.625 88.1733 196.971 88.8C197.331 89.4267 197.511 90.1467 197.511 90.96C197.511 91.5733 197.398 92.1733 197.171 92.76C196.945 93.3467 196.638 93.92 196.251 94.48C195.865 95.0267 195.425 95.5533 194.931 96.06C194.438 96.5667 193.925 97.0533 193.391 97.52C192.871 97.9733 192.358 98.4 191.851 98.8H197.831V101H188.111ZM204.996 101.24C203.956 101.24 203.062 101.06 202.316 100.7C201.582 100.34 201.009 99.8467 200.596 99.22C200.182 98.58 199.942 97.86 199.876 97.06H202.496C202.602 97.5933 202.882 98.04 203.336 98.4C203.789 98.76 204.342 98.94 204.996 98.94C205.476 98.94 205.896 98.82 206.256 98.58C206.616 98.34 206.896 98.0133 207.096 97.6C207.309 97.1867 207.416 96.72 207.416 96.2C207.416 95.6667 207.309 95.2067 207.096 94.82C206.896 94.42 206.616 94.12 206.256 93.92C205.896 93.7067 205.482 93.6 205.016 93.6C204.456 93.6 203.962 93.74 203.536 94.02C203.122 94.3 202.829 94.64 202.656 95.04H200.056L201.256 87H209.076V89.36H203.256L202.656 92.46C202.949 92.1533 203.342 91.9 203.836 91.7C204.329 91.5 204.882 91.4 205.496 91.4C206.256 91.4 206.916 91.5333 207.476 91.8C208.036 92.0533 208.502 92.4067 208.876 92.86C209.262 93.3 209.549 93.8067 209.736 94.38C209.922 94.9533 210.016 95.5533 210.016 96.18C210.016 96.9133 209.889 97.5933 209.636 98.22C209.396 98.8333 209.049 99.3667 208.596 99.82C208.156 100.273 207.629 100.627 207.016 100.88C206.402 101.12 205.729 101.24 204.996 101.24ZM214.697 101L222.537 87H225.177L217.317 101H214.697ZM224.617 101.24C223.977 101.24 223.39 101.1 222.857 100.82C222.337 100.527 221.917 100.113 221.597 99.58C221.29 99.0333 221.137 98.3933 221.137 97.66C221.137 96.9133 221.29 96.2733 221.597 95.74C221.917 95.2067 222.337 94.8 222.857 94.52C223.39 94.2267 223.977 94.08 224.617 94.08C225.284 94.08 225.87 94.2267 226.377 94.52C226.897 94.8 227.31 95.2067 227.617 95.74C227.924 96.2733 228.077 96.9133 228.077 97.66C228.077 98.3933 227.924 99.0333 227.617 99.58C227.31 100.113 226.897 100.527 226.377 100.82C225.857 101.1 225.27 101.24 224.617 101.24ZM224.597 99.38C224.864 99.38 225.097 99.3133 225.297 99.18C225.51 99.0467 225.677 98.8533 225.797 98.6C225.917 98.3467 225.977 98.0333 225.977 97.66C225.977 97.2733 225.917 96.9533 225.797 96.7C225.677 96.4333 225.517 96.2333 225.317 96.1C225.117 95.9667 224.884 95.9 224.617 95.9C224.364 95.9 224.13 95.9667 223.917 96.1C223.717 96.2333 223.557 96.4333 223.437 96.7C223.317 96.9533 223.257 97.2733 223.257 97.66C223.257 98.0333 223.317 98.3467 223.437 98.6C223.557 98.8533 223.717 99.0467 223.917 99.18C224.117 99.3133 224.344 99.38 224.597 99.38ZM215.337 93.94C214.684 93.94 214.09 93.7933 213.557 93.5C213.037 93.2067 212.624 92.7933 212.317 92.26C212.01 91.7267 211.857 91.0933 211.857 90.36C211.857 89.6 212.01 88.96 212.317 88.44C212.624 87.9067 213.044 87.4933 213.577 87.2C214.11 86.9067 214.704 86.76 215.357 86.76C215.997 86.76 216.577 86.9067 217.097 87.2C217.617 87.4933 218.03 87.9067 218.337 88.44C218.644 88.96 218.797 89.6 218.797 90.36C218.797 91.0933 218.644 91.7267 218.337 92.26C218.03 92.7933 217.617 93.2067 217.097 93.5C216.577 93.7933 215.99 93.94 215.337 93.94ZM215.317 92.08C215.584 92.08 215.817 92.0133 216.017 91.88C216.23 91.7467 216.39 91.5533 216.497 91.3C216.617 91.0467 216.677 90.7333 216.677 90.36C216.677 89.96 216.617 89.6333 216.497 89.38C216.39 89.1267 216.23 88.9333 216.017 88.8C215.817 88.6667 215.59 88.6 215.337 88.6C215.084 88.6 214.85 88.6667 214.637 88.8C214.424 88.9333 214.257 89.1333 214.137 89.4C214.017 89.6533 213.957 89.9733 213.957 90.36C213.957 90.7333 214.017 91.0467 214.137 91.3C214.257 91.5533 214.417 91.7467 214.617 91.88C214.83 92.0133 215.064 92.08 215.317 92.08Z" fill="#A3E635"/>
        <path d="M300.192 49V37.8H301.76L305.728 45.624L309.696 37.8H311.28V49H309.936V40.2L306.24 47.432H305.232L301.536 40.232V49H300.192ZM313.725 49V40.968H315.069V49H313.725ZM314.397 39.24C314.13 39.24 313.906 39.1547 313.725 38.984C313.554 38.8027 313.469 38.5787 313.469 38.312C313.469 38.0453 313.554 37.832 313.725 37.672C313.906 37.5013 314.13 37.416 314.397 37.416C314.653 37.416 314.871 37.5013 315.053 37.672C315.234 37.832 315.325 38.0453 315.325 38.312C315.325 38.5787 315.234 38.8027 315.053 38.984C314.871 39.1547 314.653 39.24 314.397 39.24ZM317.409 49V40.968H318.625L318.705 42.376C318.961 41.8747 319.323 41.4853 319.793 41.208C320.273 40.92 320.817 40.776 321.425 40.776C322.054 40.776 322.598 40.8987 323.057 41.144C323.515 41.3893 323.873 41.768 324.129 42.28C324.385 42.792 324.513 43.4373 324.513 44.216V49H323.169V44.36C323.169 43.5493 322.993 42.9413 322.641 42.536C322.289 42.1307 321.782 41.928 321.121 41.928C320.673 41.928 320.267 42.04 319.905 42.264C319.553 42.4773 319.27 42.792 319.057 43.208C318.854 43.624 318.753 44.1307 318.753 44.728V49H317.409ZM326.725 49V40.968H328.069V49H326.725ZM327.397 39.24C327.13 39.24 326.906 39.1547 326.725 38.984C326.554 38.8027 326.469 38.5787 326.469 38.312C326.469 38.0453 326.554 37.832 326.725 37.672C326.906 37.5013 327.13 37.416 327.397 37.416C327.653 37.416 327.871 37.5013 328.053 37.672C328.234 37.832 328.325 38.0453 328.325 38.312C328.325 38.5787 328.234 38.8027 328.053 38.984C327.871 39.1547 327.653 39.24 327.397 39.24ZM330.409 49V40.968H331.625L331.721 42.12C331.977 41.6933 332.318 41.3627 332.745 41.128C333.171 40.8933 333.646 40.776 334.169 40.776C334.585 40.776 334.963 40.8347 335.305 40.952C335.646 41.0587 335.945 41.2293 336.201 41.464C336.457 41.688 336.665 41.976 336.825 42.328C337.102 41.8373 337.481 41.4587 337.961 41.192C338.451 40.9147 338.974 40.776 339.529 40.776C340.147 40.776 340.686 40.904 341.145 41.16C341.614 41.4053 341.977 41.784 342.233 42.296C342.489 42.7973 342.617 43.4373 342.617 44.216V49H341.289V44.36C341.289 43.5493 341.123 42.9413 340.793 42.536C340.462 42.1307 339.993 41.928 339.385 41.928C338.969 41.928 338.59 42.04 338.249 42.264C337.918 42.4773 337.657 42.792 337.465 43.208C337.283 43.624 337.193 44.136 337.193 44.744V49H335.849V44.36C335.849 43.5493 335.683 42.9413 335.353 42.536C335.022 42.1307 334.553 41.928 333.945 41.928C333.539 41.928 333.166 42.04 332.825 42.264C332.494 42.4773 332.233 42.792 332.041 43.208C331.849 43.624 331.753 44.136 331.753 44.744V49H330.409ZM347.602 49.192C346.984 49.192 346.44 49.0693 345.97 48.824C345.512 48.5787 345.154 48.2 344.898 47.688C344.653 47.176 344.53 46.5307 344.53 45.752V40.968H345.874V45.608C345.874 46.4187 346.05 47.0267 346.402 47.432C346.754 47.8373 347.256 48.04 347.906 48.04C348.354 48.04 348.76 47.9333 349.122 47.72C349.485 47.496 349.768 47.176 349.97 46.76C350.184 46.344 350.29 45.8373 350.29 45.24V40.968H351.634V49H350.418L350.338 47.592C350.082 48.0933 349.714 48.488 349.234 48.776C348.754 49.0533 348.21 49.192 347.602 49.192ZM353.846 49V40.968H355.062L355.158 42.12C355.414 41.6933 355.756 41.3627 356.182 41.128C356.609 40.8933 357.084 40.776 357.606 40.776C358.022 40.776 358.401 40.8347 358.742 40.952C359.084 41.0587 359.382 41.2293 359.638 41.464C359.894 41.688 360.102 41.976 360.262 42.328C360.54 41.8373 360.918 41.4587 361.398 41.192C361.889 40.9147 362.412 40.776 362.966 40.776C363.585 40.776 364.124 40.904 364.582 41.16C365.052 41.4053 365.414 41.784 365.67 42.296C365.926 42.7973 366.054 43.4373 366.054 44.216V49H364.726V44.36C364.726 43.5493 364.561 42.9413 364.23 42.536C363.9 42.1307 363.43 41.928 362.822 41.928C362.406 41.928 362.028 42.04 361.686 42.264C361.356 42.4773 361.094 42.792 360.902 43.208C360.721 43.624 360.63 44.136 360.63 44.744V49H359.286V44.36C359.286 43.5493 359.121 42.9413 358.79 42.536C358.46 42.1307 357.99 41.928 357.382 41.928C356.977 41.928 356.604 42.04 356.262 42.264C355.932 42.4773 355.67 42.792 355.478 43.208C355.286 43.624 355.19 44.136 355.19 44.744V49H353.846ZM307.942 70V58.8H311.878C312.668 58.8 313.318 58.928 313.83 59.184C314.353 59.4293 314.742 59.7707 314.998 60.208C315.254 60.6347 315.382 61.1147 315.382 61.648C315.382 62.224 315.254 62.704 314.998 63.088C314.753 63.472 314.428 63.7653 314.022 63.968C313.628 64.1707 313.206 64.2933 312.758 64.336L312.982 64.176C313.462 64.1867 313.905 64.3147 314.31 64.56C314.716 64.8053 315.036 65.136 315.27 65.552C315.516 65.968 315.638 66.432 315.638 66.944C315.638 67.5093 315.5 68.0267 315.222 68.496C314.945 68.9547 314.534 69.3227 313.99 69.6C313.457 69.8667 312.796 70 312.006 70H307.942ZM309.286 68.88H311.862C312.62 68.88 313.206 68.704 313.622 68.352C314.049 67.9893 314.262 67.488 314.262 66.848C314.262 66.2187 314.044 65.7173 313.606 65.344C313.18 64.96 312.588 64.768 311.83 64.768H309.286V68.88ZM309.286 63.696H311.782C312.508 63.696 313.057 63.5253 313.43 63.184C313.814 62.8427 314.006 62.3787 314.006 61.792C314.006 61.2267 313.814 60.7733 313.43 60.432C313.057 60.0907 312.492 59.92 311.734 59.92H309.286V63.696ZM320.415 70.192C319.796 70.192 319.252 70.0693 318.783 69.824C318.324 69.5787 317.967 69.2 317.711 68.688C317.465 68.176 317.343 67.5307 317.343 66.752V61.968H318.687V66.608C318.687 67.4187 318.863 68.0267 319.215 68.432C319.567 68.8373 320.068 69.04 320.719 69.04C321.167 69.04 321.572 68.9333 321.935 68.72C322.297 68.496 322.58 68.176 322.783 67.76C322.996 67.344 323.103 66.8373 323.103 66.24V61.968H324.447V70H323.231L323.151 68.592C322.895 69.0933 322.527 69.488 322.047 69.776C321.567 70.0533 321.023 70.192 320.415 70.192ZM330.243 70.192C329.464 70.192 328.776 70.0107 328.179 69.648C327.592 69.2747 327.133 68.7733 326.803 68.144C326.483 67.504 326.323 66.7787 326.323 65.968C326.323 65.1573 326.483 64.4373 326.803 63.808C327.133 63.1787 327.592 62.6827 328.179 62.32C328.776 61.9573 329.469 61.776 330.259 61.776C330.909 61.776 331.485 61.9093 331.987 62.176C332.488 62.4427 332.872 62.816 333.139 63.296V58.48H334.483V70H333.267L333.139 68.688C332.968 68.944 332.749 69.1893 332.483 69.424C332.227 69.648 331.912 69.8347 331.539 69.984C331.165 70.1227 330.733 70.192 330.243 70.192ZM330.387 69.024C330.92 69.024 331.389 68.9013 331.795 68.656C332.211 68.4 332.531 68.0427 332.755 67.584C332.979 67.1253 333.091 66.592 333.091 65.984C333.091 65.376 332.979 64.8427 332.755 64.384C332.531 63.9253 332.211 63.5733 331.795 63.328C331.389 63.072 330.92 62.944 330.387 62.944C329.875 62.944 329.411 63.072 328.995 63.328C328.589 63.5733 328.269 63.9253 328.035 64.384C327.811 64.8427 327.699 65.376 327.699 65.984C327.699 66.592 327.811 67.1253 328.035 67.584C328.269 68.0427 328.589 68.4 328.995 68.656C329.411 68.9013 329.875 69.024 330.387 69.024ZM339.874 73.712C339.149 73.712 338.509 73.616 337.954 73.424C337.399 73.2427 336.967 72.96 336.658 72.576C336.349 72.192 336.194 71.7173 336.194 71.152C336.194 70.9067 336.242 70.6453 336.338 70.368C336.445 70.1013 336.621 69.8347 336.866 69.568C337.122 69.3013 337.479 69.0613 337.938 68.848L338.85 69.392C338.295 69.6267 337.933 69.8933 337.762 70.192C337.591 70.4907 337.506 70.768 337.506 71.024C337.506 71.376 337.607 71.6693 337.81 71.904C338.013 72.1387 338.29 72.3147 338.642 72.432C339.005 72.5493 339.415 72.608 339.874 72.608C340.333 72.608 340.727 72.5387 341.058 72.4C341.389 72.272 341.645 72.0907 341.826 71.856C342.007 71.632 342.098 71.36 342.098 71.04C342.098 70.6773 341.959 70.368 341.682 70.112C341.405 69.8667 340.882 69.7227 340.114 69.68C339.474 69.6373 338.941 69.5787 338.514 69.504C338.098 69.4293 337.751 69.344 337.474 69.248C337.197 69.1413 336.962 69.024 336.77 68.896C336.589 68.768 336.423 68.6347 336.274 68.496V68.128L337.826 66.576L338.994 66.992L337.394 68.448L337.602 67.888C337.719 67.9733 337.831 68.0533 337.938 68.128C338.045 68.192 338.189 68.2507 338.37 68.304C338.551 68.3573 338.802 68.4107 339.122 68.464C339.442 68.5067 339.874 68.5493 340.418 68.592C341.143 68.6453 341.725 68.7733 342.162 68.976C342.61 69.1787 342.93 69.4507 343.122 69.792C343.325 70.1333 343.426 70.5333 343.426 70.992C343.426 71.4507 343.298 71.8827 343.042 72.288C342.797 72.704 342.413 73.0453 341.89 73.312C341.367 73.5787 340.695 73.712 339.874 73.712ZM339.858 67.472C339.186 67.472 338.615 67.3493 338.146 67.104C337.677 66.848 337.319 66.5067 337.074 66.08C336.829 65.6427 336.706 65.1573 336.706 64.624C336.706 64.0907 336.829 63.6107 337.074 63.184C337.319 62.7573 337.677 62.416 338.146 62.16C338.615 61.904 339.186 61.776 339.858 61.776C340.541 61.776 341.117 61.904 341.586 62.16C342.055 62.416 342.413 62.7573 342.658 63.184C342.903 63.6107 343.026 64.0907 343.026 64.624C343.026 65.1573 342.903 65.6427 342.658 66.08C342.413 66.5067 342.055 66.848 341.586 67.104C341.117 67.3493 340.541 67.472 339.858 67.472ZM339.858 66.368C340.434 66.368 340.887 66.224 341.218 65.936C341.559 65.6373 341.73 65.2 341.73 64.624C341.73 64.0693 341.559 63.6427 341.218 63.344C340.887 63.0453 340.434 62.896 339.858 62.896C339.293 62.896 338.839 63.0453 338.498 63.344C338.157 63.6427 337.986 64.0693 337.986 64.624C337.986 65.2 338.157 65.6373 338.498 65.936C338.839 66.224 339.293 66.368 339.858 66.368ZM341.17 63.104L340.77 61.968H344.066V62.976L341.17 63.104ZM348.836 70.192C348.089 70.192 347.422 70.016 346.836 69.664C346.249 69.312 345.785 68.8213 345.444 68.192C345.113 67.5627 344.948 66.8267 344.948 65.984C344.948 65.1307 345.113 64.3947 345.444 63.776C345.774 63.1467 346.233 62.656 346.82 62.304C347.417 61.952 348.1 61.776 348.868 61.776C349.657 61.776 350.329 61.952 350.884 62.304C351.438 62.656 351.86 63.1147 352.148 63.68C352.446 64.2453 352.596 64.8693 352.596 65.552C352.596 65.6587 352.596 65.7707 352.596 65.888C352.596 66.0053 352.59 66.1387 352.58 66.288H345.956V65.248H351.268C351.236 64.512 350.99 63.9413 350.532 63.536C350.084 63.12 349.518 62.912 348.836 62.912C348.388 62.912 347.966 63.0187 347.572 63.232C347.177 63.4347 346.857 63.7333 346.612 64.128C346.377 64.5227 346.26 65.0187 346.26 65.616V66.064C346.26 66.7253 346.382 67.28 346.628 67.728C346.873 68.1653 347.188 68.496 347.572 68.72C347.966 68.944 348.388 69.056 348.836 69.056C349.401 69.056 349.865 68.9333 350.228 68.688C350.601 68.432 350.873 68.0853 351.044 67.648H352.372C352.233 68.1387 352.004 68.576 351.684 68.96C351.364 69.3333 350.964 69.632 350.484 69.856C350.014 70.08 349.465 70.192 348.836 70.192ZM357.28 70C356.8 70 356.384 69.9253 356.032 69.776C355.68 69.6267 355.408 69.376 355.216 69.024C355.034 68.6613 354.944 68.176 354.944 67.568V63.104H353.552V61.968H354.944L355.12 60.032H356.288V61.968H358.64V63.104H356.288V67.568C356.288 68.0693 356.389 68.4107 356.592 68.592C356.794 68.7627 357.152 68.848 357.664 68.848H358.528V70H357.28Z" fill="#FDFEFF" fill-opacity="0.8"/>
        <path d="M314.795 102.74V85.16H316.115V102.74H314.795ZM315.635 101.24C314.622 101.24 313.715 101.067 312.915 100.72C312.128 100.373 311.502 99.8667 311.035 99.2C310.582 98.5333 310.348 97.7267 310.335 96.78H313.195C313.208 97.1933 313.315 97.5667 313.515 97.9C313.715 98.2333 313.988 98.5 314.335 98.7C314.695 98.8867 315.122 98.98 315.615 98.98C316.042 98.98 316.408 98.9133 316.715 98.78C317.035 98.6333 317.282 98.4333 317.455 98.18C317.628 97.9267 317.715 97.6267 317.715 97.28C317.715 96.8667 317.615 96.5267 317.415 96.26C317.228 95.9933 316.962 95.7667 316.615 95.58C316.268 95.3933 315.868 95.2267 315.415 95.08C314.975 94.92 314.508 94.76 314.015 94.6C312.922 94.24 312.082 93.76 311.495 93.16C310.922 92.56 310.635 91.7667 310.635 90.78C310.635 89.94 310.835 89.22 311.235 88.62C311.648 88.02 312.215 87.56 312.935 87.24C313.655 86.92 314.475 86.76 315.395 86.76C316.342 86.76 317.168 86.9267 317.875 87.26C318.595 87.58 319.162 88.0467 319.575 88.66C320.002 89.2733 320.222 89.9933 320.235 90.82H317.355C317.342 90.5133 317.248 90.2267 317.075 89.96C316.915 89.68 316.688 89.46 316.395 89.3C316.102 89.1267 315.755 89.04 315.355 89.04C315.008 89.0267 314.688 89.08 314.395 89.2C314.115 89.32 313.888 89.5 313.715 89.74C313.555 89.9667 313.475 90.2533 313.475 90.6C313.475 90.9333 313.555 91.2133 313.715 91.44C313.888 91.6667 314.122 91.8667 314.415 92.04C314.708 92.2 315.055 92.3533 315.455 92.5C315.855 92.6333 316.288 92.7733 316.755 92.92C317.448 93.16 318.088 93.4467 318.675 93.78C319.262 94.1 319.728 94.52 320.075 95.04C320.422 95.56 320.595 96.2467 320.595 97.1C320.595 97.8333 320.402 98.5133 320.015 99.14C319.628 99.7667 319.068 100.273 318.335 100.66C317.615 101.047 316.715 101.24 315.635 101.24ZM322.486 101V99.02C323.326 98.34 324.146 97.66 324.946 96.98C325.746 96.3 326.466 95.6267 327.106 94.96C327.746 94.28 328.253 93.62 328.626 92.98C329 92.34 329.186 91.72 329.186 91.12C329.186 90.7467 329.113 90.4067 328.966 90.1C328.833 89.78 328.626 89.5267 328.346 89.34C328.066 89.14 327.693 89.04 327.226 89.04C326.773 89.04 326.386 89.1467 326.066 89.36C325.746 89.5733 325.506 89.86 325.346 90.22C325.186 90.5667 325.106 90.96 325.106 91.4H322.486C322.526 90.3733 322.76 89.5133 323.186 88.82C323.613 88.1267 324.186 87.6133 324.906 87.28C325.626 86.9333 326.426 86.76 327.306 86.76C328.293 86.76 329.126 86.9467 329.806 87.32C330.486 87.68 331 88.1733 331.346 88.8C331.706 89.4267 331.886 90.1467 331.886 90.96C331.886 91.5733 331.773 92.1733 331.546 92.76C331.32 93.3467 331.013 93.92 330.626 94.48C330.24 95.0267 329.8 95.5533 329.306 96.06C328.813 96.5667 328.3 97.0533 327.766 97.52C327.246 97.9733 326.733 98.4 326.226 98.8H332.206V101H322.486ZM339.993 101.24C338.699 101.24 337.593 100.933 336.673 100.32C335.753 99.7067 335.039 98.86 334.533 97.78C334.039 96.6867 333.793 95.4267 333.793 94C333.793 92.5733 334.039 91.32 334.533 90.24C335.039 89.1467 335.753 88.2933 336.673 87.68C337.593 87.0667 338.699 86.76 339.993 86.76C341.286 86.76 342.393 87.0667 343.313 87.68C344.233 88.2933 344.939 89.1467 345.433 90.24C345.926 91.32 346.173 92.5733 346.173 94C346.173 95.4267 345.926 96.6867 345.433 97.78C344.939 98.86 344.226 99.7067 343.293 100.32C342.373 100.933 341.273 101.24 339.993 101.24ZM339.993 98.82C340.673 98.82 341.266 98.6267 341.773 98.24C342.293 97.84 342.693 97.28 342.973 96.56C343.266 95.84 343.413 94.9867 343.413 94C343.413 93 343.266 92.1467 342.973 91.44C342.693 90.72 342.293 90.1667 341.773 89.78C341.266 89.3933 340.673 89.2 339.993 89.2C339.313 89.2 338.713 89.3933 338.193 89.78C337.673 90.1667 337.266 90.72 336.973 91.44C336.693 92.1467 336.553 93 336.553 94C336.553 94.9867 336.693 95.84 336.973 96.56C337.266 97.28 337.673 97.84 338.193 98.24C338.713 98.6267 339.313 98.82 339.993 98.82ZM354.172 101.24C352.879 101.24 351.772 100.933 350.852 100.32C349.932 99.7067 349.219 98.86 348.712 97.78C348.219 96.6867 347.972 95.4267 347.972 94C347.972 92.5733 348.219 91.32 348.712 90.24C349.219 89.1467 349.932 88.2933 350.852 87.68C351.772 87.0667 352.879 86.76 354.172 86.76C355.466 86.76 356.572 87.0667 357.492 87.68C358.412 88.2933 359.119 89.1467 359.612 90.24C360.106 91.32 360.352 92.5733 360.352 94C360.352 95.4267 360.106 96.6867 359.612 97.78C359.119 98.86 358.406 99.7067 357.472 100.32C356.552 100.933 355.452 101.24 354.172 101.24ZM354.172 98.82C354.852 98.82 355.446 98.6267 355.952 98.24C356.472 97.84 356.872 97.28 357.152 96.56C357.446 95.84 357.592 94.9867 357.592 94C357.592 93 357.446 92.1467 357.152 91.44C356.872 90.72 356.472 90.1667 355.952 89.78C355.446 89.3933 354.852 89.2 354.172 89.2C353.492 89.2 352.892 89.3933 352.372 89.78C351.852 90.1667 351.446 90.72 351.152 91.44C350.872 92.1467 350.732 93 350.732 94C350.732 94.9867 350.872 95.84 351.152 96.56C351.446 97.28 351.852 97.84 352.372 98.24C352.892 98.6267 353.492 98.82 354.172 98.82Z" fill="#A3E635"/>
        <g opacity="0.05" filter="url(#filter1_f_20_62)">
            <rect width="347.895" height="53.8235" rx="10" transform="matrix(-1 0 0 1 382.275 123)" fill="url(#paint0_linear_20_62)" fill-opacity="0.3"/>
        </g>
        <rect width="347.775" height="8" rx="4" transform="matrix(-1 0 0 1 382.258 165.852)" fill="url(#paint1_linear_20_62)" fill-opacity="0.6"/>
        <path d="M38.9119 207.029C37.6719 207.029 36.6053 206.729 35.7119 206.129C34.8186 205.516 34.1319 204.669 33.6519 203.589C33.1719 202.496 32.9319 201.229 32.9319 199.789C32.9319 198.349 33.1719 197.089 33.6519 196.009C34.1319 194.916 34.8119 194.069 35.6919 193.469C36.5853 192.856 37.6519 192.549 38.8919 192.549C40.1319 192.549 41.1919 192.856 42.0719 193.469C42.9653 194.069 43.6453 194.916 44.1119 196.009C44.5919 197.089 44.8319 198.349 44.8319 199.789C44.8319 201.229 44.5919 202.496 44.1119 203.589C43.6453 204.669 42.9653 205.516 42.0719 206.129C41.1919 206.729 40.1386 207.029 38.9119 207.029ZM38.8919 205.549C39.7053 205.549 40.4253 205.322 41.0519 204.869C41.6919 204.402 42.1919 203.742 42.5519 202.889C42.9253 202.022 43.1119 200.989 43.1119 199.789C43.1119 198.589 42.9253 197.562 42.5519 196.709C42.1919 195.842 41.6919 195.182 41.0519 194.729C40.4253 194.276 39.7053 194.049 38.8919 194.049C38.0786 194.049 37.3519 194.276 36.7119 194.729C36.0719 195.182 35.5653 195.842 35.1919 196.709C34.8319 197.562 34.6519 198.589 34.6519 199.789C34.6519 200.989 34.8319 202.022 35.1919 202.889C35.5653 203.742 36.0719 204.402 36.7119 204.869C37.3519 205.322 38.0786 205.549 38.8919 205.549Z" fill="#686868"/>
        <path d="M106.061 206.789V194.669L103.741 195.209V194.029L106.621 192.789H107.761V206.789H106.061Z" fill="#686868"/>
        <path d="M168.658 206.789V205.609C169.618 204.862 170.518 204.109 171.358 203.349C172.211 202.589 172.971 201.836 173.638 201.089C174.305 200.329 174.825 199.589 175.198 198.869C175.571 198.149 175.758 197.456 175.758 196.789C175.758 196.296 175.671 195.842 175.498 195.429C175.338 195.002 175.071 194.656 174.698 194.389C174.325 194.122 173.818 193.989 173.178 193.989C172.551 193.989 172.031 194.129 171.618 194.409C171.205 194.676 170.891 195.036 170.678 195.489C170.478 195.929 170.378 196.416 170.378 196.949H168.758C168.771 196.029 168.965 195.242 169.338 194.589C169.725 193.922 170.251 193.416 170.918 193.069C171.585 192.722 172.345 192.549 173.198 192.549C174.025 192.549 174.758 192.709 175.398 193.029C176.038 193.336 176.538 193.796 176.898 194.409C177.258 195.022 177.438 195.796 177.438 196.729C177.438 197.382 177.305 198.036 177.038 198.689C176.785 199.342 176.425 199.982 175.958 200.609C175.505 201.222 175.005 201.816 174.458 202.389C173.911 202.962 173.351 203.502 172.778 204.009C172.205 204.516 171.658 204.976 171.138 205.389H177.918V206.789H168.658Z" fill="#686868"/>
        <path d="M377.933 207.029C376.973 207.029 376.139 206.856 375.433 206.509C374.726 206.149 374.166 205.669 373.753 205.069C373.339 204.469 373.086 203.789 372.993 203.029H374.633C374.779 203.802 375.146 204.422 375.733 204.889C376.319 205.356 377.059 205.589 377.953 205.589C378.606 205.589 379.173 205.436 379.653 205.129C380.133 204.809 380.499 204.382 380.753 203.849C381.019 203.316 381.153 202.722 381.153 202.069C381.153 201.389 381.019 200.789 380.753 200.269C380.486 199.749 380.119 199.342 379.653 199.049C379.186 198.756 378.639 198.609 378.013 198.609C377.239 198.609 376.579 198.782 376.033 199.129C375.499 199.462 375.099 199.902 374.833 200.449H373.233L374.413 192.789H381.773V194.249H375.713L374.913 198.529C375.246 198.142 375.693 197.822 376.253 197.569C376.813 197.316 377.459 197.189 378.193 197.189C378.886 197.189 379.506 197.316 380.053 197.569C380.613 197.809 381.093 198.149 381.493 198.589C381.906 199.029 382.219 199.549 382.433 200.149C382.659 200.736 382.773 201.369 382.773 202.049C382.773 202.729 382.666 203.369 382.453 203.969C382.239 204.569 381.919 205.102 381.493 205.569C381.079 206.022 380.573 206.382 379.973 206.649C379.373 206.902 378.693 207.029 377.933 207.029Z" fill="#686868"/>
        <path d="M239.724 207.029C238.83 207.029 238.017 206.869 237.284 206.549C236.564 206.216 235.99 205.722 235.564 205.069C235.137 204.416 234.91 203.602 234.884 202.629H236.584C236.597 203.162 236.724 203.656 236.964 204.109C237.217 204.549 237.577 204.902 238.044 205.169C238.51 205.436 239.07 205.569 239.724 205.569C240.377 205.569 240.924 205.442 241.364 205.189C241.804 204.936 242.137 204.602 242.364 204.189C242.59 203.762 242.704 203.289 242.704 202.769C242.704 202.116 242.544 201.589 242.224 201.189C241.917 200.776 241.497 200.469 240.964 200.269C240.444 200.069 239.87 199.969 239.244 199.969H238.204V198.549H239.244C240.15 198.549 240.857 198.336 241.364 197.909C241.884 197.482 242.144 196.902 242.144 196.169C242.144 195.542 241.937 195.029 241.524 194.629C241.124 194.216 240.524 194.009 239.724 194.009C238.937 194.009 238.31 194.236 237.844 194.689C237.39 195.142 237.13 195.722 237.064 196.429H235.364C235.404 195.669 235.604 194.996 235.964 194.409C236.337 193.822 236.844 193.369 237.484 193.049C238.124 192.716 238.87 192.549 239.724 192.549C240.63 192.549 241.384 192.709 241.984 193.029C242.597 193.349 243.057 193.776 243.364 194.309C243.684 194.842 243.844 195.429 243.844 196.069C243.844 196.536 243.757 196.982 243.584 197.409C243.41 197.836 243.15 198.209 242.804 198.529C242.47 198.836 242.044 199.056 241.524 199.189C242.07 199.296 242.557 199.509 242.984 199.829C243.424 200.136 243.77 200.536 244.024 201.029C244.277 201.522 244.404 202.102 244.404 202.769C244.404 203.529 244.224 204.236 243.864 204.889C243.517 205.529 242.997 206.049 242.304 206.449C241.61 206.836 240.75 207.029 239.724 207.029Z" fill="#686868"/>
        <path d="M310.554 206.789V203.789H303.454V202.489L310.254 192.789H312.214V202.309H314.294V203.789H312.214V206.789H310.554ZM305.314 202.309H310.634V194.649L305.314 202.309Z" fill="#686868"/>
        <circle cx="282.894" cy="168.383" r="8" fill="#CDF3A9"/>
        <circle cx="282.894" cy="168.383" r="4" fill="#F2F2F2"/>
    </g>
    <defs>
        <filter id="filter0_d_20_62" x="0.5" y="0.5" width="419" height="241" filterUnits="userSpaceOnUse" color-interpolation-filters="sRGB">
            <feFlood flood-opacity="0" result="BackgroundImageFix"/>
            <feColorMatrix in="SourceAlpha" type="matrix" values="0 0 0 0 0 0 0 0 0 0 0 0 0 0 0 0 0 0 127 0" result="hardAlpha"/>
            <feOffset dx="2" dy="2"/>
            <feGaussianBlur stdDeviation="5.25"/>
            <feComposite in2="hardAlpha" operator="out"/>
            <feColorMatrix type="matrix" values="0 0 0 0 0.0745098 0 0 0 0 0.0980392 0 0 0 0 0.0509804 0 0 0 0.12 0"/>
            <feBlend mode="normal" in2="BackgroundImageFix" result="effect1_dropShadow_20_62"/>
            <feBlend mode="normal" in="SourceGraphic" in2="effect1_dropShadow_20_62" result="shape"/>
        </filter>
        <filter id="filter1_f_20_62" x="7.66771" y="96.2876" width="401.32" height="107.248" filterUnits="userSpaceOnUse" color-interpolation-filters="sRGB">
            <feFlood flood-opacity="0" result="BackgroundImageFix"/>
            <feBlend mode="normal" in="SourceGraphic" in2="BackgroundImageFix" result="shape"/>
            <feGaussianBlur stdDeviation="13.3562" result="effect1_foregroundBlur_20_62"/>
        </filter>
        <linearGradient id="paint0_linear_20_62" x1="0" y1="26.9118" x2="347.895" y2="26.9118" gradientUnits="userSpaceOnUse">
            <stop stop-color="#34D50C"/>
            <stop offset="1" stop-color="#E8F8C5"/>
        </linearGradient>
        <linearGradient id="paint1_linear_20_62" x1="0" y1="4" x2="347.775" y2="4" gradientUnits="userSpaceOnUse">
            <stop offset="0.154368" stop-color="#A3E635"/>
            <stop offset="0.964595" stop-color="#EFEFEF"/>
        </linearGradient>
    </defs>
</svg>
