<svg width="420" height="242" viewBox="0 0 420 242" fill="none" xmlns="http://www.w3.org/2000/svg">
    <g filter="url(#filter0_d_20_145)">
        <rect x="9" y="9" width="398" height="220" rx="17.8667" fill="#13190D"/>
        <rect x="9.44667" y="9.44667" width="397.107" height="219.107" rx="17.42" stroke="#13190D" stroke-opacity="0.5" stroke-width="0.893333"/>
    </g>
    <path d="M128.107 56.2787C126.931 56.2787 125.885 56.0697 124.972 55.6516C124.058 55.2335 123.346 54.6374 122.835 53.8631C122.324 53.0889 122.061 52.1676 122.045 51.0992H124.995C124.995 51.6411 125.119 52.1289 125.367 52.5625C125.63 52.9805 125.986 53.3134 126.435 53.5612C126.9 53.809 127.457 53.9328 128.107 53.9328C128.665 53.9328 129.145 53.8477 129.547 53.6773C129.965 53.4915 130.283 53.236 130.5 52.9109C130.732 52.5702 130.848 52.1753 130.848 51.7263C130.848 51.2153 130.724 50.7972 130.476 50.4721C130.244 50.1314 129.919 49.8449 129.501 49.6127C129.083 49.3804 128.603 49.1791 128.061 49.0088C127.519 48.823 126.946 48.6294 126.342 48.4281C125.057 47.9945 124.089 47.4448 123.439 46.779C122.788 46.0977 122.463 45.1919 122.463 44.0615C122.463 43.1169 122.688 42.304 123.137 41.6227C123.586 40.9414 124.213 40.4149 125.018 40.0433C125.839 39.6562 126.783 39.4626 127.852 39.4626C128.936 39.4626 129.88 39.6562 130.686 40.0433C131.506 40.4304 132.149 40.9723 132.613 41.6691C133.093 42.3505 133.341 43.1711 133.357 44.1312H130.384C130.368 43.7286 130.26 43.357 130.058 43.0163C129.857 42.6602 129.563 42.3737 129.176 42.1569C128.804 41.9246 128.347 41.8085 127.805 41.8085C127.341 41.793 126.923 41.8704 126.551 42.0408C126.195 42.1956 125.909 42.4279 125.692 42.7376C125.49 43.0318 125.39 43.4034 125.39 43.8525C125.39 44.286 125.483 44.6499 125.669 44.9441C125.87 45.2228 126.156 45.4628 126.528 45.6641C126.9 45.8499 127.333 46.028 127.829 46.1983C128.324 46.3687 128.866 46.5545 129.455 46.7558C130.26 47.019 130.987 47.3442 131.638 47.7313C132.304 48.1029 132.83 48.5907 133.217 49.1946C133.604 49.7985 133.798 50.5804 133.798 51.5405C133.798 52.3766 133.581 53.1586 133.148 53.8864C132.714 54.5987 132.079 55.1793 131.243 55.6284C130.407 56.0619 129.362 56.2787 128.107 56.2787ZM141.502 56C140.712 56 140.023 55.8761 139.435 55.6284C138.862 55.3806 138.413 54.9703 138.087 54.3974C137.762 53.8244 137.6 53.0502 137.6 52.0747V46.6397H135.602V44.2938H137.6L137.925 41.2046H140.387V44.2938H143.569V46.6397H140.387V52.0747C140.387 52.6631 140.511 53.0734 140.758 53.3057C141.022 53.5225 141.455 53.6309 142.059 53.6309H143.499V56H141.502ZM150.093 56.2787C149.133 56.2787 148.336 56.1161 147.701 55.791C147.066 55.4658 146.594 55.0322 146.284 54.4903C145.974 53.9483 145.82 53.3599 145.82 52.725C145.82 51.9818 146.005 51.3392 146.377 50.7972C146.764 50.2553 147.329 49.8372 148.072 49.543C148.816 49.2333 149.729 49.0785 150.813 49.0785H153.763C153.763 48.4591 153.678 47.9481 153.508 47.5455C153.337 47.1274 153.074 46.8177 152.718 46.6164C152.362 46.4151 151.905 46.3145 151.347 46.3145C150.713 46.3145 150.171 46.4616 149.722 46.7558C149.273 47.0345 148.994 47.4681 148.885 48.0565H146.145C146.238 47.2203 146.516 46.508 146.981 45.9196C147.445 45.3157 148.057 44.8512 148.816 44.526C149.59 44.1854 150.434 44.015 151.347 44.015C152.447 44.015 153.384 44.2086 154.158 44.5957C154.932 44.9673 155.521 45.5093 155.923 46.2216C156.341 46.9184 156.55 47.7623 156.55 48.7533V56H154.181L153.902 54.1186C153.748 54.4283 153.546 54.7148 153.298 54.978C153.066 55.2413 152.795 55.4735 152.486 55.6748C152.176 55.8606 151.82 56.0077 151.417 56.1161C151.03 56.2245 150.589 56.2787 150.093 56.2787ZM150.72 54.0722C151.169 54.0722 151.564 53.9948 151.905 53.8399C152.261 53.6696 152.563 53.4373 152.811 53.1431C153.074 52.8334 153.275 52.4928 153.415 52.1211C153.554 51.7495 153.647 51.3547 153.693 50.9366V50.8901H151.115C150.573 50.8901 150.124 50.9598 149.768 51.0992C149.412 51.223 149.156 51.4089 149.002 51.6566C148.847 51.9044 148.769 52.1908 148.769 52.516C148.769 52.8412 148.847 53.1199 149.002 53.3522C149.156 53.5844 149.381 53.7625 149.675 53.8864C149.969 54.0102 150.318 54.0722 150.72 54.0722ZM159.528 56V44.2938H162.014L162.269 46.4771C162.548 45.9661 162.896 45.5325 163.314 45.1764C163.732 44.8047 164.22 44.5183 164.778 44.317C165.35 44.1157 165.978 44.015 166.659 44.015V46.9648H165.683C165.219 46.9648 164.778 47.0268 164.359 47.1506C163.941 47.259 163.578 47.4448 163.268 47.7081C162.974 47.9558 162.741 48.3042 162.571 48.7533C162.401 49.1868 162.316 49.7365 162.316 50.4024V56H159.528ZM173.847 56C173.057 56 172.368 55.8761 171.779 55.6284C171.207 55.3806 170.758 54.9703 170.432 54.3974C170.107 53.8244 169.945 53.0502 169.945 52.0747V46.6397H167.947V44.2938H169.945L170.27 41.2046H172.732V44.2938H175.914V46.6397H172.732V52.0747C172.732 52.6631 172.856 53.0734 173.103 53.3057C173.367 53.5225 173.8 53.6309 174.404 53.6309H175.844V56H173.847ZM184.3 56V39.7413H194.682V41.9943H187.087V46.7558H193.288V48.9623H187.087V56H184.3ZM196.977 56V44.2938H199.462L199.718 46.4771C199.996 45.9661 200.345 45.5325 200.763 45.1764C201.181 44.8047 201.669 44.5183 202.226 44.317C202.799 44.1157 203.426 44.015 204.107 44.015V46.9648H203.132C202.667 46.9648 202.226 47.0268 201.808 47.1506C201.39 47.259 201.026 47.4448 200.716 47.7081C200.422 47.9558 200.19 48.3042 200.019 48.7533C199.849 49.1868 199.764 49.7365 199.764 50.4024V56H196.977ZM211.417 56.2787C210.302 56.2787 209.296 56.0232 208.398 55.5122C207.515 54.9858 206.818 54.2657 206.307 53.3522C205.812 52.4231 205.564 51.3624 205.564 50.1701C205.564 48.9468 205.82 47.8784 206.331 46.9648C206.842 46.0358 207.538 45.3157 208.421 44.8047C209.319 44.2783 210.326 44.015 211.44 44.015C212.555 44.015 213.554 44.2783 214.437 44.8047C215.335 45.3157 216.032 46.028 216.527 46.9416C217.038 47.8552 217.294 48.9236 217.294 50.1469C217.294 51.3702 217.038 52.4386 216.527 53.3522C216.016 54.2657 215.312 54.9858 214.413 55.5122C213.531 56.0232 212.532 56.2787 211.417 56.2787ZM211.417 53.8864C211.975 53.8864 212.478 53.747 212.927 53.4683C213.391 53.1896 213.763 52.7715 214.042 52.2141C214.321 51.6566 214.46 50.9676 214.46 50.1469C214.46 49.3262 214.321 48.6449 214.042 48.1029C213.779 47.5455 213.415 47.1274 212.95 46.8487C212.501 46.57 211.998 46.4306 211.44 46.4306C210.899 46.4306 210.395 46.57 209.931 46.8487C209.466 47.1274 209.095 47.5455 208.816 48.1029C208.537 48.6449 208.398 49.3262 208.398 50.1469C208.398 50.9676 208.537 51.6566 208.816 52.2141C209.095 52.7715 209.458 53.1896 209.907 53.4683C210.372 53.747 210.875 53.8864 211.417 53.8864ZM220.022 56V44.2938H222.484L222.716 45.8964C223.088 45.308 223.576 44.8512 224.18 44.526C224.799 44.1854 225.503 44.015 226.293 44.015C226.882 44.015 227.408 44.0925 227.873 44.2473C228.353 44.4022 228.771 44.6344 229.127 44.9441C229.498 45.2538 229.8 45.6409 230.033 46.1054C230.466 45.4551 231.031 44.9441 231.728 44.5725C232.425 44.2009 233.184 44.015 234.004 44.015C234.98 44.015 235.808 44.2163 236.49 44.6189C237.171 45.006 237.69 45.5867 238.046 46.3609C238.402 47.1197 238.58 48.0565 238.58 49.1714V56H235.816V49.4501C235.816 48.4591 235.615 47.7003 235.212 47.1739C234.81 46.6474 234.213 46.3842 233.424 46.3842C232.882 46.3842 232.402 46.5158 231.984 46.779C231.581 47.0422 231.264 47.4294 231.031 47.9403C230.799 48.4358 230.683 49.0475 230.683 49.7753V56H227.919V49.4501C227.919 48.4591 227.718 47.7003 227.315 47.1739C226.913 46.6474 226.309 46.3842 225.503 46.3842C224.992 46.3842 224.528 46.5158 224.11 46.779C223.707 47.0422 223.39 47.4294 223.158 47.9403C222.925 48.4358 222.809 49.0475 222.809 49.7753V56H220.022ZM246.22 56L252.166 39.7413H255.278L261.224 56H258.274L253.699 42.9931L249.123 56H246.22ZM248.868 52.1676L249.611 49.9611H257.624L258.367 52.1676H248.868ZM263.461 56V39.7413H266.248V56H263.461Z" fill="#A3E635"/>
    <path d="M76.1313 89V76.4H79.8393C81.3153 76.4 82.5273 76.658 83.4753 77.174C84.4353 77.678 85.1433 78.404 85.5993 79.352C86.0673 80.288 86.3013 81.416 86.3013 82.736C86.3013 84.032 86.0673 85.148 85.5993 86.084C85.1433 87.02 84.4353 87.74 83.4753 88.244C82.5273 88.748 81.3153 89 79.8393 89H76.1313ZM77.6433 87.74H79.8033C81.0273 87.74 81.9993 87.542 82.7193 87.146C83.4393 86.738 83.9553 86.162 84.2673 85.418C84.5793 84.662 84.7353 83.768 84.7353 82.736C84.7353 81.68 84.5793 80.774 84.2673 80.018C83.9553 79.262 83.4393 78.68 82.7193 78.272C81.9993 77.864 81.0273 77.66 79.8033 77.66H77.6433V87.74ZM88.5778 89V79.928H90.0898V89H88.5778ZM89.3338 78.002C89.0338 78.002 88.7818 77.906 88.5778 77.714C88.3858 77.51 88.2898 77.258 88.2898 76.958C88.2898 76.658 88.3858 76.418 88.5778 76.238C88.7818 76.046 89.0338 75.95 89.3338 75.95C89.6218 75.95 89.8678 76.046 90.0718 76.238C90.2758 76.418 90.3778 76.658 90.3778 76.958C90.3778 77.258 90.2758 77.51 90.0718 77.714C89.8678 77.906 89.6218 78.002 89.3338 78.002ZM96.178 89.216C95.422 89.216 94.762 89.09 94.198 88.838C93.646 88.586 93.202 88.238 92.866 87.794C92.542 87.338 92.344 86.804 92.272 86.192H93.82C93.88 86.504 94.006 86.792 94.198 87.056C94.39 87.32 94.648 87.536 94.972 87.704C95.308 87.86 95.716 87.938 96.196 87.938C96.616 87.938 96.964 87.878 97.24 87.758C97.516 87.626 97.72 87.452 97.852 87.236C97.996 87.02 98.068 86.786 98.068 86.534C98.068 86.162 97.978 85.88 97.798 85.688C97.63 85.496 97.378 85.346 97.042 85.238C96.706 85.118 96.298 85.016 95.818 84.932C95.422 84.86 95.032 84.764 94.648 84.644C94.264 84.524 93.922 84.368 93.622 84.176C93.322 83.972 93.082 83.726 92.902 83.438C92.734 83.15 92.65 82.796 92.65 82.376C92.65 81.86 92.782 81.404 93.046 81.008C93.31 80.6 93.688 80.282 94.18 80.054C94.684 79.826 95.266 79.712 95.926 79.712C96.898 79.712 97.684 79.946 98.284 80.414C98.884 80.882 99.238 81.56 99.346 82.448H97.852C97.792 81.992 97.594 81.638 97.258 81.386C96.934 81.122 96.484 80.99 95.908 80.99C95.344 80.99 94.912 81.104 94.612 81.332C94.324 81.56 94.18 81.86 94.18 82.232C94.18 82.472 94.258 82.688 94.414 82.88C94.582 83.06 94.822 83.216 95.134 83.348C95.458 83.48 95.854 83.588 96.322 83.672C96.922 83.78 97.468 83.924 97.96 84.104C98.452 84.284 98.848 84.554 99.148 84.914C99.46 85.262 99.616 85.76 99.616 86.408C99.616 86.972 99.472 87.464 99.184 87.884C98.908 88.304 98.512 88.634 97.996 88.874C97.48 89.102 96.874 89.216 96.178 89.216ZM105.879 89.216C105.027 89.216 104.259 89.018 103.575 88.622C102.903 88.226 102.375 87.674 101.991 86.966C101.607 86.246 101.415 85.418 101.415 84.482C101.415 83.522 101.607 82.688 101.991 81.98C102.375 81.272 102.903 80.72 103.575 80.324C104.259 79.916 105.027 79.712 105.879 79.712C106.959 79.712 107.859 79.994 108.579 80.558C109.299 81.11 109.755 81.854 109.947 82.79H108.399C108.279 82.226 107.985 81.788 107.517 81.476C107.049 81.164 106.497 81.008 105.861 81.008C105.345 81.008 104.865 81.14 104.421 81.404C103.977 81.656 103.623 82.04 103.359 82.556C103.095 83.072 102.963 83.708 102.963 84.464C102.963 85.028 103.041 85.532 103.197 85.976C103.353 86.408 103.563 86.768 103.827 87.056C104.091 87.344 104.397 87.566 104.745 87.722C105.105 87.866 105.477 87.938 105.861 87.938C106.293 87.938 106.683 87.872 107.031 87.74C107.379 87.596 107.673 87.386 107.913 87.11C108.153 86.834 108.315 86.51 108.399 86.138H109.947C109.755 87.05 109.293 87.794 108.561 88.37C107.841 88.934 106.947 89.216 105.879 89.216ZM116.144 89.216C115.304 89.216 114.548 89.024 113.876 88.64C113.204 88.244 112.676 87.692 112.292 86.984C111.908 86.264 111.716 85.43 111.716 84.482C111.716 83.51 111.908 82.67 112.292 81.962C112.688 81.242 113.222 80.69 113.894 80.306C114.578 79.91 115.34 79.712 116.18 79.712C117.044 79.712 117.806 79.91 118.466 80.306C119.138 80.69 119.666 81.242 120.05 81.962C120.446 82.67 120.644 83.504 120.644 84.464C120.644 85.424 120.446 86.264 120.05 86.984C119.654 87.692 119.12 88.244 118.448 88.64C117.776 89.024 117.008 89.216 116.144 89.216ZM116.162 87.92C116.678 87.92 117.158 87.794 117.602 87.542C118.046 87.278 118.406 86.888 118.682 86.372C118.958 85.856 119.096 85.22 119.096 84.464C119.096 83.696 118.958 83.06 118.682 82.556C118.418 82.04 118.064 81.656 117.62 81.404C117.188 81.14 116.708 81.008 116.18 81.008C115.676 81.008 115.196 81.14 114.74 81.404C114.296 81.656 113.936 82.04 113.66 82.556C113.396 83.06 113.264 83.696 113.264 84.464C113.264 85.22 113.396 85.856 113.66 86.372C113.936 86.888 114.29 87.278 114.722 87.542C115.166 87.794 115.646 87.92 116.162 87.92ZM124.917 89L121.479 79.928H123.063L125.799 87.542L128.553 79.928H130.101L126.663 89H124.917ZM135.32 89.216C134.468 89.216 133.712 89.018 133.052 88.622C132.404 88.226 131.894 87.674 131.522 86.966C131.15 86.246 130.964 85.412 130.964 84.464C130.964 83.504 131.144 82.67 131.504 81.962C131.876 81.254 132.392 80.702 133.052 80.306C133.724 79.91 134.492 79.712 135.356 79.712C136.244 79.712 136.994 79.91 137.606 80.306C138.23 80.702 138.704 81.224 139.028 81.872C139.364 82.508 139.532 83.21 139.532 83.978C139.532 84.098 139.532 84.224 139.532 84.356C139.532 84.488 139.526 84.638 139.514 84.806H132.098V83.636H138.056C138.02 82.808 137.744 82.16 137.228 81.692C136.724 81.224 136.088 80.99 135.32 80.99C134.804 80.99 134.324 81.11 133.88 81.35C133.448 81.578 133.1 81.92 132.836 82.376C132.572 82.82 132.44 83.378 132.44 84.05V84.554C132.44 85.298 132.572 85.922 132.836 86.426C133.112 86.93 133.466 87.308 133.898 87.56C134.342 87.812 134.816 87.938 135.32 87.938C135.956 87.938 136.478 87.8 136.886 87.524C137.306 87.236 137.606 86.852 137.786 86.372H139.28C139.136 86.912 138.884 87.398 138.524 87.83C138.164 88.262 137.714 88.604 137.174 88.856C136.646 89.096 136.028 89.216 135.32 89.216ZM141.573 89V79.928H142.941L143.049 81.656C143.253 81.248 143.511 80.9 143.823 80.612C144.147 80.324 144.531 80.102 144.975 79.946C145.431 79.79 145.947 79.712 146.523 79.712V81.296H145.965C145.581 81.296 145.215 81.35 144.867 81.458C144.519 81.554 144.207 81.716 143.931 81.944C143.667 82.172 143.457 82.484 143.301 82.88C143.157 83.264 143.085 83.744 143.085 84.32V89H141.573ZM156.058 89V77.642H152.296V76.4H161.332V77.642H157.57V89H156.058ZM163.106 89V76.04H164.618V81.458C164.918 80.918 165.338 80.492 165.878 80.18C166.43 79.868 167.03 79.712 167.678 79.712C168.374 79.712 168.98 79.856 169.496 80.144C170.012 80.42 170.408 80.846 170.684 81.422C170.96 81.998 171.098 82.724 171.098 83.6V89H169.604V83.762C169.604 82.85 169.412 82.166 169.028 81.71C168.644 81.242 168.086 81.008 167.354 81.008C166.838 81.008 166.37 81.134 165.95 81.386C165.542 81.638 165.218 81.998 164.978 82.466C164.738 82.934 164.618 83.51 164.618 84.194V89H163.106ZM177.437 89.216C176.585 89.216 175.829 89.018 175.169 88.622C174.521 88.226 174.011 87.674 173.639 86.966C173.267 86.246 173.081 85.412 173.081 84.464C173.081 83.504 173.261 82.67 173.621 81.962C173.993 81.254 174.509 80.702 175.169 80.306C175.841 79.91 176.609 79.712 177.473 79.712C178.361 79.712 179.111 79.91 179.723 80.306C180.347 80.702 180.821 81.224 181.145 81.872C181.481 82.508 181.649 83.21 181.649 83.978C181.649 84.098 181.649 84.224 181.649 84.356C181.649 84.488 181.643 84.638 181.631 84.806H174.215V83.636H180.173C180.137 82.808 179.861 82.16 179.345 81.692C178.841 81.224 178.205 80.99 177.437 80.99C176.921 80.99 176.441 81.11 175.997 81.35C175.565 81.578 175.217 81.92 174.953 82.376C174.689 82.82 174.557 83.378 174.557 84.05V84.554C174.557 85.298 174.689 85.922 174.953 86.426C175.229 86.93 175.583 87.308 176.015 87.56C176.459 87.812 176.933 87.938 177.437 87.938C178.073 87.938 178.595 87.8 179.003 87.524C179.423 87.236 179.723 86.852 179.903 86.372H181.397C181.253 86.912 181.001 87.398 180.641 87.83C180.281 88.262 179.831 88.604 179.291 88.856C178.763 89.096 178.145 89.216 177.437 89.216ZM188.561 89V76.4H196.229V77.642H190.073V82.07H195.311V83.294H190.073V89H188.561ZM201.398 89.216C200.702 89.216 200.09 89.078 199.562 88.802C199.046 88.526 198.644 88.1 198.356 87.524C198.08 86.948 197.942 86.228 197.942 85.364V79.928H199.454V85.202C199.454 86.102 199.652 86.78 200.048 87.236C200.444 87.692 201.002 87.92 201.722 87.92C202.226 87.92 202.682 87.8 203.09 87.56C203.498 87.308 203.816 86.954 204.044 86.498C204.284 86.03 204.404 85.46 204.404 84.788V79.928H205.916V89H204.548L204.458 87.416C204.182 87.98 203.774 88.424 203.234 88.748C202.694 89.06 202.082 89.216 201.398 89.216ZM208.422 89V76.04H209.934V89H208.422ZM212.43 89V76.04H213.942V89H212.43ZM226.781 89.216C225.557 89.216 224.495 88.946 223.595 88.406C222.707 87.854 222.023 87.092 221.543 86.12C221.063 85.136 220.823 83.996 220.823 82.7C220.823 81.404 221.063 80.27 221.543 79.298C222.023 78.314 222.707 77.552 223.595 77.012C224.495 76.46 225.557 76.184 226.781 76.184C228.221 76.184 229.391 76.526 230.291 77.21C231.191 77.894 231.767 78.86 232.019 80.108H230.345C230.153 79.328 229.763 78.704 229.175 78.236C228.587 77.756 227.789 77.516 226.781 77.516C225.881 77.516 225.101 77.726 224.441 78.146C223.781 78.554 223.271 79.148 222.911 79.928C222.551 80.696 222.371 81.62 222.371 82.7C222.371 83.78 222.551 84.71 222.911 85.49C223.271 86.258 223.781 86.852 224.441 87.272C225.101 87.68 225.881 87.884 226.781 87.884C227.789 87.884 228.587 87.656 229.175 87.2C229.763 86.732 230.153 86.114 230.345 85.346H232.019C231.767 86.558 231.191 87.506 230.291 88.19C229.391 88.874 228.221 89.216 226.781 89.216ZM237.073 89.216C236.341 89.216 235.729 89.09 235.237 88.838C234.745 88.574 234.379 88.232 234.139 87.812C233.899 87.38 233.779 86.912 233.779 86.408C233.779 85.796 233.935 85.28 234.247 84.86C234.571 84.428 235.021 84.104 235.597 83.888C236.185 83.66 236.875 83.546 237.667 83.546H240.061C240.061 82.982 239.971 82.514 239.791 82.142C239.623 81.758 239.371 81.47 239.035 81.278C238.711 81.086 238.303 80.99 237.811 80.99C237.235 80.99 236.737 81.134 236.317 81.422C235.897 81.71 235.639 82.136 235.543 82.7H233.995C234.067 82.052 234.283 81.512 234.643 81.08C235.015 80.636 235.483 80.3 236.047 80.072C236.611 79.832 237.199 79.712 237.811 79.712C238.651 79.712 239.347 79.868 239.899 80.18C240.463 80.48 240.883 80.906 241.159 81.458C241.435 81.998 241.573 82.64 241.573 83.384V89H240.223L240.133 87.398C240.013 87.65 239.857 87.89 239.665 88.118C239.485 88.334 239.269 88.526 239.017 88.694C238.765 88.85 238.477 88.976 238.153 89.072C237.841 89.168 237.481 89.216 237.073 89.216ZM237.307 87.938C237.727 87.938 238.105 87.854 238.441 87.686C238.789 87.506 239.083 87.266 239.323 86.966C239.563 86.654 239.743 86.312 239.863 85.94C239.995 85.568 240.061 85.178 240.061 84.77V84.716H237.793C237.205 84.716 236.731 84.788 236.371 84.932C236.011 85.064 235.753 85.256 235.597 85.508C235.441 85.748 235.363 86.024 235.363 86.336C235.363 86.66 235.435 86.942 235.579 87.182C235.735 87.422 235.957 87.608 236.245 87.74C236.545 87.872 236.899 87.938 237.307 87.938ZM243.912 92.96V79.928H245.28L245.406 81.404C245.598 81.116 245.844 80.846 246.144 80.594C246.444 80.33 246.804 80.12 247.224 79.964C247.644 79.796 248.124 79.712 248.664 79.712C249.552 79.712 250.32 79.922 250.968 80.342C251.628 80.762 252.138 81.332 252.498 82.052C252.87 82.76 253.056 83.57 253.056 84.482C253.056 85.394 252.87 86.21 252.498 86.93C252.138 87.638 251.628 88.196 250.968 88.604C250.308 89.012 249.534 89.216 248.646 89.216C247.914 89.216 247.266 89.066 246.702 88.766C246.15 88.466 245.724 88.046 245.424 87.506V92.96H243.912ZM248.484 87.902C249.072 87.902 249.594 87.758 250.05 87.47C250.506 87.182 250.86 86.786 251.112 86.282C251.376 85.766 251.508 85.16 251.508 84.464C251.508 83.78 251.376 83.18 251.112 82.664C250.86 82.148 250.506 81.746 250.05 81.458C249.594 81.17 249.072 81.026 248.484 81.026C247.884 81.026 247.356 81.17 246.9 81.458C246.444 81.746 246.09 82.148 245.838 82.664C245.586 83.18 245.46 83.78 245.46 84.464C245.46 85.16 245.586 85.766 245.838 86.282C246.09 86.786 246.444 87.182 246.9 87.47C247.356 87.758 247.884 87.902 248.484 87.902ZM258.132 89.216C257.4 89.216 256.788 89.09 256.296 88.838C255.804 88.574 255.438 88.232 255.198 87.812C254.958 87.38 254.838 86.912 254.838 86.408C254.838 85.796 254.994 85.28 255.306 84.86C255.63 84.428 256.08 84.104 256.656 83.888C257.244 83.66 257.934 83.546 258.726 83.546H261.12C261.12 82.982 261.03 82.514 260.85 82.142C260.682 81.758 260.43 81.47 260.094 81.278C259.77 81.086 259.362 80.99 258.87 80.99C258.294 80.99 257.796 81.134 257.376 81.422C256.956 81.71 256.698 82.136 256.602 82.7H255.054C255.126 82.052 255.342 81.512 255.702 81.08C256.074 80.636 256.542 80.3 257.106 80.072C257.67 79.832 258.258 79.712 258.87 79.712C259.71 79.712 260.406 79.868 260.958 80.18C261.522 80.48 261.942 80.906 262.218 81.458C262.494 81.998 262.632 82.64 262.632 83.384V89H261.282L261.192 87.398C261.072 87.65 260.916 87.89 260.724 88.118C260.544 88.334 260.328 88.526 260.076 88.694C259.824 88.85 259.536 88.976 259.212 89.072C258.9 89.168 258.54 89.216 258.132 89.216ZM258.366 87.938C258.786 87.938 259.164 87.854 259.5 87.686C259.848 87.506 260.142 87.266 260.382 86.966C260.622 86.654 260.802 86.312 260.922 85.94C261.054 85.568 261.12 85.178 261.12 84.77V84.716H258.852C258.264 84.716 257.79 84.788 257.43 84.932C257.07 85.064 256.812 85.256 256.656 85.508C256.5 85.748 256.422 86.024 256.422 86.336C256.422 86.66 256.494 86.942 256.638 87.182C256.794 87.422 257.016 87.608 257.304 87.74C257.604 87.872 257.958 87.938 258.366 87.938ZM269.723 89.216C269.207 89.216 268.739 89.144 268.319 89C267.911 88.844 267.551 88.64 267.239 88.388C266.927 88.136 266.669 87.842 266.465 87.506L266.339 89H264.971V76.04H266.483V81.422C266.771 80.954 267.185 80.552 267.725 80.216C268.265 79.88 268.931 79.712 269.723 79.712C270.599 79.712 271.367 79.922 272.027 80.342C272.687 80.75 273.197 81.314 273.557 82.034C273.929 82.742 274.115 83.552 274.115 84.464C274.115 85.376 273.929 86.192 273.557 86.912C273.197 87.632 272.687 88.196 272.027 88.604C271.367 89.012 270.599 89.216 269.723 89.216ZM269.543 87.902C270.131 87.902 270.653 87.758 271.109 87.47C271.565 87.182 271.919 86.786 272.171 86.282C272.435 85.766 272.567 85.16 272.567 84.464C272.567 83.78 272.435 83.18 272.171 82.664C271.919 82.148 271.565 81.746 271.109 81.458C270.653 81.17 270.131 81.026 269.543 81.026C268.943 81.026 268.415 81.17 267.959 81.458C267.503 81.746 267.149 82.148 266.897 82.664C266.645 83.18 266.519 83.78 266.519 84.464C266.519 85.16 266.645 85.766 266.897 86.282C267.149 86.786 267.503 87.182 267.959 87.47C268.415 87.758 268.943 87.902 269.543 87.902ZM276.383 89V79.928H277.895V89H276.383ZM277.139 78.002C276.839 78.002 276.587 77.906 276.383 77.714C276.191 77.51 276.095 77.258 276.095 76.958C276.095 76.658 276.191 76.418 276.383 76.238C276.587 76.046 276.839 75.95 277.139 75.95C277.427 75.95 277.673 76.046 277.877 76.238C278.081 76.418 278.183 76.658 278.183 76.958C278.183 77.258 278.081 77.51 277.877 77.714C277.673 77.906 277.427 78.002 277.139 78.002ZM280.563 89V76.04H282.075V89H280.563ZM284.715 89V79.928H286.227V89H284.715ZM285.471 78.002C285.171 78.002 284.919 77.906 284.715 77.714C284.523 77.51 284.427 77.258 284.427 76.958C284.427 76.658 284.523 76.418 284.715 76.238C284.919 76.046 285.171 75.95 285.471 75.95C285.759 75.95 286.005 76.046 286.209 76.238C286.413 76.418 286.515 76.658 286.515 76.958C286.515 77.258 286.413 77.51 286.209 77.714C286.005 77.906 285.759 78.002 285.471 78.002ZM292.459 89C291.919 89 291.451 88.916 291.055 88.748C290.659 88.58 290.353 88.298 290.137 87.902C289.933 87.494 289.831 86.948 289.831 86.264V81.206H288.247V79.928H289.831L290.029 77.732H291.343V79.928H293.971V81.206H291.343V86.264C291.343 86.828 291.457 87.212 291.685 87.416C291.913 87.608 292.315 87.704 292.891 87.704H293.863V89H292.459ZM296.088 89V79.928H297.6V89H296.088ZM296.844 78.002C296.544 78.002 296.292 77.906 296.088 77.714C295.896 77.51 295.8 77.258 295.8 76.958C295.8 76.658 295.896 76.418 296.088 76.238C296.292 76.046 296.544 75.95 296.844 75.95C297.132 75.95 297.378 76.046 297.582 76.238C297.786 76.418 297.888 76.658 297.888 76.958C297.888 77.258 297.786 77.51 297.582 77.714C297.378 77.906 297.132 78.002 296.844 78.002ZM304.246 89.216C303.394 89.216 302.638 89.018 301.978 88.622C301.33 88.226 300.82 87.674 300.448 86.966C300.076 86.246 299.89 85.412 299.89 84.464C299.89 83.504 300.07 82.67 300.43 81.962C300.802 81.254 301.318 80.702 301.978 80.306C302.65 79.91 303.418 79.712 304.282 79.712C305.17 79.712 305.92 79.91 306.532 80.306C307.156 80.702 307.63 81.224 307.954 81.872C308.29 82.508 308.458 83.21 308.458 83.978C308.458 84.098 308.458 84.224 308.458 84.356C308.458 84.488 308.452 84.638 308.44 84.806H301.024V83.636H306.982C306.946 82.808 306.67 82.16 306.154 81.692C305.65 81.224 305.014 80.99 304.246 80.99C303.73 80.99 303.25 81.11 302.806 81.35C302.374 81.578 302.026 81.92 301.762 82.376C301.498 82.82 301.366 83.378 301.366 84.05V84.554C301.366 85.298 301.498 85.922 301.762 86.426C302.038 86.93 302.392 87.308 302.824 87.56C303.268 87.812 303.742 87.938 304.246 87.938C304.882 87.938 305.404 87.8 305.812 87.524C306.232 87.236 306.532 86.852 306.712 86.372H308.206C308.062 86.912 307.81 87.398 307.45 87.83C307.09 88.262 306.64 88.604 306.1 88.856C305.572 89.096 304.954 89.216 304.246 89.216ZM313.918 89.216C313.162 89.216 312.502 89.09 311.938 88.838C311.386 88.586 310.942 88.238 310.606 87.794C310.282 87.338 310.084 86.804 310.012 86.192H311.56C311.62 86.504 311.746 86.792 311.938 87.056C312.13 87.32 312.388 87.536 312.712 87.704C313.048 87.86 313.456 87.938 313.936 87.938C314.356 87.938 314.704 87.878 314.98 87.758C315.256 87.626 315.46 87.452 315.592 87.236C315.736 87.02 315.808 86.786 315.808 86.534C315.808 86.162 315.718 85.88 315.538 85.688C315.37 85.496 315.118 85.346 314.782 85.238C314.446 85.118 314.038 85.016 313.558 84.932C313.162 84.86 312.772 84.764 312.388 84.644C312.004 84.524 311.662 84.368 311.362 84.176C311.062 83.972 310.822 83.726 310.642 83.438C310.474 83.15 310.39 82.796 310.39 82.376C310.39 81.86 310.522 81.404 310.786 81.008C311.05 80.6 311.428 80.282 311.92 80.054C312.424 79.826 313.006 79.712 313.666 79.712C314.638 79.712 315.424 79.946 316.024 80.414C316.624 80.882 316.978 81.56 317.086 82.448H315.592C315.532 81.992 315.334 81.638 314.998 81.386C314.674 81.122 314.224 80.99 313.648 80.99C313.084 80.99 312.652 81.104 312.352 81.332C312.064 81.56 311.92 81.86 311.92 82.232C311.92 82.472 311.998 82.688 312.154 82.88C312.322 83.06 312.562 83.216 312.874 83.348C313.198 83.48 313.594 83.588 314.062 83.672C314.662 83.78 315.208 83.924 315.7 84.104C316.192 84.284 316.588 84.554 316.888 84.914C317.2 85.262 317.356 85.76 317.356 86.408C317.356 86.972 317.212 87.464 316.924 87.884C316.648 88.304 316.252 88.634 315.736 88.874C315.22 89.102 314.614 89.216 313.918 89.216Z" fill="#F2F2F2" fill-opacity="0.7"/>
    <rect x="27" y="122.587" width="335" height="43" rx="6" fill="white" fill-opacity="0.1"/>
    <path d="M45.016 149.779C43.9707 149.779 43.0533 149.539 42.264 149.059C41.4747 148.568 40.8613 147.891 40.424 147.027C39.9867 146.163 39.768 145.155 39.768 144.003C39.768 142.861 39.9867 141.853 40.424 140.979C40.872 140.104 41.5013 139.421 42.312 138.931C43.1333 138.44 44.0987 138.195 45.208 138.195C46.4667 138.195 47.5173 138.499 48.36 139.107C49.2027 139.704 49.7413 140.541 49.976 141.619H48.424C48.2747 140.947 47.9227 140.413 47.368 140.019C46.8133 139.624 46.0933 139.427 45.208 139.427C44.3867 139.427 43.6667 139.613 43.048 139.987C42.44 140.349 41.9707 140.872 41.64 141.555C41.3093 142.237 41.144 143.053 41.144 144.003C41.144 144.952 41.3093 145.773 41.64 146.467C41.9707 147.149 42.4293 147.672 43.016 148.035C43.6133 148.397 44.296 148.579 45.064 148.579C46.2587 148.579 47.16 148.227 47.768 147.523C48.376 146.819 48.7227 145.864 48.808 144.659H45.576V143.603H50.184V149.587H48.952L48.84 147.747C48.5733 148.184 48.264 148.557 47.912 148.867C47.5707 149.165 47.1653 149.395 46.696 149.555C46.2267 149.704 45.6667 149.779 45.016 149.779ZM55.781 149.779C55.0237 149.779 54.3517 149.603 53.765 149.251C53.189 148.899 52.7357 148.408 52.405 147.779C52.0743 147.139 51.909 146.397 51.909 145.555C51.909 144.701 52.069 143.96 52.389 143.331C52.7197 142.701 53.1783 142.211 53.765 141.859C54.3623 141.507 55.045 141.331 55.813 141.331C56.6023 141.331 57.269 141.507 57.813 141.859C58.3677 142.211 58.789 142.675 59.077 143.251C59.3757 143.816 59.525 144.44 59.525 145.123C59.525 145.229 59.525 145.341 59.525 145.459C59.525 145.576 59.5197 145.709 59.509 145.859H52.917V144.819H58.213C58.181 144.083 57.9357 143.507 57.477 143.091C57.029 142.675 56.4637 142.467 55.781 142.467C55.3223 142.467 54.8957 142.573 54.501 142.787C54.117 142.989 53.8077 143.293 53.573 143.699C53.3383 144.093 53.221 144.589 53.221 145.187V145.635C53.221 146.296 53.3383 146.851 53.573 147.299C53.8183 147.747 54.133 148.083 54.517 148.307C54.9117 148.531 55.333 148.643 55.781 148.643C56.3463 148.643 56.8103 148.52 57.173 148.275C57.5463 148.019 57.813 147.677 57.973 147.251H59.301C59.173 147.731 58.949 148.163 58.629 148.547C58.309 148.931 57.909 149.235 57.429 149.459C56.9597 149.672 56.4103 149.779 55.781 149.779ZM61.3388 149.587V141.523H62.5548L62.6188 142.931C62.8748 142.429 63.2374 142.04 63.7068 141.763C64.1868 141.475 64.7308 141.331 65.3388 141.331C65.9681 141.331 66.5121 141.459 66.9708 141.715C67.4294 141.96 67.7868 142.339 68.0428 142.851C68.2988 143.352 68.4268 143.992 68.4268 144.771V149.587H67.0828V144.915C67.0828 144.104 66.9014 143.496 66.5388 143.091C66.1868 142.685 65.6854 142.483 65.0348 142.483C64.5868 142.483 64.1868 142.595 63.8348 142.819C63.4828 143.032 63.2001 143.347 62.9868 143.763C62.7841 144.168 62.6828 144.675 62.6828 145.283V149.587H61.3388ZM74.0623 149.779C73.3049 149.779 72.6329 149.603 72.0463 149.251C71.4703 148.899 71.0169 148.408 70.6863 147.779C70.3556 147.139 70.1903 146.397 70.1903 145.555C70.1903 144.701 70.3503 143.96 70.6703 143.331C71.0009 142.701 71.4596 142.211 72.0463 141.859C72.6436 141.507 73.3263 141.331 74.0943 141.331C74.8836 141.331 75.5503 141.507 76.0943 141.859C76.6489 142.211 77.0703 142.675 77.3583 143.251C77.6569 143.816 77.8063 144.44 77.8063 145.123C77.8063 145.229 77.8063 145.341 77.8063 145.459C77.8063 145.576 77.8009 145.709 77.7903 145.859H71.1983V144.819H76.4943C76.4623 144.083 76.2169 143.507 75.7583 143.091C75.3103 142.675 74.7449 142.467 74.0623 142.467C73.6036 142.467 73.1769 142.573 72.7823 142.787C72.3983 142.989 72.0889 143.293 71.8543 143.699C71.6196 144.093 71.5023 144.589 71.5023 145.187V145.635C71.5023 146.296 71.6196 146.851 71.8543 147.299C72.0996 147.747 72.4143 148.083 72.7983 148.307C73.1929 148.531 73.6143 148.643 74.0623 148.643C74.6276 148.643 75.0916 148.52 75.4543 148.275C75.8276 148.019 76.0943 147.677 76.2543 147.251H77.5823C77.4543 147.731 77.2303 148.163 76.9103 148.547C76.5903 148.931 76.1903 149.235 75.7103 149.459C75.2409 149.672 74.6916 149.779 74.0623 149.779ZM79.62 149.587V141.523H80.836L80.932 143.059C81.1133 142.696 81.3427 142.387 81.62 142.131C81.908 141.875 82.2493 141.677 82.644 141.539C83.0493 141.4 83.508 141.331 84.02 141.331V142.739H83.524C83.1827 142.739 82.8573 142.787 82.548 142.883C82.2387 142.968 81.9613 143.112 81.716 143.315C81.4813 143.517 81.2947 143.795 81.156 144.147C81.028 144.488 80.964 144.915 80.964 145.427V149.587H79.62ZM88.1659 149.779C87.5152 149.779 86.9712 149.667 86.5339 149.443C86.0965 149.208 85.7712 148.904 85.5579 148.531C85.3445 148.147 85.2379 147.731 85.2379 147.283C85.2379 146.739 85.3765 146.28 85.6539 145.907C85.9419 145.523 86.3419 145.235 86.8539 145.043C87.3765 144.84 87.9899 144.739 88.6939 144.739H90.8219C90.8219 144.237 90.7419 143.821 90.5819 143.491C90.4325 143.149 90.2085 142.893 89.9099 142.723C89.6219 142.552 89.2592 142.467 88.8219 142.467C88.3099 142.467 87.8672 142.595 87.4939 142.851C87.1205 143.107 86.8912 143.485 86.8059 143.987H85.4299C85.4939 143.411 85.6859 142.931 86.0059 142.547C86.3365 142.152 86.7525 141.853 87.2539 141.651C87.7552 141.437 88.2779 141.331 88.8219 141.331C89.5685 141.331 90.1872 141.469 90.6779 141.747C91.1792 142.013 91.5525 142.392 91.7979 142.883C92.0432 143.363 92.1659 143.933 92.1659 144.595V149.587H90.9659L90.8859 148.163C90.7792 148.387 90.6405 148.6 90.4699 148.803C90.3099 148.995 90.1179 149.165 89.8939 149.315C89.6699 149.453 89.4139 149.565 89.1259 149.651C88.8485 149.736 88.5285 149.779 88.1659 149.779ZM88.3739 148.643C88.7472 148.643 89.0832 148.568 89.3819 148.419C89.6912 148.259 89.9525 148.045 90.1659 147.779C90.3792 147.501 90.5392 147.197 90.6459 146.867C90.7632 146.536 90.8219 146.189 90.8219 145.827V145.779H88.8059C88.2832 145.779 87.8619 145.843 87.5419 145.971C87.2219 146.088 86.9925 146.259 86.8539 146.483C86.7152 146.696 86.6459 146.941 86.6459 147.219C86.6459 147.507 86.7099 147.757 86.8379 147.971C86.9765 148.184 87.1739 148.349 87.4299 148.467C87.6965 148.584 88.0112 148.643 88.3739 148.643ZM94.245 149.587V138.067H95.589V149.587H94.245ZM102.138 149.587V138.387H105.754C106.628 138.387 107.343 138.536 107.898 138.835C108.452 139.123 108.863 139.512 109.13 140.003C109.396 140.493 109.53 141.048 109.53 141.667C109.53 142.264 109.391 142.813 109.114 143.315C108.847 143.816 108.431 144.216 107.866 144.515C107.3 144.813 106.575 144.963 105.69 144.963H103.482V149.587H102.138ZM108.058 149.587L105.594 144.579H107.098L109.642 149.587H108.058ZM103.482 143.907H105.658C106.511 143.907 107.135 143.699 107.53 143.283C107.935 142.867 108.138 142.333 108.138 141.683C108.138 141.021 107.94 140.499 107.546 140.115C107.162 139.72 106.527 139.523 105.641 139.523H103.482V143.907ZM114.609 149.779C113.852 149.779 113.18 149.603 112.593 149.251C112.017 148.899 111.564 148.408 111.233 147.779C110.902 147.139 110.737 146.397 110.737 145.555C110.737 144.701 110.897 143.96 111.217 143.331C111.548 142.701 112.006 142.211 112.593 141.859C113.19 141.507 113.873 141.331 114.641 141.331C115.43 141.331 116.097 141.507 116.641 141.859C117.196 142.211 117.617 142.675 117.905 143.251C118.204 143.816 118.353 144.44 118.353 145.123C118.353 145.229 118.353 145.341 118.353 145.459C118.353 145.576 118.348 145.709 118.337 145.859H111.745V144.819H117.041C117.009 144.083 116.764 143.507 116.305 143.091C115.857 142.675 115.292 142.467 114.609 142.467C114.15 142.467 113.724 142.573 113.329 142.787C112.945 142.989 112.636 143.293 112.401 143.699C112.166 144.093 112.049 144.589 112.049 145.187V145.635C112.049 146.296 112.166 146.851 112.401 147.299C112.646 147.747 112.961 148.083 113.345 148.307C113.74 148.531 114.161 148.643 114.609 148.643C115.174 148.643 115.638 148.52 116.001 148.275C116.374 148.019 116.641 147.677 116.801 147.251H118.129C118.001 147.731 117.777 148.163 117.457 148.547C117.137 148.931 116.737 149.235 116.257 149.459C115.788 149.672 115.238 149.779 114.609 149.779ZM122.174 149.587L119.118 141.523H120.526L122.958 148.291L125.406 141.523H126.782L123.726 149.587H122.174ZM128.42 149.587V141.523H129.764V149.587H128.42ZM129.092 139.811C128.825 139.811 128.601 139.725 128.42 139.555C128.249 139.373 128.164 139.149 128.164 138.883C128.164 138.616 128.249 138.403 128.42 138.243C128.601 138.072 128.825 137.987 129.092 137.987C129.348 137.987 129.567 138.072 129.748 138.243C129.929 138.403 130.02 138.616 130.02 138.883C130.02 139.149 129.929 139.373 129.748 139.555C129.567 139.725 129.348 139.811 129.092 139.811ZM135.672 149.779C134.914 149.779 134.242 149.603 133.656 149.251C133.08 148.899 132.626 148.408 132.296 147.779C131.965 147.139 131.8 146.397 131.8 145.555C131.8 144.701 131.96 143.96 132.28 143.331C132.61 142.701 133.069 142.211 133.656 141.859C134.253 141.507 134.936 141.331 135.704 141.331C136.493 141.331 137.16 141.507 137.704 141.859C138.258 142.211 138.68 142.675 138.968 143.251C139.266 143.816 139.416 144.44 139.416 145.123C139.416 145.229 139.416 145.341 139.416 145.459C139.416 145.576 139.41 145.709 139.4 145.859H132.808V144.819H138.104C138.072 144.083 137.826 143.507 137.368 143.091C136.92 142.675 136.354 142.467 135.672 142.467C135.213 142.467 134.786 142.573 134.392 142.787C134.008 142.989 133.698 143.293 133.464 143.699C133.229 144.093 133.112 144.589 133.112 145.187V145.635C133.112 146.296 133.229 146.851 133.464 147.299C133.709 147.747 134.024 148.083 134.408 148.307C134.802 148.531 135.224 148.643 135.672 148.643C136.237 148.643 136.701 148.52 137.064 148.275C137.437 148.019 137.704 147.677 137.864 147.251H139.192C139.064 147.731 138.84 148.163 138.52 148.547C138.2 148.931 137.8 149.235 137.32 149.459C136.85 149.672 136.301 149.779 135.672 149.779ZM142.549 149.587L140.181 141.523H141.525L143.365 148.323H143.125L145.125 141.523H146.645L148.677 148.307L148.421 148.323L150.245 141.523H151.605L149.253 149.587H147.877L145.765 142.483H146.037L143.925 149.587H142.549ZM156.16 149.779C155.488 149.779 154.901 149.667 154.4 149.443C153.909 149.219 153.515 148.909 153.216 148.515C152.928 148.109 152.752 147.635 152.688 147.091H154.064C154.117 147.368 154.229 147.624 154.4 147.859C154.571 148.093 154.8 148.285 155.088 148.435C155.387 148.573 155.749 148.643 156.176 148.643C156.549 148.643 156.859 148.589 157.104 148.483C157.349 148.365 157.531 148.211 157.648 148.019C157.776 147.827 157.84 147.619 157.84 147.395C157.84 147.064 157.76 146.813 157.6 146.643C157.451 146.472 157.227 146.339 156.928 146.243C156.629 146.136 156.267 146.045 155.84 145.971C155.488 145.907 155.141 145.821 154.8 145.715C154.459 145.608 154.155 145.469 153.888 145.299C153.621 145.117 153.408 144.899 153.248 144.643C153.099 144.387 153.024 144.072 153.024 143.699C153.024 143.24 153.141 142.835 153.376 142.483C153.611 142.12 153.947 141.837 154.384 141.635C154.832 141.432 155.349 141.331 155.936 141.331C156.8 141.331 157.499 141.539 158.032 141.955C158.565 142.371 158.88 142.973 158.976 143.763H157.648C157.595 143.357 157.419 143.043 157.12 142.819C156.832 142.584 156.432 142.467 155.92 142.467C155.419 142.467 155.035 142.568 154.768 142.771C154.512 142.973 154.384 143.24 154.384 143.571C154.384 143.784 154.453 143.976 154.592 144.147C154.741 144.307 154.955 144.445 155.232 144.563C155.52 144.68 155.872 144.776 156.288 144.851C156.821 144.947 157.307 145.075 157.744 145.235C158.181 145.395 158.533 145.635 158.8 145.955C159.077 146.264 159.216 146.707 159.216 147.283C159.216 147.784 159.088 148.221 158.832 148.595C158.587 148.968 158.235 149.261 157.776 149.475C157.317 149.677 156.779 149.779 156.16 149.779Z" fill="#F2F2F2" fill-opacity="0.5"/>
    <path fill-rule="evenodd" clip-rule="evenodd" d="M204.688 129.937C203.693 129.937 202.739 130.431 202.036 131.31C201.333 132.189 200.938 133.382 200.938 134.625V153.375C200.938 154.618 201.333 155.81 202.036 156.689C202.739 157.568 203.693 158.062 204.688 158.062H207.188C207.878 158.062 208.438 158.762 208.438 159.625C208.438 160.488 207.878 161.187 207.188 161.187H204.688C203.03 161.187 201.44 160.364 200.268 158.899C199.096 157.434 198.438 155.447 198.438 153.375V134.625C198.438 132.553 199.096 130.566 200.268 129.1C201.44 127.635 203.03 126.812 204.688 126.812H207.188C207.878 126.812 208.438 127.512 208.438 128.375C208.438 129.238 207.878 129.937 207.188 129.937H204.688Z" fill="#A3E635"/>
    <path fill-rule="evenodd" clip-rule="evenodd" d="M189.062 128.375C189.062 127.512 189.622 126.812 190.312 126.812H192.812C194.47 126.812 196.06 127.635 197.232 129.1C198.404 130.566 199.062 132.553 199.062 134.625V153.375C199.062 155.447 198.404 157.434 197.232 158.899C196.06 160.364 194.47 161.187 192.812 161.187H190.312C189.622 161.187 189.062 160.488 189.062 159.625C189.062 158.762 189.622 158.062 190.312 158.062H192.812C193.807 158.062 194.761 157.568 195.464 156.689C196.167 155.81 196.562 154.618 196.562 153.375V134.625C196.562 133.382 196.167 132.189 195.464 131.31C194.761 130.431 193.807 129.937 192.812 129.937H190.312C189.622 129.937 189.062 129.238 189.062 128.375Z" fill="#A3E635"/>
    <path fill-rule="evenodd" clip-rule="evenodd" d="M193.75 144C193.75 143.137 194.31 142.437 195 142.437H202.5C203.19 142.437 203.75 143.137 203.75 144C203.75 144.863 203.19 145.562 202.5 145.562H195C194.31 145.562 193.75 144.863 193.75 144Z" fill="#A3E635"/>
    <defs>
        <filter id="filter0_d_20_145" x="0.5" y="0.5" width="419" height="241" filterUnits="userSpaceOnUse" color-interpolation-filters="sRGB">
            <feFlood flood-opacity="0" result="BackgroundImageFix"/>
            <feColorMatrix in="SourceAlpha" type="matrix" values="0 0 0 0 0 0 0 0 0 0 0 0 0 0 0 0 0 0 127 0" result="hardAlpha"/>
            <feOffset dx="2" dy="2"/>
            <feGaussianBlur stdDeviation="5.25"/>
            <feComposite in2="hardAlpha" operator="out"/>
            <feColorMatrix type="matrix" values="0 0 0 0 0.0745098 0 0 0 0 0.0980392 0 0 0 0 0.0509804 0 0 0 0.12 0"/>
            <feBlend mode="normal" in2="BackgroundImageFix" result="effect1_dropShadow_20_145"/>
            <feBlend mode="normal" in="SourceGraphic" in2="effect1_dropShadow_20_145" result="shape"/>
        </filter>
    </defs>
</svg>
