<svg width="420" height="243" viewBox="0 0 420 243" fill="none" xmlns="http://www.w3.org/2000/svg">
    <g filter="url(#filter0_d_0_1)">
        <rect x="9" y="8.99988" width="398" height="220" rx="17.8667" fill="#13190D"/>
        <rect x="9.44667" y="9.44654" width="397.107" height="219.107" rx="17.42" stroke="#13190D" stroke-opacity="0.5" stroke-width="0.893333"/>
    </g>
    <path d="M208.447 58.9232C203.279 58.9232 198.227 60.4557 193.93 63.3269C189.633 66.1981 186.283 70.2791 184.306 75.0537C182.328 79.8283 181.811 85.0822 182.819 90.1509C183.827 95.2197 186.316 99.8756 189.97 103.53C193.624 107.184 198.28 109.673 203.349 110.681C208.418 111.689 213.672 111.172 218.446 109.194C223.221 107.216 227.302 103.867 230.173 99.5703C233.044 95.2732 234.577 90.2212 234.577 85.0532C234.569 78.1254 231.814 71.4833 226.915 66.5846C222.017 61.6859 215.375 58.9305 208.447 58.9232ZM208.447 107.163C204.074 107.163 199.799 105.866 196.163 103.437C192.527 101.008 189.693 97.5544 188.02 93.5144C186.346 89.4743 185.908 85.0287 186.761 80.7398C187.615 76.4509 189.72 72.5112 192.813 69.4191C195.905 66.3269 199.844 64.2212 204.133 63.3681C208.422 62.5149 212.868 62.9528 216.908 64.6262C220.948 66.2997 224.401 69.1336 226.83 72.7696C229.26 76.4055 230.557 80.6803 230.557 85.0532C230.55 90.9151 228.218 96.535 224.073 100.68C219.928 104.825 214.309 107.157 208.447 107.163ZM220.507 85.0532C220.507 85.5863 220.295 86.0976 219.918 86.4745C219.541 86.8515 219.03 87.0632 218.497 87.0632H210.457V95.1032C210.457 95.6363 210.245 96.1476 209.868 96.5245C209.491 96.9015 208.98 97.1132 208.447 97.1132C207.914 97.1132 207.402 96.9015 207.025 96.5245C206.648 96.1476 206.437 95.6363 206.437 95.1032V87.0632H198.397C197.864 87.0632 197.352 86.8515 196.975 86.4745C196.598 86.0976 196.387 85.5863 196.387 85.0532C196.387 84.5201 196.598 84.0089 196.975 83.6319C197.352 83.255 197.864 83.0432 198.397 83.0432H206.437V75.0032C206.437 74.4701 206.648 73.9589 207.025 73.5819C207.402 73.205 207.914 72.9932 208.447 72.9932C208.98 72.9932 209.491 73.205 209.868 73.5819C210.245 73.9589 210.457 74.4701 210.457 75.0032V83.0432H218.497C219.03 83.0432 219.541 83.255 219.918 83.6319C220.295 84.0089 220.507 84.5201 220.507 85.0532Z" fill="#A3E635"/>
    <path d="M132.319 168.079C130.709 168.079 129.315 167.73 128.138 167.033C126.977 166.321 126.079 165.338 125.444 164.084C124.825 162.814 124.515 161.351 124.515 159.694C124.515 158.021 124.825 156.558 125.444 155.304C126.079 154.034 126.977 153.043 128.138 152.331C129.315 151.619 130.709 151.262 132.319 151.262C134.255 151.262 135.834 151.742 137.057 152.703C138.281 153.647 139.055 154.986 139.38 156.721H136.314C136.097 155.807 135.656 155.087 134.99 154.561C134.324 154.034 133.426 153.771 132.296 153.771C131.274 153.771 130.391 154.011 129.648 154.491C128.92 154.956 128.355 155.637 127.953 156.535C127.566 157.418 127.372 158.47 127.372 159.694C127.372 160.917 127.566 161.97 127.953 162.853C128.355 163.72 128.92 164.393 129.648 164.873C130.391 165.338 131.274 165.57 132.296 165.57C133.426 165.57 134.324 165.33 134.99 164.85C135.656 164.355 136.097 163.673 136.314 162.806H139.38C139.07 164.447 138.296 165.74 137.057 166.685C135.834 167.614 134.255 168.079 132.319 168.079ZM142.015 167.8V156.094H144.5L144.755 158.277C145.034 157.766 145.382 157.332 145.801 156.976C146.219 156.605 146.706 156.318 147.264 156.117C147.837 155.916 148.464 155.815 149.145 155.815V158.765H148.17C147.705 158.765 147.264 158.827 146.846 158.951C146.428 159.059 146.064 159.245 145.754 159.508C145.46 159.756 145.228 160.104 145.057 160.553C144.887 160.987 144.802 161.536 144.802 162.202V167.8H142.015ZM156.478 168.079C155.317 168.079 154.295 167.831 153.412 167.335C152.53 166.824 151.841 166.112 151.345 165.198C150.85 164.285 150.602 163.232 150.602 162.04C150.602 160.801 150.842 159.717 151.322 158.788C151.817 157.859 152.506 157.131 153.389 156.605C154.287 156.078 155.325 155.815 156.501 155.815C157.647 155.815 158.646 156.07 159.498 156.581C160.349 157.092 161.007 157.781 161.472 158.649C161.937 159.5 162.169 160.46 162.169 161.529C162.169 161.684 162.169 161.854 162.169 162.04C162.169 162.225 162.153 162.419 162.122 162.62H152.599V160.832H159.358C159.327 159.98 159.041 159.314 158.499 158.834C157.957 158.339 157.283 158.091 156.478 158.091C155.905 158.091 155.379 158.223 154.899 158.486C154.419 158.749 154.039 159.144 153.761 159.671C153.482 160.182 153.343 160.832 153.343 161.622V162.295C153.343 163.023 153.474 163.65 153.737 164.177C154.016 164.703 154.388 165.106 154.852 165.384C155.332 165.648 155.867 165.779 156.455 165.779C157.105 165.779 157.64 165.64 158.058 165.361C158.491 165.082 158.809 164.711 159.01 164.246H161.844C161.627 164.974 161.271 165.632 160.775 166.22C160.28 166.793 159.668 167.25 158.94 167.591C158.212 167.916 157.392 168.079 156.478 168.079ZM168.644 168.079C167.684 168.079 166.887 167.916 166.252 167.591C165.617 167.266 165.145 166.832 164.835 166.29C164.525 165.748 164.371 165.16 164.371 164.525C164.371 163.782 164.556 163.139 164.928 162.597C165.315 162.055 165.88 161.637 166.624 161.343C167.367 161.033 168.28 160.878 169.364 160.878H172.314C172.314 160.259 172.229 159.748 172.059 159.345C171.888 158.927 171.625 158.618 171.269 158.416C170.913 158.215 170.456 158.114 169.899 158.114C169.264 158.114 168.722 158.261 168.273 158.556C167.824 158.834 167.545 159.268 167.437 159.856H164.696C164.789 159.02 165.067 158.308 165.532 157.719C165.996 157.116 166.608 156.651 167.367 156.326C168.141 155.985 168.985 155.815 169.899 155.815C170.998 155.815 171.935 156.008 172.709 156.396C173.483 156.767 174.072 157.309 174.474 158.021C174.892 158.718 175.101 159.562 175.101 160.553V167.8H172.732L172.453 165.919C172.299 166.228 172.097 166.515 171.85 166.778C171.617 167.041 171.346 167.273 171.037 167.475C170.727 167.661 170.371 167.808 169.968 167.916C169.581 168.024 169.14 168.079 168.644 168.079ZM169.271 165.872C169.72 165.872 170.115 165.795 170.456 165.64C170.812 165.469 171.114 165.237 171.362 164.943C171.625 164.633 171.826 164.293 171.966 163.921C172.105 163.549 172.198 163.155 172.244 162.736V162.69H169.666C169.124 162.69 168.675 162.76 168.319 162.899C167.963 163.023 167.707 163.209 167.553 163.456C167.398 163.704 167.32 163.991 167.32 164.316C167.32 164.641 167.398 164.92 167.553 165.152C167.707 165.384 167.932 165.562 168.226 165.686C168.52 165.81 168.869 165.872 169.271 165.872ZM182.985 167.8C182.195 167.8 181.506 167.676 180.917 167.428C180.344 167.18 179.895 166.77 179.57 166.197C179.245 165.624 179.083 164.85 179.083 163.875V158.44H177.085V156.094H179.083L179.408 153.004H181.87V156.094H185.052V158.44H181.87V163.875C181.87 164.463 181.994 164.873 182.241 165.106C182.505 165.322 182.938 165.431 183.542 165.431H184.982V167.8H182.985ZM192.861 168.079C191.699 168.079 190.677 167.831 189.795 167.335C188.912 166.824 188.223 166.112 187.728 165.198C187.232 164.285 186.984 163.232 186.984 162.04C186.984 160.801 187.224 159.717 187.704 158.788C188.2 157.859 188.889 157.131 189.771 156.605C190.67 156.078 191.707 155.815 192.884 155.815C194.03 155.815 195.028 156.07 195.88 156.581C196.732 157.092 197.39 157.781 197.854 158.649C198.319 159.5 198.551 160.46 198.551 161.529C198.551 161.684 198.551 161.854 198.551 162.04C198.551 162.225 198.536 162.419 198.505 162.62H188.982V160.832H195.741C195.71 159.98 195.423 159.314 194.881 158.834C194.339 158.339 193.666 158.091 192.861 158.091C192.288 158.091 191.761 158.223 191.281 158.486C190.801 158.749 190.422 159.144 190.143 159.671C189.864 160.182 189.725 160.832 189.725 161.622V162.295C189.725 163.023 189.857 163.65 190.12 164.177C190.399 164.703 190.77 165.106 191.235 165.384C191.715 165.648 192.249 165.779 192.837 165.779C193.488 165.779 194.022 165.64 194.44 165.361C194.874 165.082 195.191 164.711 195.392 164.246H198.226C198.009 164.974 197.653 165.632 197.158 166.22C196.662 166.793 196.05 167.25 195.323 167.591C194.595 167.916 193.774 168.079 192.861 168.079ZM205.82 167.8L211.766 151.541H214.878L220.824 167.8H217.874L213.299 154.793L208.723 167.8H205.82ZM208.468 163.967L209.211 161.761H217.224L217.967 163.967H208.468ZM228.731 167.8V151.541H235.095C236.241 151.541 237.193 151.719 237.952 152.075C238.726 152.432 239.307 152.927 239.694 153.562C240.081 154.181 240.275 154.901 240.275 155.722C240.275 156.543 240.097 157.232 239.741 157.789C239.384 158.347 238.912 158.772 238.324 159.067C237.751 159.361 237.124 159.539 236.442 159.601L236.791 159.345C237.519 159.361 238.169 159.554 238.742 159.926C239.33 160.298 239.795 160.785 240.135 161.389C240.476 161.978 240.646 162.636 240.646 163.364C240.646 164.215 240.437 164.982 240.019 165.663C239.617 166.329 239.021 166.855 238.231 167.242C237.441 167.614 236.473 167.8 235.328 167.8H228.731ZM231.518 165.524H234.909C235.823 165.524 236.535 165.307 237.046 164.873C237.557 164.44 237.813 163.836 237.813 163.062C237.813 162.287 237.55 161.676 237.023 161.227C236.497 160.762 235.777 160.53 234.863 160.53H231.518V165.524ZM231.518 158.416H234.7C235.598 158.416 236.28 158.215 236.744 157.812C237.209 157.394 237.441 156.821 237.441 156.094C237.441 155.381 237.209 154.824 236.744 154.421C236.28 154.003 235.591 153.794 234.677 153.794H231.518V158.416ZM243.223 167.8V156.094H245.708L245.964 158.277C246.242 157.766 246.591 157.332 247.009 156.976C247.427 156.605 247.915 156.318 248.472 156.117C249.045 155.916 249.672 155.815 250.354 155.815V158.765H249.378C248.913 158.765 248.472 158.827 248.054 158.951C247.636 159.059 247.272 159.245 246.962 159.508C246.668 159.756 246.436 160.104 246.266 160.553C246.095 160.987 246.01 161.536 246.01 162.202V167.8H243.223ZM256.357 168.079C255.397 168.079 254.599 167.916 253.964 167.591C253.33 167.266 252.857 166.832 252.548 166.29C252.238 165.748 252.083 165.16 252.083 164.525C252.083 163.782 252.269 163.139 252.64 162.597C253.028 162.055 253.593 161.637 254.336 161.343C255.079 161.033 255.993 160.878 257.077 160.878H260.027C260.027 160.259 259.941 159.748 259.771 159.345C259.601 158.927 259.337 158.618 258.981 158.416C258.625 158.215 258.168 158.114 257.611 158.114C256.976 158.114 256.434 158.261 255.985 158.556C255.536 158.834 255.257 159.268 255.149 159.856H252.408C252.501 159.02 252.78 158.308 253.244 157.719C253.709 157.116 254.321 156.651 255.079 156.326C255.853 155.985 256.697 155.815 257.611 155.815C258.71 155.815 259.647 156.008 260.421 156.396C261.196 156.767 261.784 157.309 262.187 158.021C262.605 158.718 262.814 159.562 262.814 160.553V167.8H260.445L260.166 165.919C260.011 166.228 259.81 166.515 259.562 166.778C259.33 167.041 259.059 167.273 258.749 167.475C258.439 167.661 258.083 167.808 257.681 167.916C257.294 168.024 256.852 168.079 256.357 168.079ZM256.984 165.872C257.433 165.872 257.828 165.795 258.168 165.64C258.525 165.469 258.826 165.237 259.074 164.943C259.337 164.633 259.539 164.293 259.678 163.921C259.817 163.549 259.91 163.155 259.957 162.736V162.69H257.379C256.837 162.69 256.388 162.76 256.032 162.899C255.675 163.023 255.42 163.209 255.265 163.456C255.11 163.704 255.033 163.991 255.033 164.316C255.033 164.641 255.11 164.92 255.265 165.152C255.42 165.384 255.644 165.562 255.939 165.686C256.233 165.81 256.581 165.872 256.984 165.872ZM265.792 167.8V156.094H268.254L268.463 158.045C268.819 157.363 269.33 156.821 269.996 156.419C270.662 156.016 271.451 155.815 272.365 155.815C273.31 155.815 274.115 156.016 274.781 156.419C275.446 156.806 275.957 157.379 276.314 158.138C276.685 158.896 276.871 159.841 276.871 160.971V167.8H274.084V161.227C274.084 160.251 273.867 159.5 273.433 158.974C273 158.447 272.357 158.184 271.506 158.184C270.948 158.184 270.445 158.316 269.996 158.579C269.562 158.842 269.214 159.229 268.951 159.74C268.703 160.236 268.579 160.84 268.579 161.552V167.8H265.792ZM285.012 168.079C283.928 168.079 282.961 167.815 282.109 167.289C281.257 166.762 280.591 166.035 280.111 165.106C279.647 164.177 279.415 163.124 279.415 161.947C279.415 160.77 279.655 159.725 280.135 158.811C280.615 157.882 281.281 157.154 282.132 156.628C282.999 156.086 283.975 155.815 285.059 155.815C285.941 155.815 286.708 155.985 287.358 156.326C288.024 156.651 288.55 157.116 288.938 157.719V151.077H291.725V167.8H289.216L288.938 166.104C288.69 166.445 288.388 166.77 288.032 167.08C287.676 167.374 287.25 167.614 286.754 167.8C286.259 167.986 285.678 168.079 285.012 168.079ZM285.593 165.663C286.259 165.663 286.847 165.508 287.358 165.198C287.869 164.873 288.264 164.432 288.543 163.875C288.821 163.317 288.961 162.675 288.961 161.947C288.961 161.219 288.821 160.576 288.543 160.019C288.264 159.461 287.869 159.028 287.358 158.718C286.847 158.409 286.259 158.254 285.593 158.254C284.958 158.254 284.385 158.409 283.874 158.718C283.363 159.028 282.961 159.461 282.666 160.019C282.388 160.576 282.248 161.219 282.248 161.947C282.248 162.675 282.388 163.317 282.666 163.875C282.961 164.432 283.363 164.873 283.874 165.198C284.385 165.508 284.958 165.663 285.593 165.663Z" fill="#A3E635"/>
    <path fill-rule="evenodd" clip-rule="evenodd" d="M310.092 193.714C309.149 191.088 311.76 188.797 314.195 189.624L314.982 189.891C326.992 193.966 338.583 199.091 349.615 205.204C352.363 206.727 351.329 210.57 348.527 211.008L336.317 212.917C335.073 213.111 334.134 214.059 333.946 215.194L331.985 227.066C331.512 229.933 327.631 230.718 326.133 228.163C319.841 217.435 314.564 206.161 310.367 194.479L310.092 193.714ZM313.597 193.117L313.661 193.296C317.68 204.482 322.706 215.287 328.682 225.587L330.493 214.624C330.936 211.944 333.096 209.878 335.776 209.459L346.921 207.716C336.372 201.947 325.309 197.091 313.858 193.205L313.597 193.117Z" fill="#A3E635"/>
    <defs>
        <filter id="filter0_d_0_1" x="0.5" y="0.499878" width="419" height="241" filterUnits="userSpaceOnUse" color-interpolation-filters="sRGB">
            <feFlood flood-opacity="0" result="BackgroundImageFix"/>
            <feColorMatrix in="SourceAlpha" type="matrix" values="0 0 0 0 0 0 0 0 0 0 0 0 0 0 0 0 0 0 127 0" result="hardAlpha"/>
            <feOffset dx="2" dy="2"/>
            <feGaussianBlur stdDeviation="5.25"/>
            <feComposite in2="hardAlpha" operator="out"/>
            <feColorMatrix type="matrix" values="0 0 0 0 0.0745098 0 0 0 0 0.0980392 0 0 0 0 0.0509804 0 0 0 0.12 0"/>
            <feBlend mode="normal" in2="BackgroundImageFix" result="effect1_dropShadow_0_1"/>
            <feBlend mode="normal" in="SourceGraphic" in2="effect1_dropShadow_0_1" result="shape"/>
        </filter>
    </defs>
</svg>
