<svg width="1160" height="106" viewBox="0 0 1160 106" fill="none" xmlns="http://www.w3.org/2000/svg">
    <g opacity="0.6">
        <path d="M15.9232 31V31.1927L15.1247 31.3854V39.9245L15.9232 40.1172V40.3099H12.1376V40.1172L12.9362 39.9245V32.6455L9.80123 40.4433H9.40194L5.3354 32.6455V39.7169L6.4001 40.1172V40.3099H3.87146V40.1172L4.93616 39.7169V31.3854L4.13762 31.1927V31H5.79381C6.04519 31 6.26701 31.0296 6.44446 31.0889C6.62191 31.1482 6.79938 31.2224 6.93247 31.3261C7.08034 31.4299 7.19864 31.5485 7.30215 31.6819C7.40566 31.8154 7.49439 31.9784 7.58312 32.1415L10.4814 37.7008L12.6996 32.1415C12.7735 31.9488 12.8474 31.7857 12.951 31.6523C13.0397 31.5189 13.158 31.4003 13.291 31.2965C13.4241 31.1927 13.5868 31.1186 13.779 31.0741C13.9713 31.0296 14.2079 31 14.5036 31H15.9232Z" fill="#686868"/>
        <path d="M20.6555 33.4755C21.2027 33.4755 21.7054 33.5496 22.1343 33.7127C22.5631 33.8758 22.9328 34.113 23.2433 34.4095C23.5539 34.7208 23.7757 35.0914 23.9383 35.5213C24.101 35.9513 24.1749 36.4553 24.1749 37.0038C24.1749 37.5523 24.101 38.0564 23.9383 38.4863C23.7757 38.9162 23.5391 39.2868 23.2433 39.5981C22.9328 39.9094 22.5631 40.1318 22.1343 40.2949C21.7054 40.458 21.2027 40.5321 20.6555 40.5321C20.1084 40.5321 19.6056 40.458 19.1768 40.2949C18.7479 40.1318 18.3783 39.8946 18.0677 39.5981C17.7572 39.2868 17.5354 38.9162 17.3727 38.4863C17.2101 38.0564 17.1361 37.5523 17.1361 37.0038C17.1361 36.4553 17.2101 35.9513 17.3727 35.5213C17.5354 35.0914 17.772 34.7208 18.0677 34.4095C18.3783 34.0982 18.7479 33.8758 19.1768 33.7127C19.6056 33.5496 20.0936 33.4755 20.6555 33.4755ZM20.6555 40.2801C20.8034 40.2801 20.9513 40.2356 21.1139 40.1318C21.2618 40.028 21.3949 39.865 21.5132 39.613C21.6315 39.3609 21.735 39.0348 21.8089 38.6197C21.8829 38.1898 21.9272 37.6561 21.9272 37.0186C21.9272 36.3663 21.8829 35.8327 21.8089 35.4176C21.735 35.0025 21.6315 34.6615 21.5132 34.4243C21.3949 34.1871 21.2618 34.0092 21.1139 33.9054C20.9661 33.8017 20.8182 33.7572 20.6555 33.7572C20.5076 33.7572 20.3598 33.8017 20.1971 33.9054C20.0492 34.0092 19.9161 34.1723 19.7978 34.4243C19.6795 34.6763 19.576 35.0025 19.5021 35.4176C19.4282 35.8475 19.3838 36.3812 19.3838 37.0186C19.3838 37.6709 19.4282 38.2046 19.5021 38.6197C19.576 39.0348 19.6795 39.3758 19.7978 39.613C19.9161 39.8501 20.0492 40.028 20.1971 40.1318C20.345 40.2208 20.4929 40.2801 20.6555 40.2801Z" fill="#686868"/>
        <path d="M30.6368 31C31.4353 31 31.8345 31.4003 31.8345 32.2008V39.9393L32.6331 40.132V40.3247H31.4353C31.11 40.3247 30.8586 40.2803 30.6663 40.1765C30.4741 40.0727 30.3114 39.9541 30.2079 39.8355C30.0748 39.6873 29.9713 39.5094 29.9122 39.3315C29.7939 39.5687 29.646 39.7614 29.4685 39.9393C29.3207 40.0875 29.1136 40.221 28.8623 40.3544C28.6109 40.4878 28.3151 40.5471 27.975 40.5471C27.5905 40.5471 27.2356 40.473 26.9103 40.3247C26.5702 40.1765 26.2893 39.9541 26.0527 39.6576C25.8161 39.3611 25.6091 38.9905 25.476 38.5606C25.3281 38.1159 25.2689 37.6118 25.2689 37.0188C25.2689 36.4258 25.3429 35.9218 25.476 35.4771C25.6238 35.0323 25.816 34.6765 26.0822 34.38C26.3336 34.0835 26.6442 33.8612 26.9991 33.7129C27.354 33.5647 27.7532 33.4906 28.1968 33.4906C28.4334 33.4906 28.6405 33.5202 28.8327 33.5647C29.0249 33.624 29.1876 33.6833 29.3207 33.7574C29.4833 33.8315 29.6164 33.9205 29.7347 34.0242V31.4299L28.9362 31.2372V31.0445H30.6368V31ZM29.7051 34.4097C29.6016 34.3059 29.5129 34.217 29.3946 34.1428C29.2911 34.0687 29.1876 34.0094 29.0693 33.9501C28.951 33.8908 28.8327 33.876 28.6996 33.876C28.537 33.876 28.3743 33.9205 28.2264 34.0094C28.0785 34.0984 27.9602 34.2466 27.8419 34.469C27.7384 34.6914 27.6497 35.0175 27.5906 35.4178C27.5314 35.8329 27.5018 36.3517 27.5018 37.004C27.5018 37.6415 27.5314 38.1455 27.5906 38.5458C27.6497 38.946 27.7236 39.2574 27.8272 39.4797C27.9159 39.7021 28.0194 39.8652 28.1525 39.9393C28.2708 40.0134 28.3891 40.0579 28.5074 40.0579C28.7144 40.0579 28.8918 39.9986 29.0397 39.8948C29.1876 39.7911 29.3059 39.6576 29.4094 39.5242C29.5277 39.3611 29.6312 39.1832 29.7199 38.9905V34.4097H29.7051Z" fill="#686868"/>
        <path d="M37.0839 40.5478C35.9453 40.5478 35.0581 40.2365 34.437 39.6138C33.8012 38.9912 33.4906 38.1165 33.4906 37.0195C33.4906 36.471 33.5645 35.9669 33.7272 35.537C33.8899 35.1071 34.1117 34.7365 34.3927 34.4252C34.6736 34.1138 35.0137 33.8915 35.4277 33.7284C35.827 33.5653 36.2706 33.4912 36.7586 33.4912C37.2614 33.4912 37.705 33.5653 38.0895 33.6988C38.4888 33.847 38.8141 34.0397 39.095 34.2769C39.376 34.5141 39.583 34.7958 39.7309 35.1219C39.8788 35.4481 39.9527 35.789 39.9527 36.1597C39.9527 36.2783 39.9527 36.3969 39.9379 36.4858C39.9232 36.5748 39.9084 36.6637 39.8936 36.7378C39.864 36.8268 39.8492 36.9009 39.8196 36.9602C39.4351 37.0343 39.0211 37.1084 38.5775 37.1529C38.2078 37.2122 37.779 37.2567 37.291 37.2863C36.803 37.316 36.3002 37.3456 35.7679 37.3456C35.7679 37.8942 35.8122 38.3537 35.8862 38.7243C35.9601 39.095 36.0784 39.3914 36.2115 39.599C36.3594 39.8214 36.522 39.9696 36.7142 40.0586C36.9065 40.1475 37.1283 40.192 37.3501 40.192C37.6163 40.192 37.8677 40.1475 38.1043 40.0437C38.3409 39.94 38.5479 39.8214 38.7106 39.6583C38.888 39.4952 39.0211 39.3025 39.1246 39.095C39.2281 38.8874 39.2725 38.6799 39.2725 38.4575H39.5978C39.5978 38.7243 39.5387 38.9764 39.4204 39.2284C39.3021 39.4804 39.1246 39.7028 38.9028 39.8955C38.681 40.0882 38.4148 40.2365 38.1043 40.3551C37.8085 40.4885 37.4684 40.5478 37.0839 40.5478ZM35.7531 37.0047C36.0488 37.0047 36.315 37.0047 36.5516 36.9898C36.7882 36.975 36.9804 36.9602 37.1431 36.9454C37.3353 36.9305 37.4832 36.9009 37.6163 36.8861C37.6311 36.7971 37.6607 36.6933 37.6755 36.5896C37.6903 36.4858 37.705 36.382 37.7198 36.2634C37.7346 36.1448 37.7346 36.0114 37.7346 35.878C37.7346 35.4777 37.705 35.1368 37.6459 34.8699C37.5867 34.6031 37.5128 34.3807 37.4093 34.2028C37.3205 34.0397 37.217 33.9063 37.0839 33.847C36.9508 33.7877 36.8473 33.7432 36.729 33.7432C36.6107 33.7432 36.4925 33.7877 36.3742 33.8767C36.2559 33.9656 36.1524 34.1287 36.0488 34.351C35.9601 34.5882 35.8714 34.9144 35.8122 35.3443C35.7531 35.7742 35.7531 36.3227 35.7531 37.0047Z" fill="#686868"/>
        <path d="M45.5426 33.9352C45.2764 33.9352 45.0398 33.9945 44.8328 34.0983C44.6258 34.2021 44.4483 34.3355 44.3005 34.4689C44.1378 34.632 44.0047 34.8099 43.8716 35.0026V39.9392L44.6701 40.1319V40.3247H40.9437V40.1319L41.7423 39.9392V34.0686L40.9437 33.8759V33.6832H42.1415C42.452 33.6832 42.7034 33.7425 42.9104 33.8463C43.1027 33.95 43.2653 34.0686 43.3836 34.1872C43.5167 34.3355 43.6203 34.4986 43.6794 34.6764C43.8125 34.4837 43.9751 34.3058 44.1674 34.1428C44.33 34.0093 44.5371 33.8907 44.7885 33.7721C45.0398 33.6535 45.3208 33.6091 45.6609 33.6091C46.1341 33.6091 46.489 33.7277 46.7256 33.9352C46.9622 34.1576 47.0657 34.4689 47.0657 34.8692C47.0657 35.1657 46.977 35.4177 46.7995 35.5956C46.6221 35.7735 46.3707 35.8624 46.075 35.8624C46.001 35.8624 45.9419 35.8624 45.8679 35.8624C45.794 35.8624 45.7496 35.8476 45.7053 35.8476C45.6461 35.8328 45.587 35.8328 45.5426 35.8031V33.9352Z" fill="#686868"/>
        <path d="M52.7878 35.6696C52.7878 35.3731 52.7582 35.1063 52.6991 34.8839C52.6399 34.6616 52.566 34.4837 52.4625 34.3502C52.3738 34.202 52.2703 34.0982 52.1372 34.0389C52.0189 33.9796 51.9006 33.9351 51.7823 33.9351C51.5752 33.9351 51.3978 33.9944 51.2499 34.0982C51.1021 34.202 50.969 34.3354 50.8803 34.4688C50.762 34.6319 50.6732 34.8098 50.5845 35.0025V39.9392L51.383 40.1319V40.3246H47.6566V40.1319L48.4551 39.9392V34.0686L47.6566 33.8758V33.6831H48.8544C49.1649 33.6831 49.4163 33.7424 49.6233 33.8462C49.8156 33.95 49.9782 34.0686 50.0965 34.1872C50.2296 34.3354 50.3331 34.4985 50.3923 34.6764C50.5106 34.454 50.6585 34.2465 50.8359 34.0686C50.9838 33.9203 51.1908 33.7869 51.4274 33.6535C51.664 33.5201 51.9745 33.4608 52.3294 33.4608C52.7139 33.4608 53.0688 33.5201 53.3793 33.6535C53.7047 33.7721 53.9708 33.95 54.1926 34.1427C54.4144 34.3502 54.5919 34.5726 54.725 34.8395C54.8581 35.1063 54.9172 35.3731 54.9172 35.6548V39.9243L55.7157 40.117V40.3098H53.9856C53.1871 40.3098 52.7878 39.9095 52.7878 39.109V35.6696Z" fill="#686868"/>
        <path d="M5.27673 49.694V49.1455H15.554V49.694L13.395 50.2425V61.4352H21.1436V50.2425L18.9847 49.694V49.1455H29.2619V49.694L27.1029 50.2425V73.3691L29.2619 73.9176V74.4661H18.9847V73.9028L21.1436 73.3543V62.3395H13.395V73.3543L15.554 73.9028V74.4513H5.27673V73.9028L7.43568 73.3543V50.2277L5.27673 49.694Z" fill="#686868"/>
        <path d="M42.0374 55.8317C43.5309 55.8317 44.8618 56.054 46.0448 56.484C47.2278 56.9139 48.2185 57.5513 49.0466 58.3815C49.8747 59.2117 50.5106 60.2198 50.9394 61.4058C51.3682 62.5917 51.5901 63.926 51.5901 65.4233C51.5901 66.9205 51.3682 68.2548 50.9394 69.4407C50.5106 70.6267 49.8747 71.62 49.0466 72.4502C48.2185 73.2803 47.213 73.9178 46.0448 74.3477C44.8618 74.7776 43.5309 75 42.0374 75C40.5439 75 39.213 74.7776 38.03 74.3477C36.847 73.9178 35.8563 73.2803 35.0282 72.4502C34.2001 71.62 33.5642 70.6119 33.1354 69.4407C32.7066 68.2548 32.4847 66.9205 32.4847 65.4233C32.4847 63.926 32.7066 62.5917 33.1354 61.4058C33.5642 60.2198 34.2001 59.2265 35.0282 58.3815C35.8563 57.5365 36.8618 56.9139 38.03 56.484C39.213 56.054 40.5439 55.8317 42.0374 55.8317ZM42.0374 74.2588C42.4514 74.2588 42.8507 74.1254 43.2648 73.8585C43.6788 73.5917 44.0337 73.1321 44.359 72.465C44.6844 71.7979 44.9505 70.8936 45.1576 69.7521C45.3646 68.6106 45.4681 67.1577 45.4681 65.3936C45.4681 63.6295 45.3646 62.1766 45.1576 61.0351C44.9505 59.8936 44.6844 58.9893 44.359 58.3222C44.0337 57.6551 43.664 57.1955 43.2648 56.9287C42.8655 56.6619 42.4514 56.5284 42.0374 56.5284C41.6234 56.5284 41.2241 56.6619 40.8101 56.9287C40.396 57.1955 40.0411 57.6551 39.7158 58.3222C39.3904 58.9893 39.1243 59.8936 38.9173 61.0351C38.7103 62.1766 38.6067 63.6295 38.6067 65.3936C38.6067 67.1577 38.7103 68.6106 38.9173 69.7521C39.1243 70.8936 39.3904 71.7979 39.7158 72.465C40.0411 73.1321 40.4108 73.5917 40.8101 73.8585C41.2241 74.1254 41.6234 74.2588 42.0374 74.2588Z" fill="#686868"/>
        <path d="M78.6072 61.7914C78.6072 60.9315 78.5333 60.1903 78.3854 59.6121C78.2376 59.034 78.0601 58.5448 77.8235 58.1741C77.5869 57.8035 77.3355 57.5367 77.0693 57.3588C76.7884 57.1957 76.5222 57.1068 76.256 57.1068C75.7976 57.1068 75.3984 57.255 75.0435 57.5515C74.6886 57.848 74.3928 58.189 74.1266 58.5448C73.8457 58.9747 73.5795 59.4639 73.3725 59.9828V73.3546L75.5462 73.9032V74.4517H65.4612V73.9032L67.6202 73.3546V61.7914C67.6202 60.9315 67.5462 60.1903 67.3983 59.6121C67.2505 59.034 67.073 58.5448 66.8364 58.1741C66.5998 57.8035 66.3485 57.5367 66.0823 57.3588C65.8013 57.1957 65.5351 57.1068 65.269 57.1068C64.8105 57.1068 64.4113 57.255 64.0564 57.5515C63.7015 57.848 63.4057 58.189 63.1396 58.5448C62.8438 58.9747 62.5925 59.4639 62.3854 59.9828V73.3546L64.5444 73.9032V74.4517H54.4594V73.9032L56.6183 73.3546V57.4626L54.4594 56.914V56.3655H57.6978C58.5407 56.3655 59.2357 56.5138 59.768 56.7954C60.3152 57.0771 60.7292 57.4033 61.0546 57.7294C61.4095 58.1445 61.6756 58.5892 61.8531 59.0636C62.1636 58.4558 62.5481 57.9221 63.0065 57.4329C63.4205 57.0178 63.9233 56.6472 64.5148 56.3062C65.1211 55.9653 65.8457 55.8022 66.7181 55.8022C68.1525 55.8022 69.4094 56.1283 70.4445 56.7658C71.4945 57.4033 72.293 58.2334 72.8401 59.2415C73.1507 58.6189 73.5352 58.0555 73.9936 57.5367C74.4076 57.1068 74.9104 56.7065 75.5019 56.3507C76.1082 55.9949 76.8327 55.8022 77.7052 55.8022C78.6959 55.8022 79.5832 55.9653 80.4113 56.2766C81.2246 56.5879 81.9344 57.0178 82.5259 57.5663C83.1174 58.1148 83.5758 58.7375 83.9011 59.4639C84.2264 60.1903 84.3891 60.9612 84.3891 61.7765V73.3398L86.5481 73.8883V74.4368H81.8604C79.7015 74.4368 78.622 73.3546 78.622 71.1902V61.7914H78.6072Z" fill="#686868"/>
        <path d="M98.4366 74.9852C95.3608 74.9852 92.9652 74.1402 91.2647 72.4354C89.5641 70.7306 88.7064 68.4031 88.7064 65.4085C88.7064 63.9112 88.9282 62.577 89.3571 61.391C89.7859 60.205 90.3922 59.2117 91.1611 58.3667C91.9301 57.5366 92.8617 56.8991 93.956 56.4692C95.0503 56.0393 96.248 55.8169 97.5345 55.8169C98.8802 55.8169 100.093 56.0096 101.157 56.3951C102.222 56.7805 103.139 57.2994 103.878 57.9517C104.618 58.6039 105.194 59.3748 105.594 60.2495C105.993 61.1241 106.185 62.0581 106.185 63.0513C106.185 63.3923 106.17 63.6888 106.126 63.9408C106.082 64.1929 106.052 64.4152 105.993 64.6079C105.919 64.8451 105.86 65.0527 105.815 65.2158C104.751 65.4381 103.642 65.616 102.459 65.7643C101.453 65.9125 100.285 66.0311 98.9689 66.1497C97.6528 66.2535 96.2628 66.3128 94.8284 66.3128C94.8284 67.8101 94.9319 69.0554 95.1538 70.0486C95.3756 71.0419 95.6713 71.8424 96.0558 72.4354C96.4402 73.0284 96.8986 73.4435 97.431 73.6955C97.9633 73.9475 98.5401 74.0809 99.1611 74.0809C99.8857 74.0809 100.566 73.9475 101.202 73.6807C101.838 73.4138 102.385 73.058 102.858 72.6133C103.331 72.1685 103.701 71.6645 103.982 71.1012C104.263 70.5378 104.396 69.9597 104.396 69.3815H105.298C105.298 70.1079 105.135 70.8047 104.81 71.4718C104.485 72.1537 104.026 72.7467 103.42 73.2656C102.814 73.7844 102.104 74.1995 101.261 74.5108C100.403 74.8222 99.4569 74.9852 98.4366 74.9852ZM94.8284 65.4085C95.6417 65.4085 96.3663 65.3937 96.9874 65.3492C97.6085 65.3047 98.1408 65.2751 98.5696 65.2306C99.0724 65.1861 99.5013 65.1268 99.8709 65.0527C99.9153 64.8155 99.9745 64.5486 100.048 64.2522C100.093 63.9853 100.137 63.6888 100.167 63.3627C100.196 63.0365 100.226 62.6956 100.226 62.3398C100.226 61.2576 100.137 60.3533 99.9744 59.612C99.8118 58.8708 99.59 58.2778 99.3386 57.8182C99.0872 57.3587 98.7915 57.0325 98.4809 56.8398C98.1556 56.6471 97.8302 56.5433 97.5197 56.5433C97.2092 56.5433 96.8839 56.6619 96.5585 56.8843C96.2332 57.1215 95.9523 57.5514 95.7009 58.1888C95.4495 58.8263 95.2425 59.7306 95.065 60.8869C94.9172 62.0433 94.8284 63.5554 94.8284 65.4085Z" fill="#686868"/>
        <path d="M123.885 74.0806V59.419L110.961 49.1603V74.0806H123.885Z" fill="#686868"/>
        <path d="M139.871 74.0806V59.419L127.154 49.1603V74.0806H139.871Z" fill="#686868"/>
        <path d="M292.451 70.095C291.766 69.1809 291.17 68.1784 290.649 67.0726C290.128 65.9669 289.711 64.8464 289.398 63.6964C288.713 58.6395 288.698 53.7299 289.339 48.9678C289.979 44.2057 291.022 39.5174 292.451 34.888C292.689 34.372 293.211 34.1213 294.015 34.1213C294.819 34.1213 295.608 34.2982 296.413 34.6521C297.217 35.0059 297.872 35.4777 298.393 36.0674C298.914 36.6572 299.034 37.2764 298.751 37.9104C298.304 38.8539 297.872 40.1366 297.44 41.7289C297.008 43.3359 296.576 45.1051 296.189 47.0365C295.787 48.9678 295.445 51.0024 295.147 53.1107C294.849 55.219 294.625 57.2536 294.491 59.185C294.357 61.1163 294.328 62.8708 294.402 64.4336C294.477 65.9964 294.715 67.2348 295.117 68.1342C296.993 65.6425 298.706 63.0625 300.27 60.3939C301.833 57.7254 303.293 55.0273 304.663 52.2703C306.033 49.5281 307.343 46.7563 308.58 43.9404C309.816 41.1391 311.037 38.3674 312.228 35.6399C312.824 34.254 313.419 32.7944 314 31.2611C314.581 29.7131 315.341 28.4009 316.309 27.2952C316.711 26.9413 317.023 26.8234 317.232 26.9413C317.455 27.0593 317.604 27.2804 317.679 27.6195C317.753 27.9586 317.798 28.3125 317.798 28.681C317.798 29.0496 317.798 29.3445 317.798 29.5361C317.515 31.3496 317.277 33.1483 317.083 34.9322C316.889 36.7161 316.457 38.4264 315.832 40.0924C314.79 42.7019 313.732 45.282 312.63 47.8621C311.528 50.4274 310.352 52.9633 309.101 55.4549C307.85 57.9465 306.48 60.3644 305.035 62.7086C303.576 65.0675 301.997 67.3085 300.27 69.4316C298.914 71.127 297.559 72.0264 296.234 72.1296C294.849 72.2475 293.613 71.5546 292.451 70.095Z" fill="#686868"/>
        <path d="M317.113 63.4019C316.309 62.2961 315.52 61.1756 314.745 60.0257C313.971 58.8757 313.584 57.6225 313.584 56.2366C313.584 54.7033 314.03 53.2437 314.924 51.8726C315.817 50.5162 316.845 49.4105 318.007 48.5849C318.483 48.2752 318.975 48.0099 319.466 47.8182C319.957 47.6265 320.494 47.6413 321.06 47.8772C321.298 47.9951 321.551 48.0836 321.804 48.1425C322.057 48.2015 322.296 48.2752 322.489 48.349C322.683 48.4227 322.906 48.5406 323.144 48.7028C323.383 48.865 323.502 49.0714 323.502 49.3515C323.502 50.4573 323.532 51.3566 323.591 52.0495C323.651 52.7425 323.74 53.3322 323.859 53.8335C323.978 54.3347 324.098 54.7623 324.217 55.1309C324.336 55.5142 324.455 55.9123 324.574 56.3398C324.649 56.7379 324.634 57.077 324.515 57.3424C324.395 57.6225 324.098 57.652 323.621 57.4603C322.742 57.1507 322.087 56.5168 321.67 55.5584C321.253 54.6001 320.94 53.745 320.747 52.9489C320.702 52.7867 320.613 52.5213 320.449 52.1232C320.285 51.7252 320.196 51.4451 320.151 51.2976C319.838 51.2239 319.451 51.3271 319.019 51.622C318.587 51.9168 318.185 52.3297 317.858 52.8309C317.515 53.3469 317.292 53.9367 317.202 54.6149C317.098 55.2931 317.232 55.9565 317.59 56.6347C317.753 56.8706 317.977 57.1655 318.275 57.4898C318.573 57.8289 318.87 58.168 319.168 58.5218C319.466 58.8757 319.764 59.2295 320.062 59.5539C320.36 59.8782 320.613 60.1584 320.806 60.35C321.045 60.5859 321.208 60.7186 321.283 60.7333C321.357 60.7481 321.566 60.7039 321.879 60.5859C322.281 60.3942 322.891 60.1289 323.71 59.8193C324.529 59.5096 325.393 59.1853 326.287 58.8757C327.18 58.5661 328.044 58.3007 328.863 58.0795C329.682 57.8584 330.308 57.7552 330.754 57.7552C331.037 57.7552 331.231 57.8584 331.35 58.0501C331.469 58.168 331.454 58.3302 331.29 58.5218C331.127 58.7135 330.918 58.9199 330.665 59.1116C330.412 59.3032 330.129 59.4802 329.861 59.6423C329.578 59.8045 329.399 59.893 329.325 59.9372C328.64 60.3353 327.791 60.7776 326.748 61.2788C325.706 61.7654 324.812 62.2519 324.053 62.7237C323.978 62.7974 323.829 62.8859 323.606 62.9596C323.383 63.0333 323.219 63.1218 323.1 63.1955C323.576 64.257 323.919 65.1858 324.112 65.9525C324.306 66.7191 324.38 67.4563 324.321 68.1787C324.261 68.8864 324.112 69.6088 323.874 70.346C323.636 71.0832 323.308 71.9235 322.921 72.8671C322.355 73.7812 321.789 74.651 321.208 75.4767C320.628 76.3023 319.987 77.0542 319.258 77.7324C318.543 78.4106 317.753 78.9413 316.919 79.3247C316.086 79.7227 315.162 79.9144 314.164 79.9144C313.599 79.9144 313.062 79.8407 312.541 79.708C312.02 79.5753 311.588 79.2804 311.231 78.8529C310.307 77.8651 309.801 76.7888 309.682 75.6241C309.563 74.4594 309.667 73.3094 309.98 72.1594C310.218 71.4517 310.516 70.803 310.873 70.1986C311.752 68.6947 312.72 67.4268 313.777 66.38C314.849 65.348 315.951 64.3455 317.113 63.4019ZM319.153 66.0704C318.707 66.5127 318.111 67.1319 317.351 67.9428C316.592 68.7537 315.892 69.6383 315.222 70.5819C314.567 71.5255 314.03 72.469 313.613 73.3979C313.196 74.3267 313.092 75.1228 313.286 75.801C314.09 75.4472 314.909 74.8574 315.743 74.0466C316.577 73.2357 317.322 72.3511 317.962 71.378C318.602 70.405 319.049 69.4466 319.302 68.5031C319.555 67.5448 319.511 66.7339 319.153 66.0704Z" fill="#686868"/>
        <path d="M309.662 86.8023C291.031 86.8023 275.871 71.7936 275.871 53.3497C275.871 34.9058 291.031 19.8971 309.662 19.8971C328.292 19.8971 343.452 34.9058 343.452 53.3497C343.452 71.7936 328.292 86.8023 309.662 86.8023ZM309.662 21.3714C291.85 21.3714 277.36 35.7167 277.36 53.3497C277.36 70.9827 291.85 85.3279 309.662 85.3279C327.473 85.3279 341.963 70.9827 341.963 53.3497C341.963 35.7167 327.473 21.3714 309.662 21.3714Z" fill="#686868"/>
        <path d="M309.5 105.103C338.567 105.103 362.129 81.7756 362.129 53C362.129 24.2244 338.567 0.897095 309.5 0.897095C280.434 0.897095 256.871 24.2244 256.871 53C256.871 81.7756 280.434 105.103 309.5 105.103Z" fill="white" fill-opacity="0.02"/>
        <path d="M316.58 6.57529C316.937 6.60477 317.25 6.61952 317.503 6.61952L317.473 6.85541C317.056 6.91438 316.699 7.22399 316.416 7.81373L312.872 14.8315L312.767 14.8168L312.678 14.8021L310.429 6.97336C310.28 6.45734 310.027 6.17722 309.67 6.13299L309.7 5.89709C310.027 5.95607 310.459 6.0003 310.995 6.05927C311.695 6.11824 312.216 6.16247 312.559 6.16247L312.529 6.39837C312.216 6.38362 311.993 6.39837 311.859 6.4426C311.725 6.48683 311.65 6.60477 311.636 6.75221C311.621 6.8849 311.65 7.07656 311.725 7.3272L313.378 13.313L315.835 8.4182C316.044 8.02013 316.148 7.69578 316.178 7.45989C316.207 7.20925 316.133 7.01759 315.969 6.8849C315.805 6.75221 315.537 6.67849 315.18 6.63426L315.21 6.39837C315.642 6.47208 316.103 6.53106 316.58 6.57529Z" fill="#686868"/>
        <path d="M326.588 9.68612C326.439 9.68612 326.319 9.74509 326.23 9.86304C326.141 9.98098 326.037 10.1726 325.932 10.4528L323.803 16.0552C323.698 16.3354 323.639 16.5565 323.639 16.7039C323.639 16.8514 323.684 16.9693 323.788 17.0578C323.892 17.1462 324.086 17.2494 324.354 17.3674L324.264 17.5885C323.922 17.4411 323.445 17.2494 322.835 17.0135C322.179 16.7629 321.688 16.6007 321.36 16.4975L321.45 16.2764C321.733 16.3648 321.941 16.4091 322.075 16.4091C322.209 16.4091 322.343 16.3501 322.433 16.2322C322.522 16.1142 322.626 15.9225 322.73 15.6424L324.86 10.04C324.964 9.75983 325.024 9.53868 325.024 9.39125C325.024 9.24382 324.979 9.12587 324.875 9.03741C324.771 8.94895 324.577 8.84575 324.309 8.7278L324.398 8.50665C324.711 8.63934 325.188 8.83101 325.843 9.08164C326.453 9.31754 326.945 9.47971 327.302 9.58292L327.213 9.80406C326.945 9.71561 326.736 9.67137 326.588 9.68612Z" fill="#686868"/>
        <path d="M339.842 17.4853C339.693 17.4558 339.544 17.5001 339.41 17.5885C339.276 17.677 339.112 17.8539 338.933 18.1045L334.614 23.8987L334.391 23.7365L334.972 14.4187L331.144 19.5494C330.966 19.8 330.847 20.0064 330.787 20.1686C330.728 20.3308 330.757 20.4782 330.832 20.6256C330.906 20.7731 331.085 20.9352 331.338 21.1417L331.189 21.3333C330.966 21.1417 330.638 20.891 330.206 20.5667C329.819 20.2865 329.506 20.0654 329.268 19.9327L329.417 19.741C329.655 19.9032 329.849 19.9917 329.998 20.0064C330.147 20.0359 330.296 19.9917 330.43 19.9032C330.564 19.8 330.728 19.6378 330.906 19.3872L334.421 14.6693C334.599 14.4187 334.719 14.227 334.763 14.0943C334.808 13.9617 334.793 13.829 334.719 13.711C334.644 13.5931 334.495 13.4456 334.257 13.254L334.406 13.0623C334.599 13.2392 334.897 13.4751 335.299 13.7553C335.597 13.9764 335.85 14.1533 336.089 14.286L335.612 22.1L338.71 17.9424C338.888 17.6917 339.022 17.4853 339.067 17.3231C339.112 17.161 339.097 17.0135 339.022 16.8661C338.948 16.7187 338.769 16.5417 338.516 16.3501L338.665 16.1584C338.888 16.3501 339.216 16.6007 339.648 16.9251C340.035 17.2052 340.348 17.4263 340.586 17.559L340.437 17.7507C340.184 17.6033 339.99 17.5001 339.842 17.4853Z" fill="#686868"/>
        <path d="M344.831 24.1348C345.218 23.8547 345.62 23.5451 346.052 23.1617C346.424 23.722 347.079 24.6508 348.018 25.963C348.956 27.2604 349.626 28.1745 350.028 28.7052C349.522 29.0001 349.09 29.2655 348.703 29.5309C348.375 29.7667 348.107 29.9732 347.913 30.1353L347.749 29.9142C348.226 29.5014 348.554 29.1623 348.747 28.9116C348.941 28.661 349.015 28.3956 349 28.1155C348.986 27.8354 348.807 27.4963 348.524 27.0835L348.137 26.5527L342.492 30.5334C342.224 30.7251 342.031 30.902 341.941 31.0347C341.852 31.1674 341.822 31.3295 341.882 31.5065C341.927 31.6686 342.061 31.9045 342.254 32.1994L342.061 32.3468C341.837 31.993 341.495 31.4917 341.048 30.8872C340.571 30.2238 340.214 29.752 339.976 29.4571L340.169 29.3097C340.393 29.5898 340.571 29.7815 340.72 29.8847C340.869 29.9879 341.018 30.0174 341.182 29.9732C341.346 29.9289 341.569 29.811 341.837 29.6193L347.481 25.6386L347.094 25.1079C346.796 24.695 346.528 24.4444 346.275 24.3265C346.022 24.2085 345.739 24.1938 345.441 24.297C345.143 24.4002 344.711 24.5918 344.16 24.9015L343.997 24.6803C344.22 24.5624 344.488 24.3854 344.831 24.1348Z" fill="#686868"/>
        <path d="M347.69 44.5987L347.451 44.6725C347.362 44.3481 347.243 43.9353 347.064 43.434C346.841 42.7853 346.662 42.2988 346.528 41.9744L346.766 41.9007C346.87 42.1808 346.99 42.3872 347.079 42.4904C347.183 42.5936 347.317 42.6231 347.466 42.5642C347.6 42.5199 347.764 42.4167 347.958 42.2546L349.611 40.9129L348.672 38.1559L347.287 38.0969C346.841 38.0674 346.498 38.0969 346.26 38.1854C346.022 38.2739 345.873 38.4065 345.813 38.5982C345.768 38.7899 345.798 39.07 345.902 39.4091L345.664 39.4828C345.545 39.0405 345.396 38.5982 345.247 38.1559C345.128 37.8168 345.024 37.5367 344.92 37.3155L345.158 37.2418C345.366 37.5957 345.813 37.7873 346.468 37.8021L354.391 38.1559L354.451 38.3328L348.136 43.5372C347.749 43.9058 347.6 44.2449 347.69 44.5987ZM352.857 38.3328L348.955 38.1707L349.834 40.7655L352.857 38.3328Z" fill="#686868"/>
        <path d="M348.777 55.8767C348.926 55.8177 349 55.744 349 55.6408C349 55.5818 348.985 55.5376 348.955 55.4933C348.926 55.4491 348.866 55.3606 348.777 55.2427C348.553 54.9626 348.389 54.6677 348.27 54.3728C348.151 54.078 348.092 53.7389 348.092 53.3703C348.077 52.5447 348.241 51.837 348.568 51.2325C348.911 50.628 349.387 50.171 350.043 49.8466C350.683 49.5223 351.457 49.3601 352.366 49.3454C353.304 49.3306 354.123 49.4781 354.823 49.8024C355.523 50.1268 356.074 50.5691 356.461 51.1588C356.848 51.7485 357.057 52.412 357.057 53.1491C357.057 53.4735 357.027 53.7684 356.967 54.019C356.908 54.2696 356.818 54.4908 356.714 54.6824C356.61 54.8741 356.476 55.0953 356.297 55.3312C356.223 55.4344 356.178 55.5228 356.178 55.5818C356.178 55.7292 356.431 55.8324 356.923 55.8767V56.1568C356.401 56.1273 355.463 56.1273 354.123 56.1568V55.8767C354.555 55.8029 354.912 55.7145 355.195 55.626C355.478 55.5376 355.716 55.4049 355.925 55.2427C356.208 55.0068 356.446 54.6972 356.61 54.3139C356.774 53.9305 356.848 53.5472 356.848 53.1344C356.833 52.6036 356.655 52.1466 356.297 51.7485C355.94 51.3505 355.434 51.0556 354.793 50.8344C354.138 50.628 353.393 50.5248 352.53 50.5396C351.547 50.5543 350.757 50.6723 350.132 50.8934C349.506 51.1146 349.06 51.4389 348.762 51.8665C348.464 52.294 348.33 52.8395 348.345 53.503C348.36 53.9895 348.494 54.4023 348.747 54.7562C348.851 54.9036 348.94 54.9921 349.045 55.0363C349.134 55.0805 349.268 55.0953 349.432 55.0953L350.608 55.0805C350.951 55.0805 351.189 55.0363 351.353 54.9773C351.502 54.9183 351.621 54.8004 351.666 54.6235C351.725 54.4613 351.755 54.1959 351.755 53.8421H351.993C351.979 54.2401 351.964 54.8004 351.979 55.5523C351.993 56.1126 352.008 56.5401 352.038 56.8055H351.8C351.785 56.6138 351.74 56.4811 351.696 56.4074C351.651 56.3337 351.547 56.2747 351.413 56.2452C351.279 56.2158 351.055 56.201 350.742 56.2157L348.33 56.26V56.0241C348.464 55.9651 348.628 55.9356 348.777 55.8767Z" fill="#686868"/>
        <path d="M347.005 68.4235C346.573 68.2908 346.067 68.1581 345.486 68.0402C345.679 67.5242 345.962 66.6543 346.364 65.4159C346.841 63.9416 347.184 62.8211 347.392 62.0692L347.63 62.1429C347.556 62.423 347.526 62.6294 347.526 62.7768C347.541 62.9243 347.601 63.0275 347.72 63.1159C347.839 63.2044 348.047 63.2928 348.33 63.3813L354.094 65.18C354.391 65.2685 354.6 65.3127 354.749 65.3127C354.898 65.3127 355.017 65.2537 355.106 65.1358C355.196 65.0178 355.285 64.8262 355.389 64.5608L355.627 64.6345C355.359 65.3864 355.002 66.4921 354.525 67.9665C354.168 69.087 353.915 69.8979 353.796 70.3844C353.304 70.178 352.857 70.0011 352.441 69.8831C352.143 69.7947 351.89 69.7209 351.711 69.6915L351.8 69.4261C352.321 69.5293 352.723 69.5735 352.992 69.5735C353.26 69.5735 353.483 69.485 353.662 69.3081C353.84 69.1459 353.989 68.8511 354.123 68.453L354.421 67.4947C354.511 67.2146 354.555 67.0082 354.54 66.8755C354.525 66.7428 354.481 66.6248 354.362 66.5364C354.242 66.4479 354.049 66.3595 353.751 66.271L351.011 65.4159L350.773 66.1825C350.653 66.5659 350.683 66.8607 350.877 67.0671C351.07 67.2735 351.279 67.421 351.517 67.5242C351.755 67.6274 351.904 67.7011 351.964 67.7306L351.875 67.996C351.502 67.8485 351.145 67.7158 350.787 67.6126L350.236 67.4505C349.849 67.3325 349.283 67.1703 348.569 67.0082L348.658 66.7428C348.717 66.7575 348.911 66.787 349.239 66.8607C349.566 66.9197 349.849 66.8902 350.073 66.7723C350.296 66.6543 350.445 66.4332 350.549 66.1236L350.787 65.3569L347.988 64.4871C347.69 64.3986 347.481 64.3544 347.332 64.3544C347.184 64.3544 347.064 64.4133 346.99 64.5313C346.901 64.6492 346.811 64.8409 346.722 65.121L346.454 65.9614C346.305 66.4479 346.245 66.8312 346.305 67.1114C346.35 67.4062 346.499 67.6421 346.752 67.8485C347.005 68.0402 347.392 68.2613 347.913 68.4972L347.824 68.7626C347.645 68.6299 347.362 68.5415 347.005 68.4235Z" fill="#686868"/>
        <path d="M342.76 86.5133C342.82 86.3806 342.805 86.2479 342.745 86.1152C342.686 85.9825 342.537 85.8203 342.313 85.5992L337.935 81.4563C337.712 81.2499 337.533 81.1172 337.399 81.0582C337.265 80.9993 337.131 80.9993 336.997 81.0582C336.863 81.1172 336.699 81.2499 336.491 81.4563L336.312 81.2941C336.595 81.0435 336.952 80.6749 337.414 80.2179C337.89 79.7166 338.248 79.3333 338.471 79.0826L338.65 79.2448C338.456 79.466 338.337 79.6429 338.278 79.7608C338.218 79.8935 338.233 80.0262 338.293 80.1589C338.352 80.2916 338.501 80.4538 338.724 80.6749L343.103 84.8178C343.326 85.0242 343.505 85.1569 343.639 85.2159C343.773 85.2748 343.907 85.2748 344.041 85.2159C344.175 85.1569 344.339 85.0242 344.547 84.8178L344.726 84.98C344.473 85.2011 344.101 85.5697 343.624 86.071C343.162 86.5428 342.82 86.9261 342.582 87.2062L342.403 87.044C342.582 86.8229 342.701 86.646 342.76 86.5133Z" fill="#686868"/>
        <path d="M330.355 95.5072C330.444 95.3745 330.459 95.2418 330.429 95.0797C330.4 94.9175 330.295 94.7111 330.132 94.4309L326.438 88.224L326.677 88.0766L335.106 92.2489L331.844 86.7644C331.68 86.499 331.546 86.3074 331.412 86.2042C331.278 86.101 331.129 86.0567 330.966 86.0715C330.802 86.0862 330.578 86.1747 330.295 86.3221L330.161 86.1157C330.429 85.9978 330.787 85.7914 331.249 85.526C331.666 85.2753 331.978 85.0837 332.202 84.9215L332.321 85.1279C332.083 85.2753 331.919 85.4228 331.844 85.5555C331.755 85.6882 331.74 85.8209 331.77 85.983C331.8 86.1452 331.904 86.3516 332.068 86.6317L335.076 91.6887C335.225 91.9541 335.359 92.131 335.478 92.2195C335.597 92.3079 335.716 92.3521 335.865 92.3227C335.999 92.2932 336.208 92.2195 336.461 92.0868L336.58 92.2932C336.342 92.4111 336.014 92.588 335.582 92.8387C335.269 93.0156 335.001 93.1925 334.778 93.3399L327.704 89.8458L330.355 94.2983C330.519 94.5636 330.653 94.7553 330.787 94.8585C330.906 94.9617 331.055 95.0059 331.234 94.9912C331.412 94.9764 331.636 94.888 331.919 94.7406L332.038 94.947C331.77 95.0649 331.412 95.2713 330.951 95.5367C330.534 95.7873 330.221 95.979 329.998 96.1412L329.878 95.9348C330.102 95.7726 330.266 95.6252 330.355 95.5072Z" fill="#686868"/>
        <path d="M322.165 97.438C322.269 97.895 322.403 98.3963 322.582 98.927C321.911 99.045 320.794 99.2809 319.216 99.6052C317.637 99.9443 316.535 100.195 315.88 100.357C315.806 99.7821 315.731 99.2809 315.627 98.8238C315.537 98.4258 315.463 98.1014 315.374 97.8655L315.642 97.8065C315.835 98.411 316.014 98.8386 316.178 99.1187C316.342 99.3988 316.55 99.5757 316.818 99.6642C317.086 99.7527 317.473 99.7379 317.965 99.6347L318.605 99.502L317.146 92.7938C317.071 92.4695 316.997 92.2336 316.893 92.1009C316.788 91.9682 316.669 91.8797 316.491 91.865C316.312 91.8355 316.044 91.865 315.686 91.924L315.642 91.6881C316.059 91.6291 316.654 91.5111 317.399 91.349C318.188 91.172 318.784 91.0394 319.156 90.9362L319.201 91.1721C318.844 91.2605 318.605 91.349 318.456 91.4374C318.307 91.5259 318.218 91.6586 318.188 91.8208C318.159 91.9829 318.173 92.2336 318.248 92.5579L319.707 99.2661L320.348 99.1334C320.839 99.0302 321.197 98.8828 321.405 98.6911C321.614 98.4995 321.733 98.2488 321.762 97.9392C321.792 97.6296 321.777 97.1578 321.703 96.5386L321.971 96.4796C322.016 96.7155 322.075 97.0399 322.165 97.438Z" fill="#686868"/>
        <path d="M302.402 93.2957C302.447 92.8387 302.462 92.3227 302.462 91.7477C303.013 91.8214 303.936 91.9099 305.247 92.0278C306.796 92.1605 307.972 92.2637 308.776 92.3079L308.761 92.5438C308.463 92.5291 308.255 92.5438 308.121 92.588C307.987 92.6323 307.883 92.706 307.823 92.8387C307.764 92.9714 307.719 93.1925 307.689 93.4874L307.153 99.4584C307.123 99.7533 307.138 99.9745 307.168 100.122C307.198 100.269 307.287 100.373 307.421 100.431C307.555 100.49 307.764 100.549 308.046 100.579L308.032 100.815C307.242 100.726 306.066 100.608 304.517 100.476C303.326 100.373 302.477 100.314 301.97 100.284C302.075 99.768 302.149 99.2963 302.179 98.8687C302.209 98.5591 302.224 98.3085 302.209 98.1168L302.492 98.1463C302.507 98.677 302.536 99.0604 302.611 99.3257C302.67 99.5911 302.804 99.7828 303.013 99.9155C303.207 100.048 303.534 100.137 303.951 100.166L304.964 100.255C305.262 100.284 305.47 100.269 305.604 100.24C305.738 100.21 305.842 100.122 305.902 99.9892C305.962 99.8565 306.006 99.6354 306.036 99.3405L306.289 96.5098L305.485 96.4361C305.083 96.4066 304.8 96.495 304.636 96.7309C304.487 96.9668 304.368 97.2027 304.323 97.4533C304.264 97.704 304.234 97.8662 304.219 97.9399L303.936 97.9104C303.996 97.5123 304.04 97.1437 304.085 96.7751L304.13 96.2002C304.16 95.7873 304.189 95.2271 304.219 94.4899L304.502 94.5194C304.502 94.5784 304.517 94.7701 304.517 95.1092C304.532 95.4483 304.606 95.7136 304.785 95.8905C304.949 96.0822 305.202 96.1854 305.53 96.2149L306.334 96.2886L306.587 93.3989C306.617 93.1041 306.602 92.8829 306.572 92.7355C306.542 92.6028 306.453 92.4996 306.319 92.4406C306.185 92.3816 305.976 92.3374 305.694 92.3079L304.8 92.2342C304.294 92.19 303.906 92.2195 303.623 92.3374C303.355 92.4406 303.147 92.647 302.998 92.9271C302.849 93.2073 302.73 93.6348 302.611 94.1951L302.328 94.1656C302.328 93.9444 302.358 93.6496 302.402 93.2957Z" fill="#686868"/>
        <path d="M290.682 87.826C290.906 87.7818 291.159 87.826 291.427 87.944C291.74 88.0767 291.948 88.2683 292.067 88.519C292.186 88.7843 292.201 89.1529 292.127 89.6395L291.903 90.8484C291.829 91.276 291.784 91.6003 291.769 91.851C291.755 92.0868 291.814 92.308 291.918 92.4997C292.023 92.6913 292.216 92.8388 292.499 92.9567L293.571 93.399L294.659 90.8337C294.778 90.5535 294.837 90.3471 294.852 90.1997C294.867 90.0523 294.807 89.9343 294.703 89.8311C294.599 89.7279 294.42 89.6247 294.152 89.5068L294.242 89.2856C294.584 89.4478 295.046 89.6542 295.656 89.9048C296.297 90.1702 296.788 90.3619 297.116 90.4651L297.026 90.6862C296.743 90.583 296.535 90.5388 296.401 90.5241C296.252 90.5241 296.133 90.5683 296.043 90.6862C295.939 90.7894 295.835 90.9811 295.716 91.2612L293.378 96.79C293.259 97.0701 293.199 97.2765 293.184 97.4239C293.169 97.5714 293.229 97.6893 293.333 97.7925C293.437 97.8957 293.616 97.9989 293.884 98.1316L293.795 98.3528C293.482 98.2053 293.035 97.9989 292.44 97.7483C292.142 97.6303 291.829 97.4976 291.472 97.3502C291.114 97.2028 290.876 97.1143 290.742 97.0553C290.161 96.8047 289.699 96.5246 289.357 96.1855C289.014 95.8464 288.821 95.4926 288.731 95.1092C288.642 94.7259 288.687 94.3573 288.851 93.9887C288.97 93.6939 289.163 93.4285 289.431 93.1926C289.699 92.9567 290.042 92.7798 290.459 92.6913C290.876 92.6029 291.382 92.6176 291.933 92.7503L291.799 92.6766C291.486 92.4849 291.248 92.2933 291.099 92.0868C290.95 91.8952 290.846 91.674 290.816 91.4381C290.772 91.2022 290.787 90.9074 290.846 90.5535L291.055 89.3004C291.099 89.0497 291.129 88.8581 291.129 88.7106C291.129 88.5632 291.114 88.4452 291.069 88.3568C291.025 88.2683 290.95 88.1946 290.846 88.1651C290.727 88.1062 290.608 88.1062 290.504 88.1356C290.399 88.1651 290.25 88.2388 290.057 88.342L289.938 88.1504C290.206 87.9882 290.459 87.8703 290.682 87.826ZM291.427 93.0746C291.069 93.1189 290.787 93.2516 290.563 93.4727C290.34 93.6939 290.146 93.9887 289.982 94.3721C289.729 94.9765 289.67 95.5073 289.833 95.9348C289.997 96.3624 290.399 96.7162 291.069 96.9964C291.308 97.0996 291.486 97.1438 291.635 97.1291C291.769 97.1291 291.889 97.0701 291.993 96.9521C292.097 96.8342 292.201 96.6425 292.306 96.3772L293.467 93.6349L292.708 93.3253C292.216 93.1189 291.784 93.0304 291.427 93.0746Z" fill="#686868"/>
        <path d="M279.066 89.8309C279.2 89.8751 279.334 89.8456 279.453 89.7719C279.572 89.6982 279.736 89.536 279.93 89.3001L283.668 84.5822C283.861 84.3463 283.98 84.1547 284.025 84.022C284.07 83.8893 284.055 83.7566 283.98 83.6387C283.906 83.5207 283.757 83.3585 283.534 83.1669L283.683 82.9752C283.966 83.2259 284.353 83.5502 284.874 83.9483C285.425 84.3758 285.842 84.6854 286.125 84.8771L285.976 85.0688C285.738 84.8919 285.544 84.7886 285.41 84.7592C285.276 84.7149 285.142 84.7297 285.023 84.8181C284.904 84.8919 284.74 85.054 284.546 85.2899L280.808 90.0078C280.615 90.2437 280.496 90.4353 280.451 90.568C280.406 90.7007 280.421 90.8334 280.496 90.9514C280.57 91.0693 280.719 91.2315 280.942 91.4231L280.794 91.6148C280.54 91.3937 280.138 91.0693 279.587 90.627C279.066 90.2289 278.649 89.9193 278.351 89.7129L278.5 89.5213C278.753 89.6834 278.932 89.7866 279.066 89.8309Z" fill="#686868"/>
        <path d="M269.446 79.3337C269.386 78.6702 269.535 78.0068 269.878 77.3728C270.235 76.7241 270.771 76.1491 271.516 75.6036C272.246 75.0876 272.975 74.7485 273.735 74.6158C274.494 74.4831 275.194 74.5274 275.85 74.778C276.505 75.0286 277.056 75.4562 277.488 76.0607C277.949 76.6799 278.203 77.3286 278.262 77.992C278.322 78.6555 278.173 79.3189 277.83 79.9529C277.473 80.6016 276.937 81.1766 276.192 81.7221C275.462 82.2381 274.733 82.5772 273.973 82.7099C273.229 82.8426 272.514 82.7984 271.858 82.5477C271.203 82.2971 270.652 81.8695 270.22 81.2798C269.759 80.6458 269.505 79.9971 269.446 79.3337ZM271.68 81.958C272.201 82.0612 272.797 82.017 273.452 81.8106C274.107 81.6041 274.762 81.2651 275.447 80.7638C276.133 80.2772 276.669 79.7465 277.041 79.1862C277.428 78.626 277.637 78.0658 277.666 77.535C277.711 77.0042 277.577 76.5324 277.294 76.1344C276.981 75.7216 276.579 75.4562 276.043 75.353C275.522 75.2498 274.926 75.294 274.271 75.5004C273.616 75.7068 272.96 76.0459 272.275 76.5324C271.59 77.019 271.054 77.5497 270.682 78.1247C270.295 78.685 270.086 79.2305 270.042 79.776C269.997 80.3067 270.131 80.7785 270.414 81.1766C270.727 81.5894 271.144 81.8548 271.68 81.958Z" fill="#686868"/>
        <path d="M270.593 61.583C270.771 61.7157 270.905 61.9368 270.995 62.2317C271.099 62.5413 271.084 62.8361 270.965 63.0868C270.846 63.3522 270.563 63.6028 270.131 63.8534L269.044 64.4579C268.671 64.6791 268.388 64.856 268.195 65.0034C268.001 65.1509 267.867 65.3278 267.793 65.5342C267.718 65.7406 267.718 65.9765 267.808 66.2713L268.15 67.3771L270.831 66.5515C271.129 66.463 271.322 66.3745 271.441 66.2861C271.561 66.1976 271.62 66.0797 271.635 65.947C271.65 65.8143 271.605 65.5931 271.531 65.313L271.769 65.2393C271.858 65.5931 271.992 66.0944 272.201 66.7136C272.409 67.3771 272.573 67.8636 272.692 68.1732L272.454 68.2469C272.35 67.9668 272.26 67.7752 272.171 67.672C272.082 67.5688 271.963 67.495 271.814 67.495C271.665 67.495 271.441 67.5245 271.158 67.6277L265.38 69.3969C265.082 69.4854 264.889 69.5738 264.77 69.6623C264.651 69.7508 264.591 69.8687 264.576 70.0014C264.561 70.1488 264.606 70.3552 264.68 70.6354L264.442 70.7091C264.368 70.3847 264.234 69.9129 264.04 69.2937C263.951 68.9989 263.831 68.6598 263.712 68.3059C263.593 67.9521 263.504 67.7014 263.459 67.5688C263.266 66.9643 263.206 66.4335 263.251 65.9617C263.295 65.4899 263.444 65.1066 263.683 64.797C263.921 64.4874 264.234 64.281 264.621 64.163C264.919 64.0746 265.246 64.0451 265.604 64.0893C265.961 64.1336 266.304 64.281 266.661 64.5464C267.018 64.8118 267.316 65.1951 267.569 65.7111L267.555 65.5637C267.51 65.1951 267.495 64.9002 267.555 64.6496C267.614 64.3989 267.718 64.1925 267.867 64.0156C268.031 63.8387 268.269 63.647 268.582 63.4701L269.684 62.8214C269.907 62.7035 270.086 62.5855 270.19 62.4971C270.295 62.4086 270.384 62.3201 270.429 62.2317C270.473 62.1432 270.473 62.04 270.444 61.9368C270.399 61.8041 270.339 61.7157 270.25 61.6567C270.161 61.5977 270.012 61.524 269.803 61.4503L269.878 61.2291C270.176 61.3323 270.429 61.4503 270.593 61.583ZM267.033 65.5342C266.78 65.2983 266.482 65.1656 266.17 65.1361C265.857 65.1066 265.499 65.1508 265.097 65.2835C264.457 65.4752 264.025 65.7848 263.787 66.1829C263.548 66.581 263.548 67.1265 263.757 67.7899C263.831 68.0258 263.921 68.2027 264.01 68.3059C264.1 68.4091 264.234 68.4681 264.382 68.4681C264.531 68.4681 264.755 68.4239 265.023 68.3502L267.882 67.4655L267.644 66.6842C267.495 66.1534 267.286 65.7701 267.033 65.5342Z" fill="#686868"/>
        <path d="M269.446 47.5915C270.012 47.3409 270.354 46.8691 270.503 46.1614C270.548 45.8961 270.548 45.6307 270.473 45.38C270.399 45.1294 270.265 44.9082 270.056 44.7166C269.848 44.5249 269.565 44.3922 269.193 44.3333C268.88 44.2743 268.597 44.3038 268.329 44.407C268.061 44.5102 267.793 44.6724 267.54 44.8935C267.287 45.1147 266.989 45.4095 266.661 45.7781C266.289 46.1909 265.961 46.53 265.678 46.7659C265.395 47.0165 265.082 47.1935 264.74 47.3262C264.397 47.4588 264.01 47.4736 263.578 47.3999C263.132 47.3114 262.759 47.1492 262.491 46.8839C262.223 46.6185 262.03 46.3089 261.94 45.9403C261.851 45.5717 261.851 45.1884 261.925 44.7756C261.97 44.5249 262.03 44.3333 262.104 44.1563C262.178 43.9794 262.253 43.8467 262.342 43.7435C262.432 43.6403 262.521 43.5224 262.64 43.4044C262.789 43.2423 262.864 43.1243 262.893 43.0358C262.908 42.9621 262.878 42.9032 262.804 42.8442C262.73 42.7852 262.595 42.741 262.417 42.682L262.461 42.4166C262.923 42.5346 263.727 42.7115 264.904 42.9326L264.859 43.198C264.442 43.1538 264.055 43.1685 263.668 43.257C263.295 43.3307 262.968 43.4929 262.7 43.7435C262.432 43.9794 262.253 44.3185 262.178 44.7313C262.119 45.0114 262.134 45.2621 262.208 45.5127C262.283 45.7634 262.417 45.955 262.595 46.1172C262.789 46.2794 263.012 46.3826 263.281 46.4416C263.712 46.5153 264.085 46.4563 264.397 46.2499C264.71 46.0435 265.008 45.7781 265.291 45.4685C265.574 45.1589 265.753 44.9525 265.857 44.8493C266.274 44.407 266.616 44.0679 266.899 43.8172C267.182 43.5666 267.495 43.3897 267.838 43.2717C268.18 43.1538 268.552 43.139 268.954 43.2128C269.446 43.3012 269.848 43.4929 270.146 43.773C270.444 44.0679 270.637 44.407 270.742 44.8198C270.846 45.2326 270.846 45.6749 270.756 46.1467C270.682 46.53 270.593 46.8249 270.459 47.0608C270.339 47.2967 270.176 47.5031 269.997 47.6947C269.848 47.8569 269.774 47.9749 269.744 48.0633C269.729 48.137 269.759 48.196 269.833 48.255C269.908 48.314 270.042 48.3729 270.22 48.4172L270.176 48.6825C269.744 48.5646 268.791 48.3729 267.316 48.1075L267.361 47.8422C268.195 47.9159 268.88 47.8422 269.446 47.5915Z" fill="#686868"/>
        <path d="M266.497 35.1626C266.08 34.9415 265.604 34.7351 265.068 34.5287C265.395 33.9537 265.946 32.9511 266.691 31.521C267.435 30.1057 267.957 29.1031 268.24 28.4987C268.731 28.8083 269.178 29.0736 269.58 29.2801C269.937 29.4717 270.25 29.6044 270.488 29.7076L270.354 29.9582C269.759 29.7224 269.312 29.5749 268.999 29.5307C268.686 29.4717 268.403 29.5307 268.165 29.6781C267.927 29.8256 267.689 30.1204 267.465 30.5627L267.167 31.1525L273.318 34.3223C273.616 34.4844 273.854 34.5582 274.018 34.5729C274.182 34.5876 274.33 34.5434 274.465 34.4255C274.599 34.3075 274.747 34.0864 274.926 33.7768L275.15 33.8947C274.926 34.2633 274.643 34.7793 274.286 35.4575C273.913 36.1652 273.645 36.7107 273.482 37.0498L273.258 36.9318C273.407 36.6075 273.511 36.3568 273.526 36.1947C273.556 36.0178 273.511 35.8703 273.392 35.7376C273.273 35.6049 273.08 35.4722 272.782 35.3101L266.631 32.1255L266.318 32.7005C266.08 33.1428 265.976 33.4966 265.991 33.7768C266.006 34.0569 266.125 34.3075 266.348 34.5287C266.572 34.7498 266.944 35.0447 267.48 35.3838L267.346 35.6344C267.152 35.5165 266.855 35.3543 266.497 35.1626Z" fill="#686868"/>
        <path d="M277.011 18.2226C277.264 17.972 277.473 17.7361 277.621 17.5591L277.8 17.7361C277.711 17.8688 277.666 18.0604 277.681 18.2816C277.696 18.5027 277.755 18.8123 277.875 19.1809L279.23 23.1763L280.808 24.7244C281.032 24.9308 281.196 25.0782 281.33 25.1372C281.464 25.1962 281.598 25.1962 281.732 25.1372C281.866 25.0782 282.03 24.9455 282.253 24.7539L282.432 24.9308C282.149 25.1814 281.776 25.5353 281.315 25.9923C280.823 26.4789 280.466 26.8622 280.243 27.1128L280.064 26.9359C280.257 26.7147 280.391 26.5526 280.451 26.4199C280.511 26.2872 280.511 26.1545 280.436 26.0218C280.377 25.8891 280.228 25.7122 280.019 25.5058L278.709 24.2231L273.735 22.7783C273.437 22.6898 273.213 22.6603 273.064 22.6751C272.916 22.6898 272.811 22.734 272.737 22.8078L272.558 22.6308C272.796 22.4244 273.064 22.1885 273.333 21.9084C273.884 21.3482 274.286 20.9501 274.509 20.6847L274.688 20.8616C274.286 21.2597 274.196 21.5693 274.42 21.7905C274.509 21.8789 274.628 21.9379 274.807 21.9969L278.992 23.2796L277.89 20.0213C277.726 19.5495 277.562 19.2251 277.383 19.063C277.219 18.9008 277.041 18.8566 276.847 18.9155C276.653 18.9745 276.43 19.1219 276.162 19.3726L275.983 19.1957C276.341 18.8713 276.668 18.5469 277.011 18.2226Z" fill="#686868"/>
        <path d="M286.021 12.2808C285.932 12.384 285.887 12.5167 285.917 12.6641C285.947 12.8115 286.021 13.0179 286.17 13.2833L289.044 18.5614C289.193 18.8268 289.312 19.0037 289.432 19.1069C289.536 19.2101 289.67 19.2396 289.804 19.2249C289.938 19.2101 290.146 19.1217 290.4 18.989L291.189 18.5614C291.636 18.3255 291.948 18.0749 292.112 17.8243C292.276 17.5736 292.335 17.2935 292.291 16.9544C292.246 16.6153 292.112 16.1878 291.874 15.6275L292.127 15.4948C292.231 15.7307 292.38 16.0256 292.574 16.3794C292.797 16.7775 293.065 17.2198 293.393 17.7063C292.901 17.9422 292.067 18.3698 290.921 18.989C289.551 19.7261 288.508 20.2864 287.823 20.6845L287.704 20.4781C287.957 20.3306 288.136 20.1979 288.225 20.0947C288.315 19.9915 288.359 19.8588 288.329 19.7114C288.3 19.564 288.225 19.3576 288.076 19.0922L285.172 13.8141C285.023 13.5487 284.904 13.3718 284.785 13.2686C284.681 13.1654 284.547 13.1359 284.413 13.1506C284.264 13.1654 284.07 13.2391 283.802 13.3718L283.698 13.1506C284.011 13.0179 284.472 12.782 285.083 12.4429C285.664 12.1333 286.111 11.8827 286.423 11.691L286.542 11.8974C286.289 12.0449 286.125 12.1776 286.021 12.2808Z" fill="#686868"/>
        <path d="M304.16 13.2242C304.249 13.6665 304.383 14.1678 304.547 14.728C303.996 14.8165 303.088 14.9787 301.807 15.2293C300.273 15.5242 299.126 15.7601 298.337 15.937L298.292 15.7011C298.575 15.6274 298.784 15.5684 298.903 15.48C299.022 15.4062 299.097 15.2883 299.111 15.1556C299.126 15.0082 299.111 14.787 299.052 14.4922L297.89 8.60957C297.831 8.3147 297.771 8.1083 297.682 7.97561C297.592 7.84292 297.503 7.7692 297.354 7.75446C297.22 7.72497 296.997 7.73971 296.714 7.78394L296.669 7.54805C297.458 7.41536 298.62 7.20895 300.139 6.91409C301.315 6.67819 302.149 6.51602 302.626 6.39807C302.671 6.92883 302.745 7.40062 302.82 7.81343C302.879 8.12304 302.939 8.35893 302.998 8.53585L302.73 8.59483C302.566 8.09355 302.417 7.72497 302.283 7.48908C302.149 7.25318 301.956 7.10575 301.732 7.03203C301.494 6.95832 301.181 6.95832 300.75 7.04678L299.752 7.23844C299.469 7.29741 299.26 7.35639 299.141 7.4301C299.022 7.50382 298.948 7.60702 298.918 7.75446C298.903 7.90189 298.918 8.12304 298.977 8.41791L299.528 11.2191L300.318 11.057C300.72 10.9832 300.958 10.8063 301.047 10.5409C301.137 10.2756 301.167 10.0249 301.152 9.77429C301.137 9.52365 301.122 9.36148 301.122 9.28776L301.39 9.22879C301.435 9.62686 301.494 9.99544 301.569 10.3493L301.688 10.9095C301.762 11.3076 301.896 11.8678 302.09 12.5755L301.822 12.6345C301.807 12.5755 301.747 12.3986 301.643 12.0742C301.539 11.7499 301.39 11.5287 301.167 11.3961C300.943 11.2634 300.69 11.2339 300.362 11.2929L299.573 11.4403L300.139 14.2857C300.199 14.5806 300.258 14.787 300.333 14.9197C300.407 15.0377 300.511 15.1114 300.66 15.1409C300.794 15.1556 301.018 15.1409 301.301 15.0819L302.179 14.905C302.671 14.8018 303.043 14.6691 303.281 14.4922C303.519 14.3152 303.654 14.0646 303.713 13.755C303.773 13.4454 303.773 13.0031 303.728 12.4281L303.996 12.3691C304.041 12.5903 304.085 12.8704 304.16 13.2242Z" fill="#686868"/>
        <path d="M515.337 75H487.432C482.846 75 479.129 71.3261 479.129 66.7928V39.2072C479.129 34.6739 482.846 31 487.432 31H515.337C519.922 31 523.639 34.6739 523.639 39.2072V66.7928C523.639 71.3261 519.922 75 515.337 75Z" fill="#686868"/>
        <path d="M509.403 53.4048C510.197 54.3887 510.6 55.5344 510.6 56.8297C510.6 58.7351 509.957 60.2296 508.672 61.2882C507.387 62.3468 505.548 62.8948 503.154 62.8948H492.698V40.6644H502.902C505.195 40.6644 506.959 41.1625 508.206 42.1464C509.453 43.1303 510.083 44.5376 510.083 46.3558C510.083 47.7009 509.718 48.8093 509 49.706C508.282 50.6027 507.337 51.1755 506.165 51.4495C507.538 51.7733 508.609 52.4209 509.403 53.4048ZM498.128 49.7558H501.693C503.583 49.7558 504.527 48.9587 504.527 47.3646C504.527 45.7705 503.557 44.9735 501.63 44.9735H498.128V49.7558ZM505.031 56.0824C505.031 55.2854 504.767 54.6627 504.238 54.2143C503.709 53.766 502.953 53.5418 501.983 53.5418H498.14V58.5359H502.02C504.024 58.5234 505.031 57.7139 505.031 56.0824Z" fill="white"/>
        <path d="M549.427 62.8948L544.564 54.5008H543.33V62.8948H537.887V40.6644H547.172C548.948 40.6644 550.46 40.9633 551.682 41.5735C552.917 42.1838 553.836 43.0182 554.454 44.0768C555.071 45.1354 555.373 46.3434 555.373 47.7133C555.373 49.3324 554.92 50.7023 554.025 51.8356C553.118 52.9689 551.821 53.7411 550.095 54.1645L555.436 62.9072H549.427V62.8948ZM543.33 50.8268H546.693C547.777 50.8268 548.57 50.5902 549.074 50.117C549.578 49.6437 549.843 48.9463 549.843 48.0247C549.843 47.1405 549.578 46.4555 549.062 45.9449C548.545 45.4467 547.752 45.1852 546.693 45.1852H543.33V50.8268Z" fill="#686868"/>
        <path d="M579.991 58.8468H571.563L570.164 62.9068H564.445L572.684 40.8383H578.945L587.185 62.9068H581.402L579.991 58.8468ZM578.593 54.7494L575.796 46.5796L572.961 54.7494H578.593Z" fill="#686868"/>
        <path d="M617.205 62.8948H611.763L602.667 49.2452V62.8948H597.224V40.6644H602.667L611.763 54.4385V40.6644H617.205V62.8948Z" fill="#686868"/>
        <path d="M647.718 57.5395C646.773 59.2208 645.412 60.541 643.649 61.4875C641.872 62.434 639.794 62.9072 637.4 62.9072H628.909V40.6768H637.4C639.819 40.6768 641.91 41.1376 643.661 42.0592C645.425 42.9808 646.773 44.276 647.718 45.9573C648.663 47.6386 649.129 49.5565 649.129 51.7484C649.129 53.9154 648.65 55.8458 647.718 57.5395ZM641.86 56.4187C643.031 55.3103 643.623 53.7411 643.623 51.736C643.623 49.7184 643.031 48.1617 641.86 47.0533C640.688 45.9449 639.038 45.3844 636.909 45.3844H634.339V58.0875H636.909C639.038 58.0875 640.688 57.5395 641.86 56.4187Z" fill="#686868"/>
        <path d="M787.251 39.8163L788.369 39.5882C788.652 39.5882 788.89 39.6452 789.054 39.7593C789.218 39.8733 789.307 39.9873 789.307 40.0871C789.307 40.1869 789.277 40.3437 789.233 40.529C789.188 40.7143 788.771 42.6244 787.996 46.2307C787.222 49.8371 786.656 52.5311 786.298 54.2987C788.026 52.0465 790.052 49.2811 792.361 45.9884C794.67 42.6957 796.025 40.5148 796.412 39.4314C796.532 39.0893 796.695 38.8327 796.889 38.6474C797.083 38.4621 797.261 38.3481 797.41 38.3196C797.559 38.2911 797.798 38.2626 798.111 38.2626C798.423 38.2626 798.796 38.3338 799.228 38.4621C799.66 38.5904 799.883 38.8042 799.883 39.1178C799.883 39.688 798.989 41.3558 797.217 44.0926C795.444 46.8294 793.403 49.7373 791.109 52.8162C788.815 55.8951 786.909 58.3326 785.375 60.1287C785.106 60.4423 784.764 60.6133 784.376 60.6133C783.989 60.6133 783.572 60.542 783.14 60.4138C782.708 60.2855 782.485 60.0574 782.485 59.7153C782.485 58.6462 783.468 53.4862 785.434 44.2636C783.751 46.3448 781.71 49.2526 779.312 52.973C776.809 56.8217 775.394 59.2164 775.067 60.1287C774.888 60.6846 774.679 61.0124 774.441 61.098C774.277 61.1692 774.098 61.1977 773.92 61.1977L772.713 61.326C772.475 61.326 772.266 61.269 772.058 61.1407C771.864 61.0124 771.76 60.8841 771.76 60.7416C771.76 60.3567 772.326 59.1879 773.443 57.2493C774.56 55.3107 775.886 53.2011 777.39 50.9204C778.895 48.6397 780.459 46.4303 782.097 44.2779C783.736 42.1255 785.002 40.6716 785.896 39.9446C786.075 39.7878 786.283 39.7165 786.522 39.7165L787.251 39.8163Z" fill="#686868"/>
        <path d="M805.156 49.4807C805.93 49.4807 806.317 49.7372 806.317 50.2361C806.317 50.507 806.258 50.7065 806.124 50.8348C805.99 50.9631 805.707 51.3765 805.275 52.1035C804.843 52.8162 804.366 53.7284 803.845 54.8545C803.323 55.9664 802.981 56.9214 802.832 57.7054C802.802 57.8052 802.787 57.9335 802.787 58.1188C802.787 58.6604 802.936 58.917 803.249 58.917C803.562 58.917 803.919 58.7745 804.336 58.5036C804.753 58.2186 805.126 57.9335 805.453 57.6056C805.781 57.292 806.094 56.9642 806.407 56.6363C806.72 56.3085 806.898 56.1089 806.958 56.0662C807.018 56.0234 807.107 55.9949 807.226 55.9949C807.42 55.9949 807.539 56.1374 807.584 56.4225C807.628 56.7076 807.643 56.9927 807.643 57.3063C807.643 57.6199 807.613 57.8194 807.554 57.9335C807.256 58.4894 806.615 59.1593 805.602 59.9433C804.604 60.7273 803.681 61.1122 802.862 61.1122C802.042 61.1122 801.432 60.8698 801.059 60.3995C800.687 59.9291 800.478 59.3874 800.478 58.8172C800.478 58.2328 800.582 57.7339 800.791 57.292C799.942 58.3468 798.974 59.2306 797.886 59.9718C796.784 60.6988 795.905 61.0694 795.205 61.0694C794.505 61.0694 793.954 60.8699 793.507 60.4707C792.941 59.9718 792.673 59.2876 792.673 58.4039C792.673 57.5201 792.881 56.6363 793.298 55.7383C793.715 54.8545 794.252 54.0278 794.922 53.3008C795.592 52.5596 796.337 51.8896 797.142 51.291C798.825 50.0223 800.389 49.3951 801.819 49.3951C802.37 49.3951 802.817 49.4807 803.159 49.6517C803.502 49.8228 803.726 50.0508 803.815 50.3074C804.053 49.9511 804.262 49.7372 804.441 49.6375C804.575 49.5234 804.828 49.4807 805.156 49.4807ZM803.13 51.1057C801.387 51.1057 799.584 52.0322 797.722 53.8852C797.067 54.5552 796.456 55.3392 795.89 56.2657C795.324 57.1922 795.056 57.8194 795.056 58.1615C795.056 58.5036 795.16 58.6747 795.369 58.6747C795.652 58.6747 796.441 58.133 797.752 57.064C799.063 55.9949 799.927 55.1966 800.344 54.6835C800.821 54.1133 801.744 52.916 803.13 51.1057Z" fill="#686868"/>
        <path d="M816.746 41.7549L817.372 41.8975C817.461 41.8975 817.55 41.9403 817.61 42.0258C817.684 42.1113 817.714 42.1968 817.714 42.2681C817.714 42.3394 817.61 42.5532 817.386 42.8953C817.163 43.2374 816.925 43.6223 816.627 44.0499C816.329 44.4775 816.18 44.7198 816.165 44.7626C816.954 44.7056 817.521 44.6771 817.848 44.6771C818.176 44.6771 818.399 44.7056 818.533 44.7483C818.653 44.7911 818.802 44.9194 818.951 45.119C819.114 45.3185 819.248 45.4753 819.383 45.5751C819.517 45.6749 819.576 45.8317 819.576 46.0312C819.576 46.2308 819.442 46.4161 819.189 46.5444C818.936 46.6869 818.653 46.7725 818.355 46.801C815.986 47.029 814.69 47.1431 814.452 47.1573C813.633 48.3689 812.471 50.2505 810.996 52.802C809.521 55.3535 808.732 56.9643 808.643 57.6057C808.598 57.9051 808.583 58.1331 808.583 58.3184C808.583 58.7033 808.792 58.8886 809.209 58.8886C809.626 58.8886 810.087 58.7318 810.594 58.4325C811.1 58.1189 811.577 57.791 811.994 57.4347C813.141 56.4654 813.752 55.9665 813.826 55.9665C814.094 55.9665 814.229 56.4084 814.229 57.2779C814.229 57.7483 814.005 58.1759 813.543 58.5608C812.515 59.4018 811.652 60.0432 810.951 60.4708C810.251 60.8985 809.551 61.1123 808.836 61.1123C808.687 61.1123 808.538 61.098 808.404 61.0695C807.585 60.927 806.989 60.6419 806.617 60.2143C806.229 59.7866 806.051 59.2165 806.051 58.5037C806.051 57.791 806.274 56.9073 806.721 55.881C807.168 54.8546 807.719 53.7571 808.389 52.6025C809.492 50.7066 810.594 48.9391 811.681 47.2856L811.1 47.3569C809.924 47.4852 809.238 47.5422 809.045 47.5422H808.911C808.613 47.5422 808.33 47.4852 808.062 47.3711C807.793 47.2571 807.645 47.1146 807.645 46.9578C807.645 46.7867 807.719 46.6299 807.868 46.4731C808.017 46.3163 808.106 46.188 808.136 46.1025C808.211 45.8887 808.479 45.6464 808.94 45.3898C809.402 45.1332 809.745 44.9907 809.983 44.9764C810.222 44.9622 810.445 44.9479 810.668 44.9337C810.892 44.9194 811.13 44.9194 811.398 44.9051C811.666 44.8909 811.875 44.8909 812.024 44.8766L813.394 44.8196C814.243 43.5937 814.839 42.7955 815.152 42.4534C815.48 42.097 815.659 41.9117 815.703 41.8832C815.748 41.8547 815.852 41.8262 816.016 41.8262L816.746 41.7549Z" fill="#686868"/>
        <path d="M825.906 55.9946C826.1 55.9946 826.219 56.1372 826.264 56.4222C826.308 56.7073 826.323 56.9924 826.323 57.306C826.323 57.6196 826.294 57.8192 826.234 57.9332C825.936 58.4749 825.296 59.1448 824.298 59.9288C823.3 60.7128 822.346 61.1119 821.452 61.1119C820.901 61.1119 820.395 60.9551 819.918 60.6415C819.456 60.3279 819.218 59.772 819.218 58.988C819.218 58.204 819.441 57.42 819.873 56.6646C817.341 59.7007 815.375 61.2117 813.93 61.2117C813.364 61.2117 812.902 61.0121 812.545 60.6273C812.187 60.2424 812.023 59.8433 812.023 59.4156C812.023 59.0023 812.083 58.5746 812.202 58.1328C812.321 57.6909 812.455 57.2918 812.589 56.9354C812.723 56.579 812.932 56.1514 813.2 55.6383C813.468 55.1251 813.677 54.7545 813.796 54.5122C813.915 54.2698 814.139 53.9277 814.436 53.4573C814.734 52.987 815.107 52.3455 815.583 51.5473C816.06 50.749 816.447 50.1504 816.76 49.7655C817.073 49.3806 817.371 49.1811 817.669 49.1811C817.967 49.1811 818.22 49.2951 818.443 49.5232C818.667 49.7512 818.786 49.9508 818.786 50.0933C818.786 50.2359 818.443 50.8916 817.758 52.0604C815.747 55.5527 814.734 57.5768 814.734 58.1613C814.734 58.3038 814.794 58.3751 814.898 58.3751C815.39 58.3751 816.611 57.363 818.548 55.3389C820.484 53.3148 821.616 52.0177 821.929 51.4475C822.242 50.8773 822.525 50.3927 822.823 50.0078C823.106 49.6229 823.329 49.3806 823.478 49.2951C823.91 49.0243 824.476 48.8817 825.176 48.8532C825.296 48.8532 825.37 48.8532 825.43 48.8675C825.489 48.8817 825.564 48.9672 825.638 49.1098C825.713 49.2523 825.757 49.3806 825.757 49.4804C825.668 49.7512 825.266 50.4782 824.536 51.6613C823.821 52.8444 823.419 53.5144 823.344 53.6569C822.138 56.0374 821.542 57.5911 821.542 58.3038C821.542 58.7172 821.706 58.9167 822.033 58.9167C822.629 58.8455 823.344 58.3893 824.178 57.5626C824.491 57.2632 824.789 56.9497 825.087 56.6361C825.385 56.3225 825.579 56.1372 825.638 56.0944C825.713 56.0231 825.802 55.9946 825.906 55.9946Z" fill="#686868"/>
        <path d="M830.33 52.6167C832.728 50.0081 834.784 48.6968 836.467 48.6968C836.884 48.6968 837.227 48.8108 837.495 49.0531C837.763 49.2954 837.897 49.5948 837.897 49.9796C837.897 50.3645 837.614 50.9917 837.048 51.8897C836.482 52.7735 835.961 53.529 835.484 54.1419C835.231 54.4555 834.948 54.6123 834.62 54.6123C834.307 54.6123 834.054 54.4983 833.875 54.2702C833.697 54.0421 833.607 53.7855 833.607 53.4862C833.607 52.8162 833.98 52.0465 834.739 51.2055L834.709 51.177C834.367 51.2055 833.548 51.847 832.207 53.0728C830.881 54.3129 829.749 55.4248 828.811 56.3941C827.887 57.3776 826.874 58.5607 825.772 59.9719C825.459 60.3853 825.191 60.5991 824.968 60.5991C824.744 60.5991 824.461 60.5278 824.104 60.3995C823.746 60.2712 823.523 60.1715 823.448 60.1144C823.374 60.0574 823.329 59.9576 823.329 59.8151C823.329 59.6868 823.374 59.5158 823.448 59.3447C823.523 59.1594 823.686 58.9028 823.895 58.575C824.104 58.2471 824.446 57.7055 824.893 56.9642C825.34 56.223 826.025 55.0969 826.964 53.6002C827.902 52.1035 828.453 51.1913 828.647 50.8777C829.034 50.2362 829.347 49.7658 829.6 49.4807C830.062 48.9248 830.837 48.654 831.924 48.654C832.162 48.654 832.296 48.7965 832.296 49.0959C832.296 49.552 831.849 50.4215 830.971 51.6759L830.33 52.6167Z" fill="#686868"/>
        <path d="M846.761 49.652C846.761 50.2935 846.493 50.8636 845.941 51.3483C845.39 51.8329 844.78 52.0753 844.079 52.0753C843.856 52.0753 843.707 52.0182 843.633 51.9185C843.558 51.8187 843.528 51.6761 843.528 51.5193C843.528 51.3625 843.543 51.1915 843.588 51.0347C843.215 51.1487 842.813 51.334 842.366 51.5763C841.92 51.8187 841.368 52.175 840.713 52.6597C840.058 53.1443 839.73 53.4864 839.73 53.7287C839.73 53.8 839.849 53.8428 840.087 53.8428C840.326 53.8428 840.698 53.7573 841.19 53.6005C841.681 53.4437 842.039 53.3581 842.232 53.3581C842.426 53.3581 842.56 53.3724 842.62 53.3866C842.754 53.4579 842.888 53.6005 843.052 53.8285C843.201 54.0566 843.275 54.2419 843.275 54.3702C843.275 54.4985 843.141 54.6695 842.873 54.8833C842.605 55.0972 842.307 55.254 841.979 55.368C841.637 55.482 841.413 55.5676 841.309 55.6246C839.164 56.7792 838.091 57.5632 838.091 57.9908C838.091 58.7463 838.762 59.1311 840.117 59.1311C840.981 59.1311 841.86 58.8745 842.724 58.3471C843.469 57.9053 844.139 57.4491 844.735 56.9787C845.331 56.5226 845.703 56.2375 845.867 56.1235C846.031 56.0094 846.15 55.9667 846.224 55.9667C846.493 55.9667 846.627 56.2518 846.627 56.8219C846.627 57.3921 846.597 57.7627 846.522 57.9338C846.448 58.1191 846.254 58.3329 845.912 58.6037C843.737 60.3 841.666 61.1552 839.73 61.1552C838.687 61.1552 837.868 61.0127 837.242 60.7419C836.095 60.243 835.529 59.4875 835.529 58.4612C835.529 57.1213 836.497 56.095 838.449 55.4108C838.061 55.2397 837.808 55.0401 837.704 54.7693C837.585 54.5127 837.54 54.0994 837.54 53.5292C837.54 52.959 837.823 52.3603 838.374 51.7189C838.925 51.0775 839.611 50.55 840.415 50.1509C842.203 49.2244 843.811 48.7682 845.212 48.7682C845.554 48.7682 845.882 48.8395 846.239 48.9963C846.597 49.1531 846.761 49.3669 846.761 49.652Z" fill="#686868"/>
        <path d="M881.528 39.7307H881.722C881.781 39.7307 881.826 39.7307 881.841 39.7449C881.856 39.7592 881.871 39.7592 881.9 39.7734C881.93 39.7734 881.945 39.7877 881.975 39.8162C882.02 39.859 882.094 39.9017 882.183 39.9445C882.303 40.03 882.362 40.1298 882.362 40.2438C882.362 40.3579 882.243 40.6002 882.005 40.9708C881.766 41.3414 881.156 42.2394 880.158 43.6934C877.878 47.0289 875.838 50.1363 874.035 52.9872C870.922 57.9477 869.343 60.4422 869.313 60.4707C869.284 60.4992 869.269 60.5277 869.254 60.5562C869.239 60.6132 869.209 60.6417 869.135 60.6417L868.926 60.599L868.509 60.6987L868.271 60.656L868.017 60.6987H867.928L867.079 60.8128C866.572 60.8128 866.319 60.6417 866.319 60.3139C866.319 60.1713 866.364 60.0003 866.453 59.8007C866.766 59.088 868.36 56.508 871.22 52.0321C869.343 52.0749 867.481 52.1034 865.649 52.1034L862.372 52.0891C861.836 52.9159 861.091 54.0847 860.152 55.61C858.126 58.9312 857.054 60.599 856.92 60.6275C856.786 60.656 856.682 60.6845 856.592 60.6845C856.503 60.6845 856.428 60.6417 856.369 60.5419C856.294 60.4564 856.25 60.3994 856.22 60.3994C856.19 60.3994 856.145 60.4137 856.056 60.4564C855.981 60.4992 855.862 60.5134 855.698 60.5134L855.341 60.4992L855.207 60.4137C855.192 60.4137 855.177 60.4279 855.162 60.4564C855.147 60.4849 855.103 60.4992 855.043 60.4992C854.611 60.4992 854.388 60.3281 854.388 59.9718C854.388 59.7437 854.477 59.4301 854.641 59.0452C854.82 58.6604 855.043 58.247 855.326 57.8051C855.609 57.3632 856.324 56.2942 857.501 54.6264C858.663 52.9587 859.244 52.1176 859.244 52.1034C859.05 52.0891 858.827 52.0891 858.573 52.0749C858.052 52.0749 857.694 52.0606 857.471 52.0179C856.89 51.9181 856.488 51.462 856.279 50.6495C856.16 50.2503 856.115 49.9938 856.13 49.8655C856.13 49.6089 856.25 49.4664 856.488 49.4664L856.89 49.5661C857.099 49.5804 857.575 49.5946 858.35 49.6374C859.124 49.6802 859.676 49.6944 860.018 49.6944L860.882 49.6659C862.208 47.6846 863.787 45.4324 865.634 42.9236C864.293 43.9784 862.804 44.5059 861.165 44.5059C860.391 44.5059 859.72 44.3348 859.169 43.9784C858.603 43.6221 858.335 43.166 858.335 42.6243C858.335 42.0826 858.544 41.655 858.976 41.3271C859.408 41.0136 859.81 40.8568 860.197 40.8568C860.584 40.8568 860.778 40.9138 860.778 41.0278C860.778 41.0706 860.718 41.1133 860.614 41.1561C860.51 41.2131 860.45 41.2559 860.45 41.2986C860.45 41.4554 860.629 41.598 860.986 41.712C861.344 41.826 861.746 41.8973 862.193 41.8973C862.64 41.8973 863.176 41.769 863.832 41.5267C864.487 41.2844 865.157 40.9565 865.857 40.5717C866.841 40.03 867.615 39.5739 868.181 39.2175C868.509 39.0607 868.807 38.9894 869.105 38.9894C869.403 38.9894 869.596 39.0179 869.73 39.0892C869.864 39.1462 869.954 39.2175 870.013 39.2745C870.073 39.3315 870.147 39.4171 870.207 39.5169C870.282 39.6166 870.341 39.7022 870.416 39.7449C870.475 39.8019 870.52 39.859 870.52 39.9302C870.52 40.0015 870.475 40.1013 870.401 40.2581C870.326 40.4006 869.939 40.9993 869.239 42.0399C868.539 43.0804 867.63 44.4061 866.528 46.0168C865.425 47.6275 864.621 48.8107 864.115 49.5804C866.841 49.5804 869.775 49.5376 872.933 49.4378C876.776 43.6363 878.802 40.6002 879.011 40.3151C879.219 40.03 879.413 39.8447 879.591 39.7592C879.77 39.6736 879.979 39.6309 880.232 39.6309L881.528 39.7307Z" fill="#686868"/>
        <path d="M886.503 49.4523C886.816 49.4523 887.129 49.5806 887.442 49.8514C887.769 50.1222 887.918 50.5213 887.918 51.063C887.918 51.6047 887.725 52.3031 887.322 53.1726C886.92 54.0279 886.384 54.9117 885.684 55.8097C884.999 56.6935 884.224 57.5345 883.405 58.3184C882.571 59.1024 881.677 59.7439 880.723 60.2428C879.755 60.7417 878.891 60.9983 878.102 60.9983C877.312 60.9983 876.687 60.7559 876.21 60.2855C875.733 59.8151 875.495 59.1594 875.495 58.3184C875.495 57.4774 875.718 56.5367 876.15 55.5246C876.582 54.4983 877.134 53.6003 877.819 52.8163C878.504 52.0323 879.234 51.3338 880.038 50.7066C881.692 49.4238 883.151 48.7966 884.403 48.7966C884.969 48.7966 885.386 48.9249 885.669 49.1957C885.773 49.2812 885.818 49.3667 885.818 49.4238V49.5093C885.982 49.4523 886.205 49.4523 886.503 49.4523ZM884.969 51.3909H884.865C884.507 51.3909 884.328 51.1485 884.328 50.6496C883.583 50.8777 882.809 51.2911 881.99 51.8755C881.17 52.4599 880.44 53.1584 879.8 53.9566C878.489 55.5531 877.834 56.9073 877.819 58.0049C877.819 58.5465 878.027 58.8173 878.444 58.8173C878.861 58.8173 879.487 58.5465 880.306 58.0334C881.126 57.5202 881.945 56.7647 882.764 55.7812C883.569 54.8119 884.179 53.9566 884.582 53.2439C884.984 52.5312 885.192 52.0466 885.192 51.7757C885.177 51.5191 885.103 51.3909 884.969 51.3909Z" fill="#686868"/>
        <path d="M887.591 60.6701L886.846 60.6416H886.578C886.473 60.6131 886.369 60.5561 886.25 60.4705C886.131 60.385 886.041 60.3137 885.982 60.2852C885.922 60.2567 885.892 60.1712 885.892 60.0714C885.892 59.9716 885.937 59.7863 886.012 59.544C887.993 55.3675 889.914 52.0177 891.776 49.5232C891.985 49.2524 892.313 49.0386 892.759 48.8961C893.206 48.7535 893.653 48.6822 894.085 48.6822C894.338 48.6822 894.473 48.8675 894.473 49.2524C894.473 49.3664 894.428 49.509 894.353 49.68C894.279 49.8654 894.07 50.1504 893.743 50.5638C893.415 50.9772 893.028 51.4476 892.581 51.9607C892.134 52.4739 891.881 52.7875 891.821 52.873C893.221 51.4903 894.473 50.464 895.605 49.7798C896.737 49.1099 897.541 48.7678 898.048 48.7678C898.554 48.7678 898.941 48.9103 899.209 49.1811C899.478 49.452 899.612 49.7513 899.612 50.0649C899.612 50.3785 899.582 50.6493 899.537 50.8489C899.492 51.0627 899.403 51.2765 899.284 51.5046C899.165 51.7327 899.06 51.9322 898.971 52.089C898.882 52.2458 898.733 52.4596 898.539 52.7162C898.331 52.9728 898.196 53.1581 898.122 53.2579C898.048 53.3577 897.884 53.543 897.645 53.8138C897.407 54.0846 897.273 54.2414 897.258 54.2699C897.541 53.9991 897.943 53.6 898.45 53.0583C898.956 52.5166 899.388 52.0748 899.746 51.7184C900.103 51.3621 900.535 50.9487 901.071 50.4925C901.608 50.0364 902.099 49.6658 902.546 49.395C903.648 48.7393 904.766 48.3972 905.898 48.3972C906.285 48.3972 906.613 48.5112 906.881 48.7535C907.149 48.9958 907.283 49.2667 907.283 49.5945C907.283 49.9224 906.866 50.7064 906.047 51.9322C905.227 53.1581 904.393 54.3982 903.574 55.6383C902.755 56.8785 902.338 57.6624 902.338 57.9903C902.338 58.4322 902.427 58.703 902.591 58.7885C902.77 58.8741 902.978 58.9026 903.216 58.8883C903.455 58.8741 903.812 58.7173 904.244 58.4322C904.691 58.1471 905.078 57.862 905.421 57.5484C905.987 57.0638 906.494 56.5934 906.985 56.1372C907.089 56.0517 907.194 56.009 907.328 56.009C907.521 56.009 907.641 56.1515 907.685 56.4366C907.73 56.7217 907.745 57.0067 907.745 57.3203C907.745 57.6339 907.715 57.8335 907.655 57.9475C907.357 58.4892 906.702 59.1592 905.704 59.9574C904.691 60.7414 903.723 61.1405 902.799 61.1405C902.68 61.1405 902.606 61.1405 902.561 61.1262C901.518 61.0265 900.788 60.7556 900.386 60.2995C899.984 59.8434 899.79 59.3017 899.79 58.6888C899.79 58.0758 900.014 57.3061 900.461 56.4223C900.908 55.5386 901.384 54.7261 901.92 54.0133C902.457 53.3006 902.933 52.6449 903.38 52.0605C903.827 51.4761 904.051 51.1625 904.051 51.1197C904.051 51.077 904.006 51.0485 903.931 51.0485C903.619 51.0485 902.918 51.5331 901.816 52.5166C899.954 54.1844 898.345 55.7951 896.99 57.3346C896.632 57.748 895.783 58.7743 894.458 60.442C894.309 60.6416 894.055 60.7414 893.728 60.7414C893.4 60.7414 893.057 60.6844 892.7 60.5561C892.342 60.4278 892.164 60.271 892.164 60.0857C892.164 59.9859 892.968 58.6175 894.592 55.9804C896.215 53.3434 897.02 51.9037 897.02 51.6756C897.02 51.4333 896.871 51.3193 896.573 51.3193C896.275 51.3193 895.649 51.7469 894.711 52.6022C892.134 54.9541 890.138 57.3061 888.723 59.6295C888.633 59.7721 888.455 59.9859 888.186 60.271C887.918 60.5561 887.68 60.6701 887.591 60.6701Z" fill="#686868"/>
        <path d="M917.129 49.652C917.129 50.2935 916.861 50.8636 916.31 51.3483C915.758 51.8329 915.148 52.0753 914.448 52.0753C914.224 52.0753 914.075 52.0182 914.001 51.9185C913.926 51.8187 913.896 51.6761 913.896 51.5193C913.896 51.3625 913.911 51.1915 913.956 51.0347C913.584 51.1487 913.181 51.334 912.735 51.5763C912.288 51.8187 911.737 52.175 911.081 52.6597C910.426 53.1443 910.098 53.4864 910.098 53.7287C910.098 53.8 910.217 53.8428 910.455 53.8428C910.694 53.8428 911.066 53.7573 911.558 53.6005C912.049 53.4437 912.407 53.3581 912.601 53.3581C912.794 53.3581 912.928 53.3724 912.988 53.3866C913.122 53.4579 913.256 53.6005 913.42 53.8285C913.569 54.0566 913.643 54.2419 913.643 54.3702C913.643 54.4985 913.509 54.6695 913.241 54.8833C912.973 55.0972 912.675 55.254 912.347 55.368C912.005 55.482 911.781 55.5676 911.677 55.6246C909.532 56.7792 908.459 57.5632 908.459 57.9908C908.459 58.7463 909.13 59.1311 910.485 59.1311C911.349 59.1311 912.228 58.8745 913.092 58.3471C913.837 57.9053 914.507 57.4491 915.103 56.9787C915.699 56.5226 916.071 56.2375 916.235 56.1235C916.399 56.0094 916.518 55.9667 916.593 55.9667C916.861 55.9667 916.995 56.2518 916.995 56.8219C916.995 57.3921 916.965 57.7627 916.891 57.9338C916.816 58.1191 916.622 58.3329 916.28 58.6037C914.105 60.3 912.034 61.1552 910.098 61.1552C909.055 61.1552 908.236 61.0127 907.61 60.7419C906.463 60.243 905.897 59.4875 905.897 58.4612C905.897 57.1213 906.866 56.095 908.817 55.4108C908.43 55.2397 908.176 55.0401 908.072 54.7693C907.953 54.5127 907.908 54.0994 907.908 53.5292C907.908 52.959 908.191 52.3603 908.742 51.7189C909.294 51.0775 909.979 50.55 910.783 50.1509C912.571 49.2244 914.179 48.7682 915.58 48.7682C915.922 48.7682 916.25 48.8395 916.608 48.9963C916.965 49.1531 917.129 49.3669 917.129 49.652Z" fill="#686868"/>
        <path d="M766.129 64.6186C770.046 66.1865 774.039 67.3981 778.105 68.3247C782.142 69.294 786.253 69.9782 790.364 70.4058C792.42 70.6766 794.491 70.7051 796.531 70.8904C798.602 70.9047 800.658 71.0615 802.713 70.9475L805.797 70.8762C806.824 70.8619 807.852 70.7337 808.88 70.6766C809.908 70.5911 810.936 70.5483 811.949 70.4201L815.002 70.0067C819.099 69.5791 823.076 68.6668 827.038 67.5692C831.045 66.5144 834.829 65.1175 838.836 63.6635C842.932 62.2238 847.371 61.2831 851.87 61.7392C854.089 62.01 856.324 62.6942 858.141 63.9486C859.973 65.1887 861.284 66.9563 862.118 68.8093C860.867 67.1558 859.303 65.8017 857.5 64.9607C855.698 64.1197 853.717 63.7776 851.751 63.8346C847.773 63.8916 843.856 65.1602 840.176 66.7567C836.438 68.5242 832.386 70.1207 828.304 71.4464C824.193 72.715 819.948 73.7271 815.643 74.2402C807.078 75.3235 798.304 75.3378 789.843 73.6985C785.598 72.9573 781.457 71.8027 777.45 70.3345C773.472 68.8093 769.585 67.0275 766.129 64.6186Z" fill="#686868"/>
        <path d="M908.578 40.8855C905.257 39.5314 901.875 38.4766 898.449 37.6498C895.038 36.7803 891.582 36.1674 888.111 35.7397C886.383 35.4832 884.626 35.4262 882.898 35.2266C881.155 35.1838 879.427 35.0128 877.684 35.084C876.82 35.0983 875.941 35.0983 875.077 35.084C874.213 35.084 873.335 35.1696 872.471 35.1981C871.607 35.2551 870.728 35.2694 869.864 35.3549L867.272 35.6542C863.801 35.9251 860.435 36.6093 857.068 37.4503C853.657 38.2342 850.425 39.3461 846.984 40.4579C843.453 41.584 839.625 42.2682 835.782 41.7551C833.89 41.4557 831.984 40.8143 830.479 39.6739C828.945 38.5478 827.902 37.0084 827.262 35.3976C828.319 36.8088 829.63 37.9634 831.134 38.6761C832.639 39.3888 834.292 39.6882 835.946 39.6739C839.283 39.6739 842.589 38.6476 845.718 37.3647C848.905 35.9108 852.406 34.6279 855.891 33.5731C859.407 32.561 863.071 31.7913 866.736 31.4207C874.05 30.6795 881.527 30.8505 888.692 32.4755C892.282 33.2025 895.783 34.3143 899.134 35.6827C902.501 37.0796 905.748 38.7046 908.578 40.8855Z" fill="#686868"/>
        <path d="M1034.13 58.2468V31H1052.11V58.2334H1034.13V58.2468ZM1049.93 51.9078L1050.39 48.8982L1048.72 48.7517L1048.21 51.0689C1047.17 51.535 1045.89 51.7613 1044.35 51.7613C1042.26 51.7613 1040.6 51.1754 1039.4 49.9902C1038.17 48.8049 1037.58 47.2468 1037.58 45.3026C1037.58 43.4115 1038.17 41.8534 1039.35 40.6283C1040.53 39.4031 1042.08 38.7905 1044.01 38.7905C1044.99 38.7905 1045.83 38.897 1046.5 39.0968C1047.17 39.2965 1047.78 39.5629 1048.36 39.9091L1048.86 42.1997L1050.56 42.0532L1050.07 39.0435C1049.35 38.4975 1048.5 38.0581 1047.51 37.7118C1046.53 37.3789 1045.31 37.2058 1043.86 37.2058C1042.14 37.2058 1040.66 37.5786 1039.43 38.3377C1038.19 39.0968 1037.22 40.0956 1036.53 41.3341C1035.84 42.5859 1035.5 43.9309 1035.5 45.3691C1035.5 47.6464 1036.29 49.5507 1037.87 51.0689C1039.46 52.587 1041.52 53.3461 1044.07 53.3461C1046.57 53.3461 1048.53 52.8667 1049.93 51.9078Z" fill="#686868"/>
        <path d="M1058.21 58.2468V31H1065.94V58.2334H1058.21V58.2468ZM1059.03 53.1064H1065.14V51.7347H1063.03V36.5266H1059V37.8983H1061.14V51.7347H1059.03V53.1064Z" fill="#686868"/>
        <path d="M1072.05 58.2468V31H1085.62V58.2334H1072.05V58.2468ZM1074.51 43.1985L1074.07 45.6754L1075.64 45.8486L1076.1 43.9975C1076.78 43.7045 1077.54 43.558 1078.43 43.558C1079.51 43.558 1080.24 43.7977 1080.61 44.2771C1080.98 44.7566 1081.16 45.3825 1081.16 46.1548V47.1137C1080.83 47.087 1080.49 47.0604 1080.12 47.0471C1079.75 47.0338 1079.39 47.0205 1079.03 47.0205C1077.69 47.0205 1076.4 47.2335 1075.21 47.6597C1074.02 48.0858 1073.42 48.9781 1073.42 50.3231C1073.42 51.4684 1073.82 52.2541 1074.64 52.6802C1075.46 53.1197 1076.27 53.3328 1077.06 53.3328C1078.03 53.3328 1078.86 53.1064 1079.55 52.6536C1080.24 52.2008 1080.77 51.6948 1081.16 51.1088V51.1621C1081.19 52.6136 1081.92 53.3328 1083.36 53.3328C1083.91 53.3328 1084.43 53.2129 1084.92 52.9732L1084.89 51.8679C1084.65 51.9611 1084.39 52.0144 1084.09 52.0144C1083.4 52.0144 1083.06 51.6282 1083.06 50.8558V45.7553C1083.06 43.3583 1081.63 42.1597 1078.76 42.1597C1077.97 42.1597 1077.22 42.2396 1076.52 42.3994C1075.81 42.5726 1075.13 42.8389 1074.51 43.1985ZM1081.15 49.0846C1081.07 49.9635 1080.67 50.6693 1079.94 51.1754C1079.21 51.6948 1078.43 51.9478 1077.6 51.9478C1077.07 51.9478 1076.57 51.8146 1076.09 51.5616C1075.6 51.3086 1075.36 50.8291 1075.36 50.1367C1075.36 49.2977 1075.73 48.765 1076.45 48.512C1077.18 48.2589 1077.98 48.1391 1078.89 48.1391C1079.3 48.1391 1079.69 48.1524 1080.06 48.1924C1080.43 48.219 1080.8 48.2456 1081.13 48.2589V49.0846H1081.15Z" fill="#686868"/>
        <path d="M1091.74 58.2468V31H1104.08V58.2334H1091.74V58.2468ZM1102.78 50.0035C1102.78 49.1512 1102.53 48.5253 1102.02 48.1125C1101.52 47.6996 1100.9 47.42 1100.16 47.2602C1099.41 47.1004 1098.68 46.9672 1097.95 46.8607C1097.22 46.7541 1096.59 46.581 1096.08 46.3546C1095.58 46.1282 1095.32 45.7287 1095.32 45.1561C1095.32 44.6101 1095.56 44.2106 1096.05 43.9442C1096.55 43.6779 1097.16 43.558 1097.92 43.558C1098.8 43.558 1099.62 43.7311 1100.38 44.0907L1100.68 45.8219L1102.25 45.6488L1101.95 43.1452C1101.44 42.8655 1100.83 42.6391 1100.1 42.4527C1099.37 42.2663 1098.59 42.1597 1097.76 42.1597C1096.65 42.1597 1095.64 42.3994 1094.7 42.8655C1093.76 43.3316 1093.29 44.1307 1093.29 45.2759C1093.29 46.1149 1093.55 46.7275 1094.05 47.1137C1094.56 47.5132 1095.19 47.7795 1095.95 47.9393C1096.71 48.0991 1097.46 48.2323 1098.2 48.3522C1098.95 48.4587 1099.58 48.6451 1100.08 48.8849C1100.59 49.1246 1100.84 49.5374 1100.84 50.1367C1100.84 50.7492 1100.52 51.202 1099.86 51.495C1099.2 51.788 1098.46 51.9345 1097.61 51.9345C1096.65 51.9345 1095.76 51.7613 1094.94 51.4018L1095.01 49.9769L1093.5 49.8304L1093.13 52.2674C1093.65 52.5737 1094.34 52.8267 1095.17 53.0265C1096.01 53.2262 1096.85 53.3328 1097.7 53.3328C1099.14 53.3328 1100.35 53.0398 1101.32 52.4405C1102.29 51.8679 1102.78 51.0422 1102.78 50.0035Z" fill="#686868"/>
        <path d="M1110.18 58.2468V31H1122.52V58.2334H1110.18V58.2468ZM1121.23 50.0035C1121.23 49.1512 1120.97 48.5253 1120.47 48.1125C1119.96 47.6996 1119.35 47.42 1118.6 47.2602C1117.85 47.1004 1117.12 46.9672 1116.39 46.8607C1115.66 46.7541 1115.03 46.581 1114.53 46.3546C1114.02 46.1282 1113.77 45.7287 1113.77 45.1561C1113.77 44.6101 1114 44.2106 1114.5 43.9442C1114.99 43.6779 1115.6 43.558 1116.36 43.558C1117.24 43.558 1118.06 43.7311 1118.82 44.0907L1119.12 45.8219L1120.69 45.6488L1120.39 43.1452C1119.88 42.8655 1119.27 42.6391 1118.54 42.4527C1117.81 42.2663 1117.03 42.1597 1116.2 42.1597C1115.09 42.1597 1114.08 42.3994 1113.14 42.8655C1112.2 43.3316 1111.74 44.1307 1111.74 45.2759C1111.74 46.1149 1111.99 46.7275 1112.5 47.1137C1113 47.5132 1113.63 47.7795 1114.39 47.9393C1115.15 48.0991 1115.9 48.2323 1116.65 48.3522C1117.39 48.4587 1118.02 48.6451 1118.53 48.8849C1119.03 49.1246 1119.29 49.5374 1119.29 50.1367C1119.29 50.7492 1118.96 51.202 1118.3 51.495C1117.65 51.788 1116.9 51.9345 1116.05 51.9345C1115.09 51.9345 1114.2 51.7613 1113.38 51.4018L1113.45 49.9769L1111.95 49.8304L1111.57 52.2674C1112.09 52.5737 1112.78 52.8267 1113.62 53.0265C1114.45 53.2262 1115.29 53.3328 1116.14 53.3328C1117.59 53.3328 1118.79 53.0398 1119.76 52.4405C1120.73 51.8679 1121.23 51.0422 1121.23 50.0035Z" fill="#686868"/>
        <path d="M1128.63 58.2468V31H1136.76V58.2334H1128.63V58.2468ZM1129.82 53.1064H1135.92V51.7347H1133.82V42.3861H1129.78V43.7578H1131.94V51.7347H1129.84V53.1064H1129.82ZM1131.73 37.4188V39.6162H1133.79V37.4188H1131.73Z" fill="#686868"/>
        <path d="M1142.86 58.2468V31H1155.86V58.2334H1142.86V58.2468ZM1154.7 49.4974L1153.07 49.1778C1152.71 50.989 1151.62 51.8945 1149.83 51.8945C1148.64 51.8945 1147.73 51.535 1147.1 50.8158C1146.47 50.0967 1146.16 49.0846 1146.16 47.8062C1146.16 46.6476 1146.44 45.6621 1147 44.8365C1147.55 44.0108 1148.47 43.6113 1149.76 43.6113C1150.74 43.6113 1151.61 43.811 1152.32 44.2106L1152.79 46.0217L1154.35 45.8486L1153.89 43.265C1153.28 42.8522 1152.64 42.5592 1151.97 42.3994C1151.29 42.2396 1150.56 42.1597 1149.77 42.1597C1147.91 42.1597 1146.49 42.7457 1145.56 43.9176C1144.62 45.0895 1144.16 46.4212 1144.16 47.8994C1144.16 49.6173 1144.65 50.9623 1145.65 51.9078C1146.64 52.8667 1147.97 53.3461 1149.62 53.3461C1151.28 53.3461 1152.5 52.9332 1153.28 52.1209C1154.05 51.2952 1154.53 50.4296 1154.7 49.4974Z" fill="#686868"/>
        <path d="M1041.9 73.1227C1041.56 73.682 1041.05 74.1215 1040.4 74.4278C1039.72 74.7341 1038.93 74.8939 1038.01 74.8939H1035.34V67.3831H1038.01C1038.93 67.3831 1039.74 67.5295 1040.4 67.8358C1041.05 68.1421 1041.56 68.5683 1041.9 69.1409C1042.25 69.7135 1042.41 70.3661 1042.41 71.1385C1042.41 71.8975 1042.25 72.5634 1041.9 73.1227ZM1040.43 73.2692C1041.01 72.7632 1041.29 72.0574 1041.29 71.1385C1041.29 70.2196 1041.01 69.5138 1040.43 69.0077C1039.84 68.5017 1039.01 68.2487 1037.9 68.2487H1036.4V74.0283H1037.9C1039.01 74.0283 1039.84 73.7753 1040.43 73.2692Z" fill="#686868"/>
        <path d="M1047.95 68.1688V70.739H1051.14V71.4847H1047.95V74.1082H1051.5V74.8939H1046.86V67.3831H1051.5V68.1688H1047.95Z" fill="#686868"/>
        <path d="M1060.93 73.9346C1060.73 74.2409 1060.45 74.494 1060.06 74.6804C1059.67 74.8668 1059.2 74.9734 1058.62 74.9734C1058.06 74.9734 1057.56 74.8802 1057.12 74.707C1056.69 74.5206 1056.35 74.2809 1056.08 73.9613C1055.82 73.6417 1055.68 73.2821 1055.63 72.8826H1056.79C1056.82 73.0957 1056.9 73.3087 1057.03 73.5085C1057.17 73.7083 1057.38 73.8814 1057.63 74.0145C1057.88 74.1477 1058.2 74.2143 1058.57 74.2143C1059.05 74.2143 1059.42 74.1078 1059.67 73.8681C1059.93 73.6284 1060.06 73.3487 1060.06 72.9891C1060.06 72.6828 1059.97 72.4298 1059.79 72.2434C1059.62 72.0569 1059.39 71.8971 1059.14 71.7906C1058.88 71.6841 1058.51 71.5642 1058.06 71.431C1057.53 71.2712 1057.11 71.1247 1056.78 70.9916C1056.45 70.8584 1056.18 70.6453 1055.96 70.3657C1055.74 70.086 1055.62 69.7264 1055.62 69.2737C1055.62 68.8875 1055.72 68.5412 1055.93 68.2349C1056.14 67.942 1056.44 67.7022 1056.84 67.5424C1057.23 67.3826 1057.71 67.3027 1058.23 67.3027C1059.05 67.3027 1059.72 67.4759 1060.2 67.8354C1060.69 68.195 1060.96 68.6478 1061.05 69.2071H1059.88C1059.82 68.9141 1059.64 68.6478 1059.38 68.4214C1059.09 68.195 1058.72 68.0751 1058.24 68.0751C1057.81 68.0751 1057.45 68.1817 1057.2 68.3814C1056.93 68.5812 1056.81 68.8742 1056.81 69.2337C1056.81 69.5267 1056.9 69.7664 1057.06 69.9395C1057.24 70.126 1057.45 70.2591 1057.71 70.3657C1057.96 70.4722 1058.32 70.5787 1058.75 70.7119C1059.29 70.8717 1059.72 71.0182 1060.06 71.1647C1060.39 71.3112 1060.67 71.5243 1060.9 71.8039C1061.12 72.0836 1061.24 72.4698 1061.24 72.9492C1061.21 73.2954 1061.12 73.6284 1060.93 73.9346Z" fill="#686868"/>
        <path d="M1066.75 67.3831V74.8939H1065.66V67.3831H1066.75Z" fill="#686868"/>
        <path d="M1077.76 67.9555C1078.43 68.395 1078.88 68.9809 1079.1 69.7267H1077.95C1077.76 69.2739 1077.42 68.901 1076.95 68.6347C1076.49 68.355 1075.94 68.2218 1075.3 68.2218C1074.73 68.2218 1074.21 68.3417 1073.76 68.5814C1073.31 68.8211 1072.96 69.154 1072.69 69.5935C1072.43 70.033 1072.3 70.5523 1072.3 71.1516C1072.3 71.7642 1072.43 72.2969 1072.69 72.7363C1072.94 73.1758 1073.31 73.5221 1073.78 73.7618C1074.24 74.0015 1074.78 74.1213 1075.39 74.1213C1075.91 74.1213 1076.37 74.0148 1076.81 73.8283C1077.24 73.6286 1077.58 73.3356 1077.87 72.9627C1078.15 72.5899 1078.3 72.1371 1078.36 71.631H1075.04V70.9119H1079.27V71.8042C1079.19 72.4034 1078.98 72.9361 1078.64 73.4288C1078.3 73.9216 1077.84 74.2944 1077.25 74.5741C1076.67 74.8538 1076.01 75.0002 1075.27 75.0002C1074.46 75.0002 1073.75 74.8404 1073.12 74.5208C1072.49 74.2012 1072.02 73.7484 1071.67 73.1625C1071.33 72.5899 1071.15 71.924 1071.15 71.1782C1071.15 70.4325 1071.33 69.7666 1071.67 69.194C1072.02 68.6214 1072.51 68.1553 1073.12 67.8357C1073.73 67.516 1074.45 67.3429 1075.25 67.3429C1076.27 67.3163 1077.09 67.5294 1077.76 67.9555Z" fill="#686868"/>
        <path d="M1090.28 74.8939H1089.19L1084.82 68.9545V74.8939H1083.73V67.3831H1084.82L1089.19 73.3225V67.3831H1090.28V74.8939Z" fill="#686868"/>
        <path d="M1105.98 73.9346C1105.78 74.2409 1105.5 74.494 1105.11 74.6804C1104.72 74.8668 1104.25 74.9734 1103.66 74.9734C1103.11 74.9734 1102.6 74.8802 1102.17 74.707C1101.74 74.5206 1101.4 74.2809 1101.13 73.9613C1100.87 73.6417 1100.72 73.2821 1100.68 72.8826H1101.84C1101.87 73.0957 1101.95 73.3087 1102.08 73.5085C1102.22 73.7083 1102.43 73.8814 1102.68 74.0145C1102.93 74.1477 1103.25 74.2143 1103.62 74.2143C1104.1 74.2143 1104.47 74.1078 1104.72 73.8681C1104.98 73.6284 1105.11 73.3487 1105.11 72.9891C1105.11 72.6828 1105.02 72.4298 1104.84 72.2434C1104.66 72.0569 1104.44 71.8971 1104.19 71.7906C1103.93 71.6841 1103.56 71.5642 1103.11 71.431C1102.57 71.2712 1102.16 71.1247 1101.83 70.9916C1101.5 70.8584 1101.23 70.6453 1101.01 70.3657C1100.78 70.086 1100.66 69.7264 1100.66 69.2737C1100.66 68.8875 1100.77 68.5412 1100.98 68.2349C1101.19 67.942 1101.49 67.7022 1101.89 67.5424C1102.28 67.3826 1102.75 67.3027 1103.28 67.3027C1104.1 67.3027 1104.77 67.4759 1105.25 67.8354C1105.74 68.195 1106.01 68.6478 1106.1 69.2071H1104.93C1104.87 68.9141 1104.69 68.6478 1104.43 68.4214C1104.14 68.195 1103.77 68.0751 1103.29 68.0751C1102.86 68.0751 1102.5 68.1817 1102.25 68.3814C1101.98 68.5812 1101.86 68.8742 1101.86 69.2337C1101.86 69.5267 1101.95 69.7664 1102.11 69.9395C1102.29 70.126 1102.5 70.2591 1102.75 70.3657C1103.01 70.4722 1103.37 70.5787 1103.8 70.7119C1104.34 70.8717 1104.77 71.0182 1105.11 71.1647C1105.44 71.3112 1105.72 71.5243 1105.95 71.8039C1106.17 72.0836 1106.29 72.4698 1106.29 72.9492C1106.26 73.2954 1106.17 73.6284 1105.98 73.9346Z" fill="#686868"/>
        <path d="M1115.87 67.3831V68.1688H1113.5V74.8939H1112.39V68.1688H1110.02V67.3831H1115.87Z" fill="#686868"/>
        <path d="M1120.94 67.3831V71.8842C1120.94 72.6167 1121.12 73.1627 1121.5 73.5222C1121.87 73.8685 1122.36 74.0549 1123.02 74.0549C1123.66 74.0549 1124.15 73.8818 1124.51 73.5222C1124.87 73.1627 1125.05 72.63 1125.05 71.8975V67.3964H1126.14V71.8975C1126.14 72.923 1125.85 73.6954 1125.29 74.2014C1124.72 74.7208 1123.96 74.9738 1123 74.9738C1122.06 74.9738 1121.3 74.7208 1120.74 74.2014C1120.17 73.682 1119.88 72.923 1119.88 71.8975V67.3964H1120.94V67.3831Z" fill="#686868"/>
        <path d="M1137.37 73.1227C1137.03 73.682 1136.52 74.1215 1135.86 74.4278C1135.19 74.7341 1134.4 74.8939 1133.48 74.8939H1130.81V67.3831H1133.48C1134.4 67.3831 1135.21 67.5295 1135.86 67.8358C1136.52 68.1421 1137.03 68.5683 1137.37 69.1409C1137.72 69.7135 1137.88 70.3661 1137.88 71.1385C1137.88 71.8975 1137.72 72.5634 1137.37 73.1227ZM1135.91 73.2692C1136.49 72.7632 1136.78 72.0574 1136.78 71.1385C1136.78 70.2196 1136.49 69.5138 1135.91 69.0077C1135.33 68.5017 1134.49 68.2487 1133.39 68.2487H1131.88V74.0283H1133.39C1134.48 74.0283 1135.33 73.7753 1135.91 73.2692Z" fill="#686868"/>
        <path d="M1143.43 67.3831V74.8939H1142.34V67.3831H1143.43Z" fill="#686868"/>
        <path d="M1154.11 67.782C1154.74 68.115 1155.23 68.5677 1155.59 69.1537C1155.95 69.7396 1156.13 70.4055 1156.13 71.1379C1156.13 71.8704 1155.95 72.5362 1155.59 73.1222C1155.23 73.7081 1154.74 74.1609 1154.11 74.4939C1153.49 74.8268 1152.79 74.9866 1152.01 74.9866C1151.23 74.9866 1150.52 74.8268 1149.89 74.4939C1149.26 74.1609 1148.76 73.7081 1148.4 73.1222C1148.04 72.5362 1147.86 71.8704 1147.86 71.1379C1147.86 70.4055 1148.04 69.7396 1148.4 69.1537C1148.76 68.5677 1149.25 68.115 1149.89 67.782C1150.53 67.4491 1151.23 67.2893 1152.01 67.2893C1152.79 67.2893 1153.49 67.4491 1154.11 67.782ZM1150.44 68.5544C1149.98 68.7941 1149.62 69.1271 1149.37 69.5798C1149.12 70.0193 1148.98 70.5387 1148.98 71.1379C1148.98 71.7239 1149.12 72.2433 1149.37 72.696C1149.62 73.1488 1149.98 73.4818 1150.44 73.7215C1150.91 73.9612 1151.41 74.081 1152 74.081C1152.56 74.081 1153.08 73.9612 1153.55 73.7215C1154.01 73.4818 1154.37 73.1355 1154.62 72.696C1154.88 72.2566 1155.01 71.7372 1155.01 71.1513C1155.01 70.552 1154.88 70.0326 1154.62 69.5932C1154.37 69.1537 1154.01 68.8075 1153.55 68.5677C1153.08 68.328 1152.58 68.2082 1152 68.2082C1151.43 68.1949 1150.91 68.3147 1150.44 68.5544Z" fill="#686868"/>
    </g>
</svg>
